robomatn
<glyph name="parenleft" format="2">
  <advance width="700"/>
  <unicode hex="0028"/>
  <outline>
    <contour>
      <point x="312" y="591" type="qcurve" smooth="yes"/>
      <point x="312" y="403"/>
      <point x="392" y="42"/>
      <point x="547" y="-252"/>
      <point x="661" y="-339" type="qcurve"/>
      <point x="623" y="-461" type="line"/>
      <point x="512" y="-401"/>
      <point x="332" y="-187"/>
      <point x="203" y="94"/>
      <point x="133" y="420"/>
      <point x="133" y="591" type="qcurve" smooth="yes"/>
      <point x="133" y="762"/>
      <point x="203" y="1088"/>
      <point x="332" y="1369"/>
      <point x="512" y="1583"/>
      <point x="623" y="1643" type="qcurve"/>
      <point x="661" y="1521" type="line"/>
      <point x="547" y="1434"/>
      <point x="392" y="1140"/>
      <point x="312" y="779"/>
    </contour>
  </outline>
</glyph>
<glyph name="asterisk" format="2">
  <advance width="882"/>
  <unicode hex="002A"/>
  <outline>
    <contour>
      <point x="129" y="708" type="line"/>
      <point x="330" y="984" type="line"/>
      <point x="28" y="1074" type="line"/>
      <point x="75" y="1224" type="line"/>
      <point x="377" y="1113" type="line"/>
      <point x="368" y="1457" type="line"/>
      <point x="520" y="1457" type="line"/>
      <point x="510" y="1107" type="line"/>
      <point x="808" y="1218" type="line"/>
      <point x="854" y="1065" type="line"/>
      <point x="547" y="974" type="line"/>
      <point x="744" y="703" type="line"/>
      <point x="620" y="610" type="line"/>
      <point x="435" y="898" type="line"/>
      <point x="254" y="617" type="line"/>
    </contour>
  </outline>
</glyph>
<glyph name="hyphen" format="2">
  <advance width="955"/>
  <unicode hex="002D"/>
  <outline>
    <contour>
      <point x="815" y="443" type="line"/>
      <point x="140" y="443" type="line"/>
      <point x="140" y="594" type="line"/>
      <point x="815" y="594" type="line"/>
    </contour>
  </outline>
</glyph>
<glyph name="two" format="2">
  <advance width="1151"/>
  <unicode hex="0032"/>
  <outline>
    <contour>
      <point x="1075" y="152" type="line"/>
      <point x="1075" y="0" type="line"/>
      <point x="122" y="0" type="line"/>
      <point x="122" y="133" type="line"/>
      <point x="599" y="664" type="line" smooth="yes"/>
      <point x="687" y="762"/>
      <point x="784" y="899"/>
      <point x="823" y="1008"/>
      <point x="823" y="1065" type="qcurve" smooth="yes"/>
      <point x="823" y="1172"/>
      <point x="691" y="1324"/>
      <point x="569" y="1324" type="qcurve" smooth="yes"/>
      <point x="423" y="1324"/>
      <point x="279" y="1159"/>
      <point x="279" y="1028" type="qcurve"/>
      <point x="94" y="1028" type="line"/>
      <point x="94" y="1151"/>
      <point x="202" y="1355"/>
      <point x="414" y="1476"/>
      <point x="569" y="1476" type="qcurve" smooth="yes"/>
      <point x="775" y="1476"/>
      <point x="1008" y="1262"/>
      <point x="1008" y="1087" type="qcurve" smooth="yes"/>
      <point x="1008" y="958"/>
      <point x="847" y="697"/>
      <point x="735" y="575" type="qcurve" smooth="yes"/>
      <point x="345" y="152" type="line"/>
    </contour>
  </outline>
</glyph>
<glyph name="four" format="2">
  <advance width="1151"/>
  <unicode hex="0034"/>
  <outline>
    <contour>
      <point x="1105" y="490" type="line"/>
      <point x="1105" y="338" type="line"/>
      <point x="902" y="338" type="line"/>
      <point x="902" y="0" type="line"/>
      <point x="717" y="0" type="line"/>
      <point x="717" y="338" type="line"/>
      <point x="53" y="338" type="line"/>
      <point x="53" y="447" type="line"/>
      <point x="705" y="1456" type="line"/>
      <point x="902" y="1456" type="line"/>
      <point x="902" y="490" type="line"/>
    </contour>
    <contour>
      <point x="263" y="490" type="line"/>
      <point x="717" y="490" type="line"/>
      <point x="717" y="1205" type="line"/>
      <point x="694" y="1164" type="line"/>
    </contour>
  </outline>
</glyph>
<glyph name="question" format="2">
  <advance width="968"/>
  <unicode hex="003F"/>
  <outline>
    <contour>
      <point x="543" y="410" type="qcurve"/>
      <point x="357" y="410" type="line"/>
      <point x="358" y="506"/>
      <point x="391" y="629"/>
      <point x="467" y="731"/>
      <point x="530" y="796" type="qcurve" smooth="yes"/>
      <point x="576" y="843"/>
      <point x="653" y="926"/>
      <point x="701" y="1023"/>
      <point x="701" y="1091" type="qcurve" smooth="yes"/>
      <point x="701" y="1195"/>
      <point x="591" y="1314"/>
      <point x="487" y="1314" type="qcurve" smooth="yes"/>
      <point x="399" y="1314"/>
      <point x="261" y="1219"/>
      <point x="260" y="1115" type="qcurve"/>
      <point x="75" y="1115" type="line"/>
      <point x="77" y="1228"/>
      <point x="186" y="1390"/>
      <point x="372" y="1476"/>
      <point x="487" y="1476" type="qcurve" smooth="yes"/>
      <point x="678" y="1476"/>
      <point x="887" y="1272"/>
      <point x="887" y="1096" type="qcurve" smooth="yes"/>
      <point x="887" y="1006"/>
      <point x="814" y="855"/>
      <point x="700" y="723"/>
      <point x="636" y="663" type="qcurve" smooth="yes"/>
      <point x="581" y="612"/>
      <point x="543" y="484"/>
    </contour>
    <contour>
      <point x="349" y="93" type="qcurve" smooth="yes"/>
      <point x="349" y="138"/>
      <point x="405" y="200"/>
      <point x="458" y="200" type="qcurve" smooth="yes"/>
      <point x="512" y="200"/>
      <point x="568" y="138"/>
      <point x="568" y="93" type="qcurve" smooth="yes"/>
      <point x="568" y="50"/>
      <point x="512" y="-12"/>
      <point x="458" y="-12" type="qcurve" smooth="yes"/>
      <point x="405" y="-12"/>
      <point x="349" y="50"/>
    </contour>
  </outline>
</glyph>
<glyph name="C" format="2">
  <advance width="1333"/>
  <unicode hex="0043"/>
  <anchor x="680" y="-10" name="Anchor-1"/>
  <anchor x="680" y="1633" name="Anchor-0"/>
  <outline>
    <contour>
      <point x="1048" y="463" type="qcurve"/>
      <point x="1240" y="463" type="line"/>
      <point x="1225" y="325"/>
      <point x="1097" y="107"/>
      <point x="863" y="-20"/>
      <point x="688" y="-20" type="qcurve" smooth="yes"/>
      <point x="517" y="-20"/>
      <point x="262" y="147"/>
      <point x="120" y="451"/>
      <point x="120" y="655" type="qcurve" smooth="yes"/>
      <point x="120" y="800" type="line" smooth="yes"/>
      <point x="120" y="1004"/>
      <point x="262" y="1308"/>
      <point x="525" y="1476"/>
      <point x="705" y="1476" type="qcurve" smooth="yes"/>
      <point x="870" y="1476"/>
      <point x="1098" y="1352"/>
      <point x="1225" y="1133"/>
      <point x="1240" y="989" type="qcurve"/>
      <point x="1048" y="989" type="line"/>
      <point x="1026" y="1141"/>
      <point x="874" y="1318"/>
      <point x="705" y="1318" type="qcurve" smooth="yes"/>
      <point x="512" y="1318"/>
      <point x="312" y="1034"/>
      <point x="312" y="802" type="qcurve" smooth="yes"/>
      <point x="312" y="655" type="line" smooth="yes"/>
      <point x="312" y="512"/>
      <point x="392" y="277"/>
      <point x="559" y="137"/>
      <point x="688" y="137" type="qcurve" smooth="yes"/>
      <point x="811" y="137"/>
      <point x="957" y="215"/>
      <point x="1032" y="361"/>
    </contour>
  </outline>
</glyph>
<glyph name="F" format="2">
  <advance width="1132"/>
  <unicode hex="0046"/>
  <anchor x="619" y="10" name="Anchor-1"/>
  <anchor x="619" y="1612" name="Anchor-0"/>
  <outline>
    <contour>
      <point x="972" y="801" type="line"/>
      <point x="972" y="643" type="line"/>
      <point x="362" y="643" type="line"/>
      <point x="362" y="0" type="line"/>
      <point x="169" y="0" type="line"/>
      <point x="169" y="1456" type="line"/>
      <point x="1071" y="1456" type="line"/>
      <point x="1071" y="1298" type="line"/>
      <point x="362" y="1298" type="line"/>
      <point x="362" y="801" type="line"/>
    </contour>
  </outline>
</glyph>
<glyph name="S" format="2">
  <advance width="1216"/>
  <unicode hex="0053"/>
  <anchor x="628" y="-1" name="Anchor-1"/>
  <anchor x="622" y="1603" name="Anchor-0"/>
  <outline>
    <contour>
      <point x="945" y="368" type="qcurve" smooth="yes"/>
      <point x="945" y="436"/>
      <point x="887" y="532"/>
      <point x="737" y="610"/>
      <point x="599" y="650" type="qcurve" smooth="yes"/>
      <point x="383" y="713"/>
      <point x="127" y="911"/>
      <point x="127" y="1080" type="qcurve" smooth="yes"/>
      <point x="127" y="1193"/>
      <point x="250" y="1372"/>
      <point x="473" y="1476"/>
      <point x="622" y="1476" type="qcurve" smooth="yes"/>
      <point x="786" y="1476"/>
      <point x="1015" y="1351"/>
      <point x="1135" y="1150"/>
      <point x="1135" y="1036" type="qcurve"/>
      <point x="943" y="1036" type="line"/>
      <point x="943" y="1158"/>
      <point x="785" y="1318"/>
      <point x="622" y="1318" type="qcurve" smooth="yes"/>
      <point x="468" y="1318"/>
      <point x="320" y="1183"/>
      <point x="320" y="1082" type="qcurve" smooth="yes"/>
      <point x="320" y="991"/>
      <point x="481" y="868"/>
      <point x="661" y="818" type="qcurve" smooth="yes"/>
      <point x="909" y="748"/>
      <point x="1139" y="540"/>
      <point x="1139" y="370" type="qcurve" smooth="yes"/>
      <point x="1139" y="252"/>
      <point x="1013" y="76"/>
      <point x="785" y="-20"/>
      <point x="631" y="-20" type="qcurve" smooth="yes"/>
      <point x="530" y="-20"/>
      <point x="335" y="36"/>
      <point x="176" y="148"/>
      <point x="81" y="313"/>
      <point x="81" y="422" type="qcurve"/>
      <point x="273" y="422" type="line"/>
      <point x="273" y="323"/>
      <point x="374" y="197"/>
      <point x="538" y="137"/>
      <point x="631" y="137" type="qcurve" smooth="yes"/>
      <point x="782" y="137"/>
      <point x="945" y="262"/>
    </contour>
  </outline>
</glyph>
<glyph name="X" format="2">
  <advance width="1284"/>
  <unicode hex="0058"/>
  <anchor x="645" y="10" name="Anchor-1"/>
  <anchor x="653" y="1612" name="Anchor-0"/>
  <outline>
    <contour>
      <point x="294" y="1456" type="line"/>
      <point x="644" y="898" type="line"/>
      <point x="994" y="1456" type="line"/>
      <point x="1219" y="1456" type="line"/>
      <point x="759" y="735" type="line"/>
      <point x="1230" y="0" type="line"/>
      <point x="1003" y="0" type="line"/>
      <point x="644" y="569" type="line"/>
      <point x="285" y="0" type="line"/>
      <point x="58" y="0" type="line"/>
      <point x="529" y="735" type="line"/>
      <point x="69" y="1456" type="line"/>
    </contour>
  </outline>
</glyph>
<glyph name="Y" format="2">
  <advance width="1230"/>
  <unicode hex="0059"/>
  <anchor x="615" y="1" name="Anchor-1"/>
  <anchor x="618" y="1600" name="Anchor-0"/>
  <outline>
    <contour>
      <point x="236" y="1456" type="line"/>
      <point x="614" y="725" type="line"/>
      <point x="993" y="1456" type="line"/>
      <point x="1212" y="1456" type="line"/>
      <point x="710" y="544" type="line"/>
      <point x="710" y="0" type="line"/>
      <point x="517" y="0" type="line"/>
      <point x="517" y="544" type="line"/>
      <point x="15" y="1456" type="line"/>
    </contour>
  </outline>
</glyph>
<glyph name="f" format="2">
  <advance width="712"/>
  <unicode hex="0066"/>
  <anchor x="330" y="10" name="Anchor-1"/>
  <anchor x="502" y="1754" name="Anchor-0"/>
  <outline>
    <contour>
      <point x="417" y="0" type="line"/>
      <point x="232" y="0" type="line"/>
      <point x="232" y="940" type="line"/>
      <point x="61" y="940" type="line"/>
      <point x="61" y="1082" type="line"/>
      <point x="232" y="1082" type="line"/>
      <point x="232" y="1196" type="line" smooth="yes"/>
      <point x="232" y="1371"/>
      <point x="421" y="1557"/>
      <point x="587" y="1557" type="qcurve" smooth="yes"/>
      <point x="648" y="1557"/>
      <point x="715" y="1541" type="qcurve"/>
      <point x="705" y="1390" type="line"/>
      <point x="663" y="1399"/>
      <point x="605" y="1399" type="qcurve" smooth="yes"/>
      <point x="516" y="1399"/>
      <point x="417" y="1294"/>
      <point x="417" y="1196" type="qcurve" smooth="yes"/>
      <point x="417" y="1082" type="line"/>
      <point x="647" y="1082" type="line"/>
      <point x="647" y="940" type="line"/>
      <point x="417" y="940" type="line"/>
    </contour>
  </outline>
</glyph>
<glyph name="x" format="2">
  <advance width="1016"/>
  <unicode hex="0078"/>
  <anchor x="511" y="10" name="Anchor-1"/>
  <anchor x="508" y="1280" name="Anchor-0"/>
  <outline>
    <contour>
      <point x="266" y="1082" type="line"/>
      <point x="503" y="688" type="line"/>
      <point x="743" y="1082" type="line"/>
      <point x="960" y="1082" type="line"/>
      <point x="606" y="548" type="line"/>
      <point x="971" y="0" type="line"/>
      <point x="757" y="0" type="line"/>
      <point x="507" y="406" type="line"/>
      <point x="257" y="0" type="line"/>
      <point x="42" y="0" type="line"/>
      <point x="406" y="548" type="line"/>
      <point x="53" y="1082" type="line"/>
    </contour>
  </outline>
</glyph>
<glyph name="exclamdown" format="2">
  <advance width="500"/>
  <unicode hex="00A1"/>
  <outline>
    <contour>
      <point x="358" y="996" type="qcurve" smooth="yes"/>
      <point x="358" y="952"/>
      <point x="303" y="890"/>
      <point x="249" y="890" type="qcurve" smooth="yes"/>
      <point x="196" y="890"/>
      <point x="139" y="952"/>
      <point x="139" y="996" type="qcurve" smooth="yes"/>
      <point x="139" y="1040"/>
      <point x="196" y="1101"/>
      <point x="249" y="1101" type="qcurve" smooth="yes"/>
      <point x="303" y="1101"/>
      <point x="358" y="1040"/>
    </contour>
    <contour>
      <point x="157" y="-361" type="line"/>
      <point x="171" y="684" type="line"/>
      <point x="338" y="684" type="line"/>
      <point x="352" y="-361" type="line"/>
    </contour>
  </outline>
</glyph>
<glyph name="sterling" format="2">
  <advance width="1191"/>
  <unicode hex="00A3"/>
  <outline>
    <contour>
      <point x="763" y="623" type="line"/>
      <point x="449" y="623" type="line"/>
      <point x="457" y="402" type="line" smooth="yes"/>
      <point x="458" y="332"/>
      <point x="427" y="204"/>
      <point x="396" y="157" type="qcurve"/>
      <point x="1128" y="157" type="line"/>
      <point x="1128" y="0" type="line"/>
      <point x="95" y="0" type="line"/>
      <point x="95" y="157" type="line"/>
      <point x="172" y="157" type="line"/>
      <point x="207" y="166"/>
      <point x="248" y="249"/>
      <point x="265" y="357"/>
      <point x="265" y="401" type="qcurve" smooth="yes"/>
      <point x="257" y="623" type="line"/>
      <point x="91" y="623" type="line"/>
      <point x="91" y="780" type="line"/>
      <point x="252" y="780" type="line"/>
      <point x="243" y="1039" type="line"/>
      <point x="243" y="1177"/>
      <point x="359" y="1372"/>
      <point x="560" y="1476"/>
      <point x="687" y="1476" type="qcurve" smooth="yes"/>
      <point x="883" y="1476"/>
      <point x="1100" y="1261"/>
      <point x="1100" y="1087" type="qcurve"/>
      <point x="908" y="1087" type="line"/>
      <point x="908" y="1212"/>
      <point x="764" y="1319"/>
      <point x="671" y="1319" type="qcurve" smooth="yes"/>
      <point x="572" y="1319"/>
      <point x="435" y="1174"/>
      <point x="435" y="1039" type="qcurve"/>
      <point x="444" y="780" type="line"/>
      <point x="763" y="780" type="line"/>
    </contour>
  </outline>
</glyph>
<glyph name="guillemotleft" format="2">
  <advance width="918"/>
  <unicode hex="00AB"/>
  <outline>
    <contour>
      <point x="446" y="61" type="qcurve"/>
      <point x="351" y="-30" type="line"/>
      <point x="227" y="117"/>
      <point x="102" y="345"/>
      <point x="102" y="452" type="qcurve" smooth="yes"/>
      <point x="102" y="559"/>
      <point x="227" y="787"/>
      <point x="351" y="933" type="qcurve"/>
      <point x="446" y="841" type="line"/>
      <point x="351" y="714"/>
      <point x="256" y="534"/>
      <point x="256" y="452" type="qcurve" smooth="yes"/>
      <point x="256" y="370"/>
      <point x="352" y="189"/>
    </contour>
    <contour>
      <point x="799" y="61" type="qcurve"/>
      <point x="704" y="-30" type="line"/>
      <point x="580" y="116"/>
      <point x="456" y="345"/>
      <point x="456" y="452" type="qcurve" smooth="yes"/>
      <point x="456" y="559"/>
      <point x="580" y="788"/>
      <point x="704" y="933" type="qcurve"/>
      <point x="799" y="841" type="line"/>
      <point x="704" y="714"/>
      <point x="609" y="534"/>
      <point x="609" y="452" type="qcurve" smooth="yes"/>
      <point x="609" y="370"/>
      <point x="705" y="189"/>
    </contour>
  </outline>
</glyph>
<glyph name="registered" format="2">
  <advance width="1610"/>
  <unicode hex="00AE"/>
  <outline>
    <contour>
      <point x="91" y="729" type="qcurve" smooth="yes"/>
      <point x="91" y="888"/>
      <point x="201" y="1160"/>
      <point x="397" y="1363"/>
      <point x="654" y="1476"/>
      <point x="801" y="1476" type="qcurve" smooth="yes"/>
      <point x="948" y="1476"/>
      <point x="1205" y="1363"/>
      <point x="1400" y="1160"/>
      <point x="1510" y="888"/>
      <point x="1510" y="729" type="qcurve" smooth="yes"/>
      <point x="1510" y="570"/>
      <point x="1400" y="298"/>
      <point x="1205" y="93"/>
      <point x="948" y="-21"/>
      <point x="801" y="-21" type="qcurve" smooth="yes"/>
      <point x="654" y="-21"/>
      <point x="397" y="93"/>
      <point x="201" y="298"/>
      <point x="91" y="570"/>
    </contour>
    <contour>
      <point x="206" y="729" type="qcurve" smooth="yes"/>
      <point x="206" y="596"/>
      <point x="298" y="366"/>
      <point x="462" y="194"/>
      <point x="678" y="98"/>
      <point x="801" y="98" type="qcurve" smooth="yes"/>
      <point x="924" y="98"/>
      <point x="1139" y="194"/>
      <point x="1302" y="366"/>
      <point x="1394" y="596"/>
      <point x="1394" y="729" type="qcurve" smooth="yes"/>
      <point x="1394" y="863"/>
      <point x="1302" y="1091"/>
      <point x="1139" y="1262"/>
      <point x="924" y="1357"/>
      <point x="801" y="1357" type="qcurve" smooth="yes"/>
      <point x="678" y="1357"/>
      <point x="462" y="1262"/>
      <point x="298" y="1091"/>
      <point x="206" y="863"/>
    </contour>
    <contour>
      <point x="817" y="655" type="qcurve" smooth="yes"/>
      <point x="653" y="655" type="line"/>
      <point x="653" y="317" type="line"/>
      <point x="512" y="317" type="line"/>
      <point x="512" y="1165" type="line"/>
      <point x="789" y="1165" type="line" smooth="yes"/>
      <point x="937" y="1165"/>
      <point x="1110" y="1038"/>
      <point x="1110" y="910" type="qcurve" smooth="yes"/>
      <point x="1110" y="787"/>
      <point x="982" y="722" type="qcurve"/>
      <point x="1051" y="694"/>
      <point x="1105" y="585"/>
      <point x="1105" y="514" type="qcurve" smooth="yes"/>
      <point x="1105" y="460" type="line" smooth="yes"/>
      <point x="1105" y="423"/>
      <point x="1113" y="356"/>
      <point x="1122" y="333" type="qcurve"/>
      <point x="1122" y="317" type="line"/>
      <point x="977" y="317" type="line"/>
      <point x="967" y="343"/>
      <point x="964" y="439"/>
      <point x="964" y="461" type="qcurve" smooth="yes"/>
      <point x="964" y="513" type="line" smooth="yes"/>
      <point x="964" y="586"/>
      <point x="897" y="655"/>
    </contour>
    <contour>
      <point x="789" y="1038" type="qcurve" smooth="yes"/>
      <point x="653" y="1038" type="line"/>
      <point x="653" y="783" type="line"/>
      <point x="810" y="783" type="line" smooth="yes"/>
      <point x="873" y="785"/>
      <point x="970" y="846"/>
      <point x="970" y="904" type="qcurve" smooth="yes"/>
      <point x="970" y="978"/>
      <point x="890" y="1038"/>
    </contour>
  </outline>
</glyph>
<glyph name="degree" format="2">
  <advance width="765"/>
  <unicode hex="00B0"/>
  <outline>
    <contour>
      <point x="131" y="1217" type="qcurve" smooth="yes"/>
      <point x="131" y="1288"/>
      <point x="201" y="1406"/>
      <point x="317" y="1477"/>
      <point x="386" y="1477" type="qcurve" smooth="yes"/>
      <point x="455" y="1477"/>
      <point x="569" y="1406"/>
      <point x="637" y="1288"/>
      <point x="637" y="1217" type="qcurve" smooth="yes"/>
      <point x="637" y="1146"/>
      <point x="569" y="1029"/>
      <point x="455" y="960"/>
      <point x="386" y="960" type="qcurve" smooth="yes"/>
      <point x="317" y="960"/>
      <point x="201" y="1029"/>
      <point x="131" y="1146"/>
    </contour>
    <contour>
      <point x="255" y="1217" type="qcurve" smooth="yes"/>
      <point x="255" y="1162"/>
      <point x="332" y="1088"/>
      <point x="386" y="1088" type="qcurve" smooth="yes"/>
      <point x="440" y="1088"/>
      <point x="513" y="1162"/>
      <point x="513" y="1217" type="qcurve" smooth="yes"/>
      <point x="513" y="1273"/>
      <point x="440" y="1349"/>
      <point x="386" y="1349" type="qcurve" smooth="yes"/>
      <point x="332" y="1349"/>
      <point x="255" y="1273"/>
    </contour>
  </outline>
</glyph>
<glyph name="Dcroat" format="2">
  <advance width="1374"/>
  <unicode hex="0110"/>
  <anchor x="613" y="10" name="Anchor-1"/>
  <anchor x="609" y="1612" name="Anchor-0"/>
  <outline>
    <contour>
      <point x="593" y="0" type="qcurve" smooth="yes"/>
      <point x="199" y="0" type="line"/>
      <point x="199" y="665" type="line"/>
      <point x="37" y="665" type="line"/>
      <point x="37" y="817" type="line"/>
      <point x="199" y="817" type="line"/>
      <point x="199" y="1456" type="line"/>
      <point x="611" y="1456" type="line" smooth="yes"/>
      <point x="802" y="1456"/>
      <point x="1091" y="1289"/>
      <point x="1253" y="982"/>
      <point x="1253" y="771" type="qcurve" smooth="yes"/>
      <point x="1253" y="684" type="line" smooth="yes"/>
      <point x="1253" y="473"/>
      <point x="1091" y="167"/>
      <point x="795" y="0"/>
    </contour>
    <contour>
      <point x="674" y="817" type="line"/>
      <point x="674" y="665" type="line"/>
      <point x="392" y="665" type="line"/>
      <point x="392" y="157" type="line"/>
      <point x="593" y="157" type="line" smooth="yes"/>
      <point x="826" y="157"/>
      <point x="1062" y="445"/>
      <point x="1062" y="684" type="qcurve" smooth="yes"/>
      <point x="1062" y="773" type="line" smooth="yes"/>
      <point x="1062" y="1024"/>
      <point x="826" y="1298"/>
      <point x="611" y="1298" type="qcurve" smooth="yes"/>
      <point x="392" y="1298" type="line"/>
      <point x="392" y="817" type="line"/>
    </contour>
  </outline>
</glyph>
<glyph name="longs" format="2">
  <advance width="508"/>
  <unicode hex="017F"/>
  <anchor x="248" y="10" name="Anchor-1"/>
  <anchor x="428" y="1754" name="Anchor-0"/>
  <outline>
    <contour>
      <point x="346" y="0" type="line"/>
      <point x="161" y="0" type="line"/>
      <point x="161" y="1196" type="line" smooth="yes"/>
      <point x="161" y="1371"/>
      <point x="342" y="1557"/>
      <point x="499" y="1557" type="qcurve" smooth="yes"/>
      <point x="536" y="1557"/>
      <point x="606" y="1545"/>
      <point x="643" y="1536" type="qcurve"/>
      <point x="619" y="1394" type="line"/>
      <point x="602" y="1399"/>
      <point x="557" y="1405"/>
      <point x="528" y="1405" type="qcurve" smooth="yes"/>
      <point x="440" y="1405"/>
      <point x="346" y="1294"/>
      <point x="346" y="1196" type="qcurve" smooth="yes"/>
    </contour>
  </outline>
</glyph>
<glyph name="uni0199" format="2">
  <advance width="1038"/>
  <unicode hex="0199"/>
  <outline>
    <contour>
      <point x="327" y="1163" type="line"/>
      <point x="327" y="0" type="line"/>
      <point x="141" y="0" type="line"/>
      <point x="141" y="1163" type="line"/>
    </contour>
    <contour>
      <point x="988" y="1082" type="line"/>
      <point x="516" y="577" type="line"/>
      <point x="252" y="303" type="line"/>
      <point x="237" y="500" type="line"/>
      <point x="426" y="726" type="line"/>
      <point x="762" y="1082" type="line"/>
    </contour>
    <contour>
      <point x="819" y="0" type="line"/>
      <point x="433" y="516" type="line"/>
      <point x="529" y="681" type="line"/>
      <point x="1037" y="0" type="line"/>
    </contour>
    <contour>
      <point x="327" y="1115" type="line"/>
      <point x="141" y="1115" type="line"/>
      <point x="141" y="1255" type="line" smooth="yes"/>
      <point x="141" y="1353"/>
      <point x="222" y="1487"/>
      <point x="359" y="1557"/>
      <point x="441" y="1557" type="qcurve" smooth="yes"/>
      <point x="464" y="1557"/>
      <point x="520" y="1549"/>
      <point x="542" y="1542" type="qcurve"/>
      <point x="540" y="1414" type="line"/>
      <point x="527" y="1418"/>
      <point x="494" y="1422"/>
      <point x="481" y="1422" type="qcurve" smooth="yes"/>
      <point x="432" y="1422"/>
      <point x="363" y="1389"/>
      <point x="327" y="1316"/>
      <point x="327" y="1255" type="qcurve" smooth="yes"/>
    </contour>
  </outline>
</glyph>
<glyph name="uni01AB" format="2">
  <advance width="670"/>
  <unicode hex="01AB"/>
  <outline>
    <contour>
      <point x="470" y="78" type="line"/>
      <point x="599" y="1" type="line"/>
      <point x="599" y="-64" type="line" smooth="yes"/>
      <point x="599" y="-161"/>
      <point x="546" y="-296"/>
      <point x="439" y="-366"/>
      <point x="356" y="-366" type="qcurve" smooth="yes"/>
      <point x="334" y="-366"/>
      <point x="277" y="-358"/>
      <point x="256" y="-351" type="qcurve"/>
      <point x="257" y="-223" type="line"/>
      <point x="270" y="-227"/>
      <point x="303" y="-231"/>
      <point x="316" y="-231" type="qcurve" smooth="yes"/>
      <point x="365" y="-231"/>
      <point x="434" y="-198"/>
      <point x="470" y="-125"/>
      <point x="470" y="-64" type="qcurve" smooth="yes"/>
    </contour>
    <contour>
      <point x="594" y="1082" type="line"/>
      <point x="594" y="940" type="line"/>
      <point x="9" y="940" type="line"/>
      <point x="9" y="1082" type="line"/>
    </contour>
    <contour>
      <point x="207" y="1345" type="line"/>
      <point x="392" y="1345" type="line"/>
      <point x="392" y="268" type="line" smooth="yes"/>
      <point x="392" y="213"/>
      <point x="426" y="157"/>
      <point x="480" y="139"/>
      <point x="511" y="139" type="qcurve" smooth="yes"/>
      <point x="534" y="139"/>
      <point x="585" y="148"/>
      <point x="598" y="151" type="qcurve"/>
      <point x="599" y="0" type="line"/>
      <point x="577" y="-7"/>
      <point x="506" y="-20"/>
      <point x="456" y="-20" type="qcurve" smooth="yes"/>
      <point x="388" y="-20"/>
      <point x="274" y="34"/>
      <point x="207" y="161"/>
      <point x="207" y="269" type="qcurve" smooth="yes"/>
    </contour>
  </outline>
</glyph>
<glyph name="uni01B6" format="2">
  <advance width="1034"/>
  <unicode hex="01B6"/>
  <anchor x="513" y="1290" name="Anchor-5"/>
  <anchor x="524" y="10" name="Anchor-2"/>
  <anchor x="1034" y="1290" name="Anchor-1"/>
  <anchor x="513" y="1290" name="Anchor-0"/>
  <outline>
    <contour>
      <point x="873" y="622" type="line"/>
      <point x="873" y="470" type="line"/>
      <point x="151" y="470" type="line"/>
      <point x="151" y="622" type="line"/>
    </contour>
    <contour>
      <point x="957" y="152" type="line"/>
      <point x="957" y="0" type="line"/>
      <point x="170" y="0" type="line"/>
      <point x="170" y="152" type="line"/>
    </contour>
    <contour>
      <point x="928" y="951" type="line"/>
      <point x="212" y="0" type="line"/>
      <point x="99" y="0" type="line"/>
      <point x="99" y="136" type="line"/>
      <point x="810" y="1082" type="line"/>
      <point x="928" y="1082" type="line"/>
    </contour>
    <contour>
      <point x="846" y="1082" type="line"/>
      <point x="846" y="929" type="line"/>
      <point x="107" y="929" type="line"/>
      <point x="107" y="1082" type="line"/>
    </contour>
  </outline>
</glyph>
<glyph name="uni01EF" format="2">
  <advance width="1192"/>
  <unicode hex="01EF"/>
  <outline>
    <contour>
      <point x="411" y="1515" type="line"/>
      <point x="560" y="1365" type="line"/>
      <point x="710" y="1515" type="line"/>
      <point x="872" y="1515" type="line"/>
      <point x="872" y="1497" type="line"/>
      <point x="618" y="1252" type="line"/>
      <point x="502" y="1252" type="line"/>
      <point x="252" y="1494" type="line"/>
      <point x="252" y="1515" type="line"/>
    </contour>
    <contour>
      <point x="148" y="1082" type="line"/>
      <point x="1017" y="1082" type="line"/>
      <point x="1019" y="964" type="line"/>
      <point x="533" y="361" type="line"/>
      <point x="409" y="361" type="line"/>
      <point x="409" y="477" type="line"/>
      <point x="780" y="929" type="line"/>
      <point x="148" y="929" type="line"/>
    </contour>
    <contour>
      <point x="409" y="472" type="line"/>
      <point x="554" y="472" type="line" smooth="yes"/>
      <point x="715" y="472"/>
      <point x="944" y="370"/>
      <point x="1065" y="173"/>
      <point x="1065" y="31" type="qcurve" smooth="yes"/>
      <point x="1065" y="-71"/>
      <point x="992" y="-229"/>
      <point x="861" y="-338"/>
      <point x="682" y="-395"/>
      <point x="575" y="-395" type="qcurve" smooth="yes"/>
      <point x="489" y="-395"/>
      <point x="322" y="-346"/>
      <point x="187" y="-243"/>
      <point x="106" y="-82"/>
      <point x="106" y="29" type="qcurve"/>
      <point x="291" y="29" type="line"/>
      <point x="291" y="-45"/>
      <point x="362" y="-169"/>
      <point x="490" y="-243"/>
      <point x="575" y="-243" type="qcurve" smooth="yes"/>
      <point x="672" y="-243"/>
      <point x="807" y="-173"/>
      <point x="879" y="-51"/>
      <point x="879" y="27" type="qcurve" smooth="yes"/>
      <point x="879" y="133"/>
      <point x="803" y="265"/>
      <point x="656" y="326"/>
      <point x="550" y="326" type="qcurve" smooth="yes"/>
      <point x="409" y="326" type="line"/>
    </contour>
  </outline>
</glyph>
<glyph name="uni0220" format="2">
  <advance width="1353"/>
  <unicode hex="0220"/>
  <outline>
    <contour>
      <point x="1213" y="-418" type="line"/>
      <point x="1027" y="-418" type="line"/>
      <point x="1027" y="993" type="line" smooth="yes"/>
      <point x="1027" y="1106"/>
      <point x="943" y="1250"/>
      <point x="791" y="1320"/>
      <point x="690" y="1320" type="qcurve" smooth="yes"/>
      <point x="607" y="1320"/>
      <point x="468" y="1293"/>
      <point x="354" y="1243"/>
      <point x="307" y="1209" type="qcurve"/>
      <point x="307" y="1363" type="line"/>
      <point x="351" y="1394"/>
      <point x="469" y="1445"/>
      <point x="611" y="1476"/>
      <point x="690" y="1476" type="qcurve" smooth="yes"/>
      <point x="829" y="1476"/>
      <point x="1067" y="1369"/>
      <point x="1213" y="1154"/>
      <point x="1213" y="993" type="qcurve" smooth="yes"/>
    </contour>
    <contour>
      <point x="355" y="1456" type="line"/>
      <point x="355" y="0" type="line"/>
      <point x="169" y="0" type="line"/>
      <point x="169" y="1456" type="line"/>
    </contour>
  </outline>
</glyph>
<glyph name="uni0221" format="2">
  <advance width="1460"/>
  <unicode hex="0221"/>
  <outline>
    <contour>
      <point x="823" y="226" type="qcurve"/>
      <point x="823" y="226"/>
      <point x="861" y="226"/>
      <point x="916" y="226"/>
      <point x="971" y="226"/>
      <point x="1009" y="226"/>
      <point x="1009" y="226" type="qcurve"/>
      <point x="1009" y="226"/>
      <point x="1009" y="159"/>
      <point x="1009" y="56"/>
      <point x="1009" y="-55"/>
      <point x="1009" y="-145"/>
      <point x="1009" y="-164" type="qcurve" smooth="yes"/>
      <point x="1009" y="-198"/>
      <point x="1036" y="-253"/>
      <point x="1092" y="-285"/>
      <point x="1136" y="-285" type="qcurve" smooth="yes"/>
      <point x="1186" y="-285"/>
      <point x="1245" y="-221"/>
      <point x="1245" y="-174" type="qcurve" smooth="yes"/>
      <point x="1245" y="-127"/>
      <point x="1183" y="-63"/>
      <point x="1128" y="-63" type="qcurve" smooth="yes"/>
      <point x="1085" y="-63"/>
      <point x="1000" y="-105"/>
      <point x="910" y="-182"/>
      <point x="859" y="-235" type="qcurve" smooth="yes"/>
      <point x="714" y="-395" type="line"/>
      <point x="714" y="-395"/>
      <point x="681" y="-361"/>
      <point x="637" y="-318"/>
      <point x="604" y="-284"/>
      <point x="604" y="-284" type="qcurve"/>
      <point x="832" y="-46" type="line"/>
      <point x="907" y="15"/>
      <point x="1062" y="89"/>
      <point x="1150" y="89" type="qcurve" smooth="yes"/>
      <point x="1229" y="89"/>
      <point x="1356" y="28"/>
      <point x="1430" y="-89"/>
      <point x="1430" y="-174" type="qcurve" smooth="yes"/>
      <point x="1430" y="-250"/>
      <point x="1356" y="-369"/>
      <point x="1224" y="-437"/>
      <point x="1135" y="-437" type="qcurve" smooth="yes"/>
      <point x="1020" y="-437"/>
      <point x="883" y="-348"/>
      <point x="823" y="-204"/>
      <point x="823" y="-123" type="qcurve" smooth="yes"/>
      <point x="823" y="-123"/>
      <point x="823" y="-53"/>
      <point x="823" y="51"/>
      <point x="823" y="156"/>
      <point x="823" y="226"/>
    </contour>
    <contour>
      <point x="823" y="210" type="line"/>
      <point x="823" y="1536" type="line"/>
      <point x="1009" y="1536" type="line"/>
      <point x="1009" y="0" type="line"/>
      <point x="839" y="0" type="line"/>
    </contour>
    <contour>
      <point x="95" y="529" type="qcurve" smooth="yes"/>
      <point x="95" y="550" type="line" smooth="yes"/>
      <point x="95" y="674"/>
      <point x="156" y="877"/>
      <point x="269" y="1023"/>
      <point x="426" y="1102"/>
      <point x="523" y="1102" type="qcurve" smooth="yes"/>
      <point x="625" y="1102"/>
      <point x="778" y="1031"/>
      <point x="885" y="896"/>
      <point x="947" y="706"/>
      <point x="959" y="586" type="qcurve"/>
      <point x="959" y="494" type="line"/>
      <point x="948" y="375"/>
      <point x="885" y="185"/>
      <point x="778" y="51"/>
      <point x="624" y="-20"/>
      <point x="521" y="-20" type="qcurve" smooth="yes"/>
      <point x="426" y="-20"/>
      <point x="269" y="62"/>
      <point x="156" y="210"/>
      <point x="95" y="411"/>
    </contour>
    <contour>
      <point x="281" y="550" type="qcurve" smooth="yes"/>
      <point x="281" y="529" type="line" smooth="yes"/>
      <point x="281" y="448"/>
      <point x="314" y="306"/>
      <point x="384" y="198"/>
      <point x="492" y="137"/>
      <point x="567" y="137" type="qcurve" smooth="yes"/>
      <point x="659" y="137"/>
      <point x="778" y="215"/>
      <point x="850" y="343"/>
      <point x="870" y="418" type="qcurve"/>
      <point x="870" y="659" type="line"/>
      <point x="858" y="714"/>
      <point x="813" y="817"/>
      <point x="742" y="898"/>
      <point x="639" y="946"/>
      <point x="569" y="946" type="qcurve" smooth="yes"/>
      <point x="493" y="946"/>
      <point x="384" y="883"/>
      <point x="314" y="774"/>
      <point x="281" y="631"/>
    </contour>
  </outline>
</glyph>
<glyph name="uni0235" format="2">
  <advance width="1443"/>
  <unicode hex="0235"/>
  <outline>
    <contour>
      <point x="806" y="226" type="qcurve"/>
      <point x="806" y="226"/>
      <point x="844" y="226"/>
      <point x="899" y="226"/>
      <point x="954" y="226"/>
      <point x="992" y="226"/>
      <point x="992" y="226" type="qcurve"/>
      <point x="992" y="226"/>
      <point x="992" y="159"/>
      <point x="992" y="56"/>
      <point x="992" y="-55"/>
      <point x="992" y="-145"/>
      <point x="992" y="-164" type="qcurve" smooth="yes"/>
      <point x="992" y="-198"/>
      <point x="1019" y="-253"/>
      <point x="1076" y="-285"/>
      <point x="1120" y="-285" type="qcurve" smooth="yes"/>
      <point x="1170" y="-285"/>
      <point x="1228" y="-221"/>
      <point x="1228" y="-174" type="qcurve" smooth="yes"/>
      <point x="1228" y="-127"/>
      <point x="1166" y="-63"/>
      <point x="1111" y="-63" type="qcurve" smooth="yes"/>
      <point x="1068" y="-63"/>
      <point x="983" y="-105"/>
      <point x="893" y="-182"/>
      <point x="842" y="-235" type="qcurve" smooth="yes"/>
      <point x="697" y="-395" type="line"/>
      <point x="697" y="-395"/>
      <point x="664" y="-361"/>
      <point x="620" y="-318"/>
      <point x="587" y="-284"/>
      <point x="587" y="-284" type="qcurve"/>
      <point x="815" y="-46" type="line"/>
      <point x="890" y="15"/>
      <point x="1046" y="89"/>
      <point x="1134" y="89" type="qcurve" smooth="yes"/>
      <point x="1213" y="89"/>
      <point x="1339" y="28"/>
      <point x="1413" y="-89"/>
      <point x="1413" y="-174" type="qcurve" smooth="yes"/>
      <point x="1413" y="-250"/>
      <point x="1339" y="-369"/>
      <point x="1207" y="-437"/>
      <point x="1118" y="-437" type="qcurve" smooth="yes"/>
      <point x="1003" y="-437"/>
      <point x="866" y="-348"/>
      <point x="806" y="-204"/>
      <point x="806" y="-123" type="qcurve" smooth="yes"/>
      <point x="806" y="-123"/>
      <point x="806" y="-53"/>
      <point x="806" y="51"/>
      <point x="806" y="156"/>
      <point x="806" y="226"/>
    </contour>
    <contour>
      <point x="326" y="851" type="line"/>
      <point x="326" y="0" type="line"/>
      <point x="141" y="0" type="line"/>
      <point x="141" y="1082" type="line"/>
      <point x="316" y="1082" type="line"/>
    </contour>
    <contour>
      <point x="282" y="582" type="qcurve"/>
      <point x="205" y="585" type="line"/>
      <point x="206" y="696"/>
      <point x="270" y="885"/>
      <point x="386" y="1025"/>
      <point x="547" y="1102"/>
      <point x="645" y="1102" type="qcurve" smooth="yes"/>
      <point x="725" y="1102"/>
      <point x="853" y="1059"/>
      <point x="944" y="965"/>
      <point x="992" y="816"/>
      <point x="992" y="709" type="qcurve" smooth="yes"/>
      <point x="992" y="0" type="line"/>
      <point x="806" y="0" type="line"/>
      <point x="806" y="711" type="line" smooth="yes"/>
      <point x="806" y="796"/>
      <point x="756" y="899"/>
      <point x="660" y="946"/>
      <point x="590" y="946" type="qcurve" smooth="yes"/>
      <point x="521" y="946"/>
      <point x="408" y="888"/>
      <point x="327" y="786"/>
      <point x="282" y="655"/>
    </contour>
  </outline>
</glyph>
<glyph name="uni0236" format="2">
  <advance width="882"/>
  <unicode hex="0236"/>
  <outline>
    <contour>
      <point x="245" y="1345" type="qcurve"/>
      <point x="245" y="1345"/>
      <point x="283" y="1345"/>
      <point x="338" y="1345"/>
      <point x="393" y="1345"/>
      <point x="431" y="1345"/>
      <point x="431" y="1345" type="qcurve"/>
      <point x="431" y="1345"/>
      <point x="431" y="1233"/>
      <point x="431" y="1048"/>
      <point x="431" y="823"/>
      <point x="431" y="595"/>
      <point x="431" y="398"/>
      <point x="431" y="267"/>
      <point x="431" y="253" type="qcurve" smooth="yes"/>
      <point x="431" y="219"/>
      <point x="458" y="164"/>
      <point x="514" y="132"/>
      <point x="558" y="132" type="qcurve" smooth="yes"/>
      <point x="608" y="132"/>
      <point x="667" y="196"/>
      <point x="667" y="243" type="qcurve" smooth="yes"/>
      <point x="667" y="290"/>
      <point x="605" y="354"/>
      <point x="550" y="354" type="qcurve" smooth="yes"/>
      <point x="507" y="354"/>
      <point x="423" y="313"/>
      <point x="333" y="236"/>
      <point x="282" y="182" type="qcurve" smooth="yes"/>
      <point x="136" y="22" type="line"/>
      <point x="136" y="22"/>
      <point x="103" y="56"/>
      <point x="59" y="99"/>
      <point x="26" y="133"/>
      <point x="26" y="133" type="qcurve"/>
      <point x="254" y="371" type="line"/>
      <point x="322" y="430"/>
      <point x="490" y="506"/>
      <point x="572" y="506" type="qcurve" smooth="yes"/>
      <point x="651" y="506"/>
      <point x="778" y="445"/>
      <point x="852" y="328"/>
      <point x="852" y="243" type="qcurve" smooth="yes"/>
      <point x="852" y="167"/>
      <point x="778" y="48"/>
      <point x="646" y="-20"/>
      <point x="557" y="-20" type="qcurve" smooth="yes"/>
      <point x="442" y="-20"/>
      <point x="305" y="69"/>
      <point x="245" y="213"/>
      <point x="245" y="294" type="qcurve" smooth="yes"/>
      <point x="245" y="294"/>
      <point x="245" y="408"/>
      <point x="245" y="595"/>
      <point x="245" y="820"/>
      <point x="245" y="1044"/>
      <point x="245" y="1231"/>
      <point x="245" y="1345"/>
    </contour>
    <contour>
      <point x="633" y="1082" type="line"/>
      <point x="633" y="940" type="line"/>
      <point x="48" y="940" type="line"/>
      <point x="48" y="1082" type="line"/>
    </contour>
  </outline>
</glyph>
<glyph name="uni0237" format="2">
  <advance width="516"/>
  <unicode hex="0237"/>
  <anchor x="266" y="1249" name="Anchor-0"/>
  <outline>
    <contour>
      <point x="173" y="1082" type="line"/>
      <point x="358" y="1082" type="line"/>
      <point x="358" y="-89" type="line" smooth="yes"/>
      <point x="358" y="-258"/>
      <point x="188" y="-437"/>
      <point x="36" y="-437" type="qcurve" smooth="yes"/>
      <point x="5" y="-437"/>
      <point x="-47" y="-430"/>
      <point x="-76" y="-420" type="qcurve"/>
      <point x="-62" y="-272" type="line"/>
      <point x="-47" y="-278"/>
      <point x="22" y="-285"/>
      <point x="36" y="-285" type="qcurve" smooth="yes"/>
      <point x="101" y="-285"/>
      <point x="173" y="-181"/>
      <point x="173" y="-89" type="qcurve" smooth="yes"/>
    </contour>
  </outline>
</glyph>
<glyph name="uni0244" format="2">
  <advance width="1587"/>
  <unicode hex="0244"/>
  <anchor x="794" y="1601" name="Anchor-5"/>
  <anchor x="794" y="0" name="Anchor-2"/>
  <anchor x="1587" y="1601" name="Anchor-1"/>
  <anchor x="794" y="1601" name="Anchor-0"/>
  <outline>
    <contour>
      <point x="1556" y="827" type="line"/>
      <point x="1556" y="675" type="line"/>
      <point x="31" y="675" type="line"/>
      <point x="31" y="827" type="line"/>
    </contour>
    <contour>
      <point x="1132" y="1456" type="line"/>
      <point x="1324" y="1456" type="line"/>
      <point x="1324" y="471" type="line" smooth="yes"/>
      <point x="1324" y="307"/>
      <point x="1178" y="89"/>
      <point x="937" y="-20"/>
      <point x="796" y="-20" type="qcurve" smooth="yes"/>
      <point x="648" y="-20"/>
      <point x="409" y="89"/>
      <point x="270" y="307"/>
      <point x="270" y="471" type="qcurve" smooth="yes"/>
      <point x="270" y="1456" type="line"/>
      <point x="461" y="1456" type="line"/>
      <point x="461" y="471" type="line" smooth="yes"/>
      <point x="461" y="357"/>
      <point x="545" y="209"/>
      <point x="696" y="137"/>
      <point x="796" y="137" type="qcurve" smooth="yes"/>
      <point x="897" y="137"/>
      <point x="1048" y="209"/>
      <point x="1132" y="357"/>
      <point x="1132" y="471" type="qcurve" smooth="yes"/>
    </contour>
  </outline>
</glyph>
<glyph name="uni0251" format="2">
  <advance width="1206"/>
  <unicode hex="0251"/>
  <anchor x="519" y="1290" name="Anchor-5"/>
  <anchor x="519" y="0" name="Anchor-2"/>
  <anchor x="1206" y="1290" name="Anchor-1"/>
  <anchor x="519" y="1290" name="Anchor-0"/>
  <outline>
    <contour>
      <point x="98" y="501" type="qcurve" smooth="yes"/>
      <point x="98" y="522" type="line" smooth="yes"/>
      <point x="98" y="650"/>
      <point x="154" y="862"/>
      <point x="261" y="1017"/>
      <point x="419" y="1102"/>
      <point x="521" y="1102" type="qcurve" smooth="yes"/>
      <point x="599" y="1102"/>
      <point x="724" y="1056"/>
      <point x="820" y="967"/>
      <point x="888" y="840"/>
      <point x="930" y="678"/>
      <point x="939" y="581" type="qcurve"/>
      <point x="939" y="498" type="line"/>
      <point x="928" y="378"/>
      <point x="867" y="187"/>
      <point x="765" y="51"/>
      <point x="618" y="-21"/>
      <point x="519" y="-21" type="qcurve" smooth="yes"/>
      <point x="419" y="-21"/>
      <point x="262" y="56"/>
      <point x="154" y="196"/>
      <point x="98" y="387"/>
    </contour>
    <contour>
      <point x="284" y="522" type="qcurve" smooth="yes"/>
      <point x="284" y="501" type="line" smooth="yes"/>
      <point x="284" y="424"/>
      <point x="315" y="290"/>
      <point x="383" y="188"/>
      <point x="489" y="131"/>
      <point x="564" y="131" type="qcurve" smooth="yes"/>
      <point x="638" y="131"/>
      <point x="742" y="191"/>
      <point x="813" y="294"/>
      <point x="860" y="426"/>
      <point x="876" y="497" type="qcurve"/>
      <point x="876" y="563" type="line"/>
      <point x="864" y="636"/>
      <point x="818" y="774"/>
      <point x="746" y="885"/>
      <point x="640" y="950"/>
      <point x="566" y="950" type="qcurve" smooth="yes"/>
      <point x="490" y="950"/>
      <point x="383" y="882"/>
      <point x="316" y="764"/>
      <point x="284" y="609"/>
    </contour>
    <contour>
      <point x="848" y="1082" type="line"/>
      <point x="1005" y="1082" type="line"/>
      <point x="1005" y="295" type="line" smooth="yes"/>
      <point x="1005" y="249"/>
      <point x="1017" y="191"/>
      <point x="1039" y="158"/>
      <point x="1068" y="145"/>
      <point x="1084" y="145" type="qcurve" smooth="yes"/>
      <point x="1095" y="145"/>
      <point x="1112" y="149"/>
      <point x="1119" y="151" type="qcurve"/>
      <point x="1141" y="13" type="line"/>
      <point x="1110" y="-9"/>
      <point x="1051" y="-21"/>
      <point x="1019" y="-21" type="qcurve" smooth="yes"/>
      <point x="972" y="-21"/>
      <point x="898" y="14"/>
      <point x="846" y="89"/>
      <point x="819" y="210"/>
      <point x="819" y="295" type="qcurve" smooth="yes"/>
      <point x="819" y="847" type="line"/>
    </contour>
  </outline>
</glyph>
<glyph name="uni0258" format="2">
  <advance width="1086"/>
  <unicode hex="0258"/>
  <anchor x="520" y="1290" name="Anchor-5"/>
  <anchor x="496" y="0" name="Anchor-2"/>
  <anchor x="1086" y="1290" name="Anchor-1"/>
  <anchor x="520" y="1290" name="Anchor-0"/>
  <outline>
    <contour>
      <point x="496" y="-20" type="qcurve" smooth="yes"/>
      <point x="336" y="-20"/>
      <point x="142" y="109"/>
      <point x="89" y="189" type="qcurve"/>
      <point x="201" y="278" type="line"/>
      <point x="252" y="211"/>
      <point x="389" y="131"/>
      <point x="486" y="131" type="qcurve" smooth="yes"/>
      <point x="562" y="131"/>
      <point x="681" y="189"/>
      <point x="764" y="291"/>
      <point x="807" y="426"/>
      <point x="807" y="503" type="qcurve" smooth="yes"/>
      <point x="807" y="545" type="line" smooth="yes"/>
      <point x="807" y="643"/>
      <point x="765" y="793"/>
      <point x="689" y="897"/>
      <point x="584" y="950"/>
      <point x="520" y="950" type="qcurve" smooth="yes"/>
      <point x="449" y="950"/>
      <point x="352" y="899"/>
      <point x="293" y="813"/>
      <point x="263" y="708"/>
      <point x="260" y="654" type="qcurve" smooth="yes"/>
      <point x="260" y="640" type="line"/>
      <point x="883" y="640" type="line"/>
      <point x="883" y="489" type="line"/>
      <point x="75" y="489" type="line"/>
      <point x="75" y="572" type="line" smooth="yes"/>
      <point x="75" y="686"/>
      <point x="127" y="879"/>
      <point x="235" y="1022"/>
      <point x="404" y="1102"/>
      <point x="520" y="1102" type="qcurve" smooth="yes"/>
      <point x="612" y="1102"/>
      <point x="781" y="1028"/>
      <point x="915" y="884"/>
      <point x="993" y="677"/>
      <point x="993" y="545" type="qcurve" smooth="yes"/>
      <point x="993" y="503" type="line" smooth="yes"/>
      <point x="993" y="389"/>
      <point x="923" y="197"/>
      <point x="792" y="57"/>
      <point x="609" y="-20"/>
    </contour>
  </outline>
</glyph>
<glyph name="uni0260" format="2">
  <advance width="1213"/>
  <unicode hex="0260"/>
  <anchor x="556" y="1290" name="Anchor-5"/>
  <anchor x="556" y="-447" name="Anchor-2"/>
  <anchor x="1213" y="1290" name="Anchor-1"/>
  <anchor x="556" y="1290" name="Anchor-0"/>
  <outline>
    <contour>
      <point x="1010" y="929" type="line"/>
      <point x="825" y="929" type="line"/>
      <point x="825" y="1074" type="line" smooth="yes"/>
      <point x="825" y="1147"/>
      <point x="872" y="1259"/>
      <point x="954" y="1336"/>
      <point x="1063" y="1376"/>
      <point x="1125" y="1376" type="qcurve" smooth="yes"/>
      <point x="1148" y="1376"/>
      <point x="1204" y="1367"/>
      <point x="1225" y="1360" type="qcurve"/>
      <point x="1224" y="1233" type="line"/>
      <point x="1211" y="1237"/>
      <point x="1178" y="1241"/>
      <point x="1164" y="1241" type="qcurve" smooth="yes"/>
      <point x="1116" y="1241"/>
      <point x="1047" y="1208"/>
      <point x="1010" y="1135"/>
      <point x="1010" y="1074" type="qcurve" smooth="yes"/>
    </contour>
    <contour>
      <point x="842" y="1071" type="line"/>
      <point x="1010" y="1071" type="line"/>
      <point x="1010" y="23" type="line" smooth="yes"/>
      <point x="1010" y="-120"/>
      <point x="894" y="-322"/>
      <point x="687" y="-427"/>
      <point x="552" y="-427" type="qcurve" smooth="yes"/>
      <point x="496" y="-427"/>
      <point x="345" y="-392"/>
      <point x="200" y="-309"/>
      <point x="151" y="-239" type="qcurve"/>
      <point x="248" y="-129" type="line"/>
      <point x="316" y="-211"/>
      <point x="465" y="-275"/>
      <point x="538" y="-275" type="qcurve" smooth="yes"/>
      <point x="626" y="-275"/>
      <point x="754" y="-209"/>
      <point x="825" y="-80"/>
      <point x="825" y="14" type="qcurve" smooth="yes"/>
      <point x="825" y="844" type="line"/>
    </contour>
    <contour>
      <point x="97" y="529" type="qcurve" smooth="yes"/>
      <point x="97" y="550" type="line" smooth="yes"/>
      <point x="97" y="674"/>
      <point x="156" y="877"/>
      <point x="267" y="1023"/>
      <point x="425" y="1102"/>
      <point x="524" y="1102" type="qcurve" smooth="yes"/>
      <point x="626" y="1102"/>
      <point x="779" y="1031"/>
      <point x="886" y="896"/>
      <point x="948" y="706"/>
      <point x="960" y="586" type="qcurve"/>
      <point x="960" y="494" type="line"/>
      <point x="949" y="375"/>
      <point x="886" y="185"/>
      <point x="779" y="51"/>
      <point x="625" y="-20"/>
      <point x="522" y="-20" type="qcurve" smooth="yes"/>
      <point x="425" y="-20"/>
      <point x="268" y="62"/>
      <point x="156" y="210"/>
      <point x="97" y="411"/>
    </contour>
    <contour>
      <point x="282" y="550" type="qcurve" smooth="yes"/>
      <point x="282" y="529" type="line" smooth="yes"/>
      <point x="282" y="448"/>
      <point x="315" y="306"/>
      <point x="384" y="198"/>
      <point x="492" y="137"/>
      <point x="567" y="137" type="qcurve" smooth="yes"/>
      <point x="659" y="137"/>
      <point x="779" y="215"/>
      <point x="850" y="343"/>
      <point x="870" y="418" type="qcurve"/>
      <point x="870" y="659" type="line"/>
      <point x="859" y="714"/>
      <point x="814" y="817"/>
      <point x="743" y="898"/>
      <point x="639" y="946"/>
      <point x="569" y="946" type="qcurve" smooth="yes"/>
      <point x="493" y="946"/>
      <point x="384" y="883"/>
      <point x="315" y="774"/>
      <point x="282" y="631"/>
    </contour>
  </outline>
</glyph>
<glyph name="uni0266" format="2">
  <advance width="1128"/>
  <unicode hex="0266"/>
  <anchor x="622" y="1700" name="Anchor-5"/>
  <anchor x="567" y="0" name="Anchor-2"/>
  <anchor x="1128" y="1700" name="Anchor-1"/>
  <anchor x="622" y="1700" name="Anchor-0"/>
  <outline>
    <contour>
      <point x="326" y="1163" type="line"/>
      <point x="326" y="0" type="line"/>
      <point x="141" y="0" type="line"/>
      <point x="141" y="1163" type="line"/>
    </contour>
    <contour>
      <point x="282" y="582" type="qcurve"/>
      <point x="205" y="585" type="line"/>
      <point x="206" y="696"/>
      <point x="270" y="885"/>
      <point x="386" y="1025"/>
      <point x="547" y="1102"/>
      <point x="645" y="1102" type="qcurve" smooth="yes"/>
      <point x="725" y="1102"/>
      <point x="853" y="1059"/>
      <point x="944" y="965"/>
      <point x="992" y="816"/>
      <point x="992" y="709" type="qcurve" smooth="yes"/>
      <point x="992" y="0" type="line"/>
      <point x="806" y="0" type="line"/>
      <point x="806" y="711" type="line" smooth="yes"/>
      <point x="806" y="796"/>
      <point x="756" y="899"/>
      <point x="660" y="946"/>
      <point x="590" y="946" type="qcurve" smooth="yes"/>
      <point x="521" y="946"/>
      <point x="408" y="888"/>
      <point x="327" y="786"/>
      <point x="282" y="655"/>
    </contour>
    <contour>
      <point x="326" y="1120" type="line"/>
      <point x="141" y="1120" type="line"/>
      <point x="141" y="1260" type="line" smooth="yes"/>
      <point x="141" y="1333"/>
      <point x="187" y="1445"/>
      <point x="270" y="1522"/>
      <point x="378" y="1562"/>
      <point x="440" y="1562" type="qcurve" smooth="yes"/>
      <point x="463" y="1562"/>
      <point x="520" y="1554"/>
      <point x="541" y="1546" type="qcurve"/>
      <point x="539" y="1419" type="line"/>
      <point x="526" y="1423"/>
      <point x="493" y="1427"/>
      <point x="480" y="1427" type="qcurve" smooth="yes"/>
      <point x="431" y="1427"/>
      <point x="362" y="1394"/>
      <point x="326" y="1321"/>
      <point x="326" y="1260" type="qcurve" smooth="yes"/>
    </contour>
  </outline>
</glyph>
<glyph name="uni0270" format="2">
  <advance width="1796"/>
  <unicode hex="0270"/>
  <anchor x="903" y="1290" name="Anchor-5"/>
  <anchor x="903" y="-447" name="Anchor-2"/>
  <anchor x="1796" y="1290" name="Anchor-1"/>
  <anchor x="903" y="1290" name="Anchor-0"/>
  <outline>
    <contour>
      <point x="1471" y="215" type="line"/>
      <point x="1471" y="1082" type="line"/>
      <point x="1656" y="1082" type="line"/>
      <point x="1656" y="-416" type="line"/>
      <point x="1471" y="-416" type="line"/>
    </contour>
    <contour>
      <point x="1508" y="500" type="qcurve"/>
      <point x="1595" y="497" type="line"/>
      <point x="1594" y="386"/>
      <point x="1537" y="197"/>
      <point x="1427" y="57"/>
      <point x="1263" y="-20"/>
      <point x="1155" y="-20" type="qcurve" smooth="yes"/>
      <point x="1079" y="-20"/>
      <point x="951" y="23"/>
      <point x="857" y="115"/>
      <point x="805" y="259"/>
      <point x="805" y="361" type="qcurve" smooth="yes"/>
      <point x="805" y="1082" type="line"/>
      <point x="991" y="1082" type="line"/>
      <point x="991" y="370" type="line" smooth="yes"/>
      <point x="991" y="286"/>
      <point x="1048" y="183"/>
      <point x="1152" y="136"/>
      <point x="1222" y="136" type="qcurve" smooth="yes"/>
      <point x="1303" y="136"/>
      <point x="1413" y="194"/>
      <point x="1479" y="296"/>
      <point x="1508" y="427"/>
    </contour>
    <contour>
      <point x="807" y="398" type="qcurve"/>
      <point x="932" y="436" type="line"/>
      <point x="931" y="347"/>
      <point x="874" y="183"/>
      <point x="765" y="55"/>
      <point x="605" y="-20"/>
      <point x="501" y="-20" type="qcurve" smooth="yes"/>
      <point x="414" y="-20"/>
      <point x="280" y="26"/>
      <point x="187" y="121"/>
      <point x="139" y="269"/>
      <point x="139" y="371" type="qcurve" smooth="yes"/>
      <point x="139" y="1082" type="line"/>
      <point x="324" y="1082" type="line"/>
      <point x="324" y="369" type="line" smooth="yes"/>
      <point x="324" y="279"/>
      <point x="381" y="177"/>
      <point x="486" y="136"/>
      <point x="556" y="136" type="qcurve" smooth="yes"/>
      <point x="617" y="136"/>
      <point x="711" y="178"/>
      <point x="774" y="251"/>
      <point x="807" y="345"/>
    </contour>
  </outline>
</glyph>
<glyph name="uni0290" format="2">
  <advance width="1120"/>
  <unicode hex="0290"/>
  <anchor x="502" y="1290" name="Anchor-5"/>
  <anchor x="502" y="-447" name="Anchor-2"/>
  <anchor x="1120" y="1290" name="Anchor-1"/>
  <anchor x="502" y="1290" name="Anchor-0"/>
  <outline>
    <contour>
      <point x="868" y="152" type="line"/>
      <point x="868" y="0" type="line"/>
      <point x="160" y="0" type="line"/>
      <point x="160" y="152" type="line"/>
    </contour>
    <contour>
      <point x="918" y="951" type="line"/>
      <point x="202" y="0" type="line"/>
      <point x="89" y="0" type="line"/>
      <point x="89" y="136" type="line"/>
      <point x="800" y="1082" type="line"/>
      <point x="918" y="1082" type="line"/>
    </contour>
    <contour>
      <point x="836" y="1082" type="line"/>
      <point x="836" y="929" type="line"/>
      <point x="97" y="929" type="line"/>
      <point x="97" y="1082" type="line"/>
    </contour>
    <contour>
      <point x="788" y="152" type="line"/>
      <point x="918" y="152" type="line"/>
      <point x="918" y="-135" type="line" smooth="yes"/>
      <point x="918" y="-181"/>
      <point x="938" y="-245"/>
      <point x="978" y="-284"/>
      <point x="1035" y="-302"/>
      <point x="1071" y="-302" type="qcurve" smooth="yes"/>
      <point x="1084" y="-302"/>
      <point x="1117" y="-298"/>
      <point x="1130" y="-294" type="qcurve"/>
      <point x="1132" y="-422" type="line"/>
      <point x="1111" y="-429"/>
      <point x="1054" y="-437"/>
      <point x="1031" y="-437" type="qcurve" smooth="yes"/>
      <point x="969" y="-437"/>
      <point x="878" y="-398"/>
      <point x="818" y="-321"/>
      <point x="788" y="-208"/>
      <point x="788" y="-135" type="qcurve" smooth="yes"/>
    </contour>
  </outline>
</glyph>
<glyph name="uni02A6" format="2">
  <advance width="1436"/>
  <unicode hex="02A6"/>
  <anchor x="914" y="1600" name="Anchor-5"/>
  <anchor x="914" y="0" name="Anchor-2"/>
  <anchor x="1436" y="1600" name="Anchor-1"/>
  <anchor x="914" y="1600" name="Anchor-0"/>
  <outline>
    <contour>
      <point x="207" y="1345" type="line"/>
      <point x="392" y="1345" type="line"/>
      <point x="392" y="317" type="line" smooth="yes"/>
      <point x="392" y="254"/>
      <point x="426" y="186"/>
      <point x="480" y="159"/>
      <point x="511" y="159" type="qcurve" smooth="yes"/>
      <point x="599" y="159" type="line"/>
      <point x="599" y="0" type="line"/>
      <point x="456" y="0" type="line" smooth="yes"/>
      <point x="405" y="0"/>
      <point x="314" y="35"/>
      <point x="246" y="111"/>
      <point x="207" y="232"/>
      <point x="207" y="318" type="qcurve" smooth="yes"/>
    </contour>
    <contour>
      <point x="1150" y="287" type="qcurve" smooth="yes"/>
      <point x="1150" y="316"/>
      <point x="1132" y="369"/>
      <point x="1081" y="417"/>
      <point x="984" y="457"/>
      <point x="905" y="473" type="qcurve" smooth="yes"/>
      <point x="813" y="491"/>
      <point x="667" y="545"/>
      <point x="565" y="619"/>
      <point x="511" y="720"/>
      <point x="511" y="786" type="qcurve" smooth="yes"/>
      <point x="511" y="850"/>
      <point x="568" y="964"/>
      <point x="673" y="1052"/>
      <point x="821" y="1102"/>
      <point x="912" y="1102" type="qcurve" smooth="yes"/>
      <point x="1042" y="1102"/>
      <point x="1226" y="1010"/>
      <point x="1324" y="857"/>
      <point x="1324" y="764" type="qcurve"/>
      <point x="1139" y="764" type="line"/>
      <point x="1139" y="809"/>
      <point x="1086" y="894"/>
      <point x="985" y="950"/>
      <point x="912" y="950" type="qcurve" smooth="yes"/>
      <point x="835" y="950"/>
      <point x="740" y="903"/>
      <point x="697" y="831"/>
      <point x="697" y="791" type="qcurve" smooth="yes"/>
      <point x="697" y="756"/>
      <point x="725" y="706"/>
      <point x="782" y="670"/>
      <point x="872" y="642"/>
      <point x="933" y="628" type="qcurve" smooth="yes"/>
      <point x="1070" y="598"/>
      <point x="1248" y="513"/>
      <point x="1335" y="390"/>
      <point x="1335" y="301" type="qcurve" smooth="yes"/>
      <point x="1335" y="230"/>
      <point x="1276" y="118"/>
      <point x="1165" y="40"/>
      <point x="1012" y="0"/>
      <point x="917" y="0" type="qcurve" smooth="yes"/>
      <point x="526" y="0" type="line"/>
      <point x="526" y="159" type="line"/>
      <point x="917" y="159" type="line" smooth="yes"/>
      <point x="993" y="159"/>
      <point x="1096" y="186"/>
      <point x="1150" y="242"/>
    </contour>
    <contour>
      <point x="789" y="1082" type="line"/>
      <point x="787" y="940" type="line"/>
      <point x="9" y="940" type="line"/>
      <point x="9" y="1082" type="line"/>
    </contour>
  </outline>
</glyph>
<glyph name="uni02B4" format="2">
  <advance width="553"/>
  <unicode hex="02B4"/>
  <outline>
    <contour>
      <point x="40" y="644" type="qcurve"/>
      <point x="40" y="822" type="line"/>
      <point x="63" y="812"/>
      <point x="112" y="799"/>
      <point x="140" y="799" type="qcurve" smooth="yes"/>
      <point x="196" y="799"/>
      <point x="268" y="857"/>
      <point x="304" y="959"/>
      <point x="304" y="1024" type="qcurve"/>
      <point x="350" y="1025" type="line"/>
      <point x="350" y="941"/>
      <point x="315" y="799"/>
      <point x="251" y="694"/>
      <point x="164" y="636"/>
      <point x="111" y="636" type="qcurve" smooth="yes"/>
      <point x="88" y="636"/>
      <point x="48" y="641"/>
    </contour>
    <contour>
      <point x="281" y="822" type="line"/>
      <point x="281" y="1451" type="line"/>
      <point x="451" y="1451" type="line"/>
      <point x="451" y="651" type="line"/>
      <point x="323" y="651" type="line"/>
    </contour>
  </outline>
</glyph>
<glyph name="uni02BE" format="2">
  <advance width="287"/>
  <unicode hex="02BE"/>
  <outline>
    <contour>
      <point x="44" y="1117" type="qcurve"/>
      <point x="44" y="1207" type="line"/>
      <point x="86" y="1207"/>
      <point x="143" y="1266"/>
      <point x="143" y="1309" type="qcurve" smooth="yes"/>
      <point x="143" y="1355"/>
      <point x="86" y="1415"/>
      <point x="44" y="1415" type="qcurve"/>
      <point x="44" y="1506" type="line"/>
      <point x="126" y="1506"/>
      <point x="243" y="1395"/>
      <point x="243" y="1309" type="qcurve" smooth="yes"/>
      <point x="243" y="1252"/>
      <point x="189" y="1166"/>
      <point x="99" y="1117"/>
    </contour>
  </outline>
</glyph>
<glyph name="uni02C0" format="2">
  <advance width="766"/>
  <unicode hex="02C0"/>
  <outline>
    <contour>
      <point x="22" y="1515" type="line"/>
      <point x="26" y="1598"/>
      <point x="106" y="1729"/>
      <point x="247" y="1805"/>
      <point x="341" y="1805" type="qcurve" smooth="yes"/>
      <point x="431" y="1805"/>
      <point x="567" y="1742"/>
      <point x="658" y="1631"/>
      <point x="704" y="1487"/>
      <point x="704" y="1406" type="qcurve" smooth="yes"/>
      <point x="704" y="1313" type="line" smooth="yes"/>
      <point x="704" y="1182"/>
      <point x="624" y="988"/>
      <point x="463" y="882"/>
      <point x="341" y="882" type="qcurve" smooth="yes"/>
      <point x="310" y="882" type="line"/>
      <point x="310" y="1025" type="line"/>
      <point x="341" y="1025" type="line" smooth="yes"/>
      <point x="426" y="1025"/>
      <point x="508" y="1110"/>
      <point x="534" y="1243"/>
      <point x="534" y="1313" type="qcurve" smooth="yes"/>
      <point x="534" y="1406" type="line" smooth="yes"/>
      <point x="534" y="1458"/>
      <point x="515" y="1550"/>
      <point x="471" y="1620"/>
      <point x="397" y="1660"/>
      <point x="341" y="1660" type="qcurve" smooth="yes"/>
      <point x="287" y="1660"/>
      <point x="218" y="1623"/>
      <point x="180" y="1558"/>
      <point x="172" y="1515" type="qcurve"/>
    </contour>
    <contour>
      <point x="278" y="1025" type="line"/>
      <point x="448" y="1025" type="line"/>
      <point x="448" y="651" type="line"/>
      <point x="278" y="651" type="line"/>
    </contour>
  </outline>
</glyph>
<glyph name="breve" format="2">
  <advance width="875"/>
  <unicode hex="02D8"/>
  <outline>
    <contour>
      <point x="578" y="1495" type="qcurve"/>
      <point x="728" y="1495" type="line"/>
      <point x="728" y="1377"/>
      <point x="568" y="1228"/>
      <point x="430" y="1228" type="qcurve" smooth="yes"/>
      <point x="291" y="1228"/>
      <point x="130" y="1377"/>
      <point x="130" y="1495" type="qcurve"/>
      <point x="280" y="1495" type="line"/>
      <point x="280" y="1436"/>
      <point x="348" y="1346"/>
      <point x="430" y="1346" type="qcurve" smooth="yes"/>
      <point x="510" y="1346"/>
      <point x="578" y="1436"/>
    </contour>
  </outline>
</glyph>
<glyph name="hungarumlaut" format="2">
  <advance width="764"/>
  <unicode hex="02DD"/>
  <outline>
    <contour>
      <point x="375" y="1232" type="line"/>
      <point x="605" y="1535" type="line"/>
      <point x="812" y="1535" type="line"/>
      <point x="544" y="1232" type="line"/>
    </contour>
    <contour>
      <point x="95" y="1232" type="line"/>
      <point x="265" y="1535" type="line"/>
      <point x="463" y="1535" type="line"/>
      <point x="245" y="1232" type="line"/>
    </contour>
  </outline>
</glyph>
<glyph name="uni02DF" format="2">
  <advance width="645"/>
  <unicode hex="02DF"/>
  <outline>
    <contour>
      <point x="173" y="1158" type="line"/>
      <point x="80" y="1254" type="line"/>
      <point x="472" y="1649" type="line"/>
      <point x="565" y="1553" type="line"/>
    </contour>
    <contour>
      <point x="470" y="1157" type="line"/>
      <point x="82" y="1554" type="line"/>
      <point x="175" y="1650" type="line"/>
      <point x="563" y="1253" type="line"/>
    </contour>
  </outline>
</glyph>
<glyph name="uni02E0" format="2">
  <advance width="856"/>
  <unicode hex="02E0"/>
  <outline>
    <contour>
      <point x="436" y="914" type="line"/>
      <point x="611" y="1451" type="line"/>
      <point x="798" y="1451" type="line"/>
      <point x="508" y="651" type="line"/>
      <point x="390" y="651" type="line"/>
    </contour>
    <contour>
      <point x="245" y="1451" type="line"/>
      <point x="420" y="914" type="line"/>
      <point x="466" y="651" type="line"/>
      <point x="349" y="651" type="line"/>
      <point x="58" y="1451" type="line"/>
    </contour>
    <contour>
      <point x="423" y="219" type="qcurve" smooth="yes"/>
      <point x="363" y="219"/>
      <point x="277" y="260"/>
      <point x="231" y="337"/>
      <point x="231" y="392" type="qcurve" smooth="yes"/>
      <point x="231" y="418"/>
      <point x="248" y="472"/>
      <point x="262" y="507" type="qcurve" smooth="yes"/>
      <point x="353" y="722" type="line"/>
      <point x="353" y="722"/>
      <point x="395" y="722"/>
      <point x="451" y="722"/>
      <point x="493" y="722"/>
      <point x="493" y="722" type="qcurve"/>
      <point x="447" y="602" type="line" smooth="yes"/>
      <point x="415" y="519"/>
      <point x="378" y="431"/>
      <point x="378" y="401" type="qcurve" smooth="yes"/>
      <point x="378" y="382"/>
      <point x="399" y="354"/>
      <point x="423" y="354" type="qcurve" smooth="yes"/>
      <point x="448" y="354"/>
      <point x="467" y="382"/>
      <point x="467" y="401" type="qcurve" smooth="yes"/>
      <point x="467" y="432"/>
      <point x="434" y="519"/>
      <point x="400" y="606" type="qcurve" smooth="yes"/>
      <point x="356" y="722" type="line"/>
      <point x="356" y="722"/>
      <point x="399" y="722"/>
      <point x="454" y="722"/>
      <point x="497" y="722"/>
      <point x="497" y="722" type="qcurve"/>
      <point x="587" y="511" type="line" smooth="yes"/>
      <point x="603" y="474"/>
      <point x="615" y="417"/>
      <point x="615" y="392" type="qcurve" smooth="yes"/>
      <point x="615" y="337"/>
      <point x="569" y="260"/>
      <point x="483" y="219"/>
    </contour>
  </outline>
</glyph>
<glyph name="uni0307" format="2">
  <advance width="0"/>
  <unicode hex="0307"/>
  <anchor x="-585" y="1540" name="Anchor-11"/>
  <anchor x="-585" y="1295" name="_Anchor-11"/>
  <anchor x="-584" y="1370" name="Anchor-10"/>
  <anchor x="-585" y="1295" name="_Anchor-0"/>
  <outline>
    <contour>
      <point x="-694" y="1369" type="qcurve" smooth="yes"/>
      <point x="-694" y="1414"/>
      <point x="-639" y="1476"/>
      <point x="-585" y="1476" type="qcurve" smooth="yes"/>
      <point x="-532" y="1476"/>
      <point x="-475" y="1414"/>
      <point x="-475" y="1369" type="qcurve" smooth="yes"/>
      <point x="-475" y="1326"/>
      <point x="-532" y="1265"/>
      <point x="-585" y="1265" type="qcurve" smooth="yes"/>
      <point x="-639" y="1265"/>
      <point x="-694" y="1326"/>
    </contour>
  </outline>
</glyph>
<glyph name="uni0313" format="2">
  <advance width="0"/>
  <unicode hex="0313"/>
  <anchor x="-607" y="1684" name="Anchor-11"/>
  <anchor x="-607" y="1072" name="_Anchor-11"/>
  <anchor x="-584" y="1278" name="Anchor-10"/>
  <anchor x="-607" y="1072" name="_Anchor-0"/>
  <outline>
    <contour>
      <point x="-445" y="1561" type="line"/>
      <point x="-445" y="1378" type="line" smooth="yes"/>
      <point x="-445" y="1314"/>
      <point x="-486" y="1174"/>
      <point x="-564" y="1045"/>
      <point x="-619" y="997" type="qcurve"/>
      <point x="-725" y="1070" type="line"/>
      <point x="-678" y="1141"/>
      <point x="-628" y="1289"/>
      <point x="-628" y="1375" type="qcurve" smooth="yes"/>
      <point x="-628" y="1561" type="line"/>
    </contour>
  </outline>
</glyph>
<glyph name="uni031B" format="2">
  <advance width="0"/>
  <unicode hex="031B"/>
  <outline>
    <contour>
      <point x="-103" y="1551" type="line"/>
      <point x="-103" y="1524" type="line" smooth="yes"/>
      <point x="-103" y="1383"/>
      <point x="-144" y="1178"/>
      <point x="-221" y="1036"/>
      <point x="-277" y="988" type="qcurve"/>
      <point x="-382" y="1060" type="line"/>
      <point x="-358" y="1097"/>
      <point x="-322" y="1177"/>
      <point x="-298" y="1285"/>
      <point x="-286" y="1440"/>
      <point x="-286" y="1551" type="qcurve"/>
    </contour>
  </outline>
</glyph>
<glyph name="uni032B" format="2">
  <advance width="0"/>
  <unicode hex="032B"/>
  <anchor x="-585" y="-327" name="Anchor-9"/>
  <anchor x="-585" y="0" name="_Anchor-9"/>
  <anchor x="-585" y="0" name="_Anchor-2"/>
  <outline>
    <contour>
      <point x="-967" y="-113" type="qcurve"/>
      <point x="-874" y="-113" type="line"/>
      <point x="-874" y="-168"/>
      <point x="-805" y="-235"/>
      <point x="-756" y="-235" type="qcurve" smooth="yes"/>
      <point x="-692" y="-235"/>
      <point x="-631" y="-169"/>
      <point x="-631" y="-114" type="qcurve"/>
      <point x="-538" y="-114" type="line"/>
      <point x="-538" y="-182"/>
      <point x="-589" y="-286"/>
      <point x="-686" y="-345"/>
      <point x="-756" y="-345" type="qcurve" smooth="yes"/>
      <point x="-817" y="-345"/>
      <point x="-913" y="-286"/>
      <point x="-967" y="-181"/>
    </contour>
    <contour>
      <point x="-631" y="-114" type="qcurve"/>
      <point x="-538" y="-114" type="line"/>
      <point x="-538" y="-169"/>
      <point x="-477" y="-235"/>
      <point x="-414" y="-235" type="qcurve" smooth="yes"/>
      <point x="-364" y="-235"/>
      <point x="-295" y="-168"/>
      <point x="-295" y="-113" type="qcurve"/>
      <point x="-202" y="-113" type="line"/>
      <point x="-202" y="-181"/>
      <point x="-257" y="-286"/>
      <point x="-352" y="-345"/>
      <point x="-414" y="-345" type="qcurve" smooth="yes"/>
      <point x="-484" y="-345"/>
      <point x="-581" y="-286"/>
      <point x="-631" y="-182"/>
    </contour>
  </outline>
</glyph>
<glyph name="uni0339" format="2">
  <advance width="0"/>
  <unicode hex="0339"/>
  <anchor x="-620" y="-472" name="Anchor-9"/>
  <anchor x="-620" y="0" name="_Anchor-9"/>
  <anchor x="-620" y="0" name="_Anchor-2"/>
  <outline>
    <contour>
      <point x="-685" y="-473" type="qcurve"/>
      <point x="-685" y="-383" type="line"/>
      <point x="-643" y="-383"/>
      <point x="-586" y="-324"/>
      <point x="-586" y="-281" type="qcurve" smooth="yes"/>
      <point x="-586" y="-235"/>
      <point x="-643" y="-175"/>
      <point x="-685" y="-175" type="qcurve"/>
      <point x="-685" y="-84" type="line"/>
      <point x="-603" y="-84"/>
      <point x="-486" y="-195"/>
      <point x="-486" y="-281" type="qcurve" smooth="yes"/>
      <point x="-486" y="-338"/>
      <point x="-540" y="-424"/>
      <point x="-630" y="-473"/>
    </contour>
  </outline>
</glyph>
<glyph name="uni033B" format="2">
  <advance width="0"/>
  <unicode hex="033B"/>
  <anchor x="-585" y="-480" name="Anchor-9"/>
  <anchor x="-585" y="0" name="_Anchor-9"/>
  <anchor x="-585" y="0" name="_Anchor-2"/>
  <outline>
    <contour>
      <point x="-784" y="-480" type="line"/>
      <point x="-784" y="-80" type="line"/>
      <point x="-385" y="-80" type="line"/>
      <point x="-385" y="-480" type="line"/>
    </contour>
    <contour>
      <point x="-681" y="-184" type="line"/>
      <point x="-681" y="-375" type="line"/>
      <point x="-489" y="-375" type="line"/>
      <point x="-489" y="-184" type="line"/>
    </contour>
  </outline>
</glyph>
<glyph name="uni033C" format="2">
  <advance width="0"/>
  <unicode hex="033C"/>
  <anchor x="-585" y="-326" name="Anchor-9"/>
  <anchor x="-585" y="0" name="_Anchor-9"/>
  <anchor x="-585" y="0" name="_Anchor-2"/>
  <outline>
    <contour>
      <point x="-967" y="-345" type="line"/>
      <point x="-967" y="-277"/>
      <point x="-913" y="-173"/>
      <point x="-817" y="-113"/>
      <point x="-756" y="-113" type="qcurve" smooth="yes"/>
      <point x="-686" y="-113"/>
      <point x="-589" y="-173"/>
      <point x="-538" y="-277"/>
      <point x="-538" y="-345" type="qcurve"/>
      <point x="-631" y="-345" type="line"/>
      <point x="-631" y="-289"/>
      <point x="-692" y="-223"/>
      <point x="-756" y="-223" type="qcurve" smooth="yes"/>
      <point x="-805" y="-223"/>
      <point x="-874" y="-289"/>
      <point x="-874" y="-345" type="qcurve"/>
    </contour>
    <contour>
      <point x="-631" y="-345" type="line"/>
      <point x="-631" y="-277"/>
      <point x="-581" y="-173"/>
      <point x="-484" y="-113"/>
      <point x="-414" y="-113" type="qcurve" smooth="yes"/>
      <point x="-352" y="-113"/>
      <point x="-257" y="-173"/>
      <point x="-202" y="-277"/>
      <point x="-202" y="-345" type="qcurve"/>
      <point x="-295" y="-345" type="line"/>
      <point x="-295" y="-289"/>
      <point x="-364" y="-223"/>
      <point x="-414" y="-223" type="qcurve" smooth="yes"/>
      <point x="-477" y="-223"/>
      <point x="-538" y="-289"/>
      <point x="-538" y="-345" type="qcurve"/>
    </contour>
  </outline>
</glyph>
<glyph name="uni0345" format="2">
  <advance width="0"/>
  <unicode hex="0345"/>
  <anchor x="-588" y="-526" name="Anchor-9"/>
  <anchor x="-588" y="0" name="_Anchor-9"/>
  <anchor x="-588" y="0" name="_Anchor-2"/>
  <outline>
    <contour>
      <point x="-659" y="-70" type="line"/>
      <point x="-518" y="-70" type="line"/>
      <point x="-518" y="-339" type="line" smooth="yes"/>
      <point x="-518" y="-370"/>
      <point x="-505" y="-407"/>
      <point x="-482" y="-423"/>
      <point x="-467" y="-423" type="qcurve" smooth="yes"/>
      <point x="-455" y="-423"/>
      <point x="-430" y="-419"/>
      <point x="-423" y="-418" type="qcurve"/>
      <point x="-422" y="-515" type="line"/>
      <point x="-434" y="-519"/>
      <point x="-469" y="-526"/>
      <point x="-495" y="-526" type="qcurve" smooth="yes"/>
      <point x="-544" y="-526"/>
      <point x="-618" y="-489"/>
      <point x="-659" y="-408"/>
      <point x="-659" y="-344" type="qcurve" smooth="yes"/>
    </contour>
  </outline>
</glyph>
<glyph name="uni0349" format="2">
  <advance width="0"/>
  <unicode hex="0349"/>
  <anchor x="-564" y="-506" name="Anchor-9"/>
  <anchor x="-564" y="0" name="_Anchor-9"/>
  <anchor x="-564" y="0" name="_Anchor-2"/>
  <outline>
    <contour>
      <point x="-506" y="-120" type="line"/>
      <point x="-365" y="-120" type="line"/>
      <point x="-365" y="-506" type="line"/>
      <point x="-506" y="-506" type="line"/>
    </contour>
    <contour>
      <point x="-365" y="-120" type="line"/>
      <point x="-365" y="-253" type="line"/>
      <point x="-763" y="-253" type="line"/>
      <point x="-763" y="-120" type="line"/>
    </contour>
  </outline>
</glyph>
<glyph name="uni035A" format="2">
  <advance width="0"/>
  <unicode hex="035A"/>
  <anchor x="-572" y="-469" name="Anchor-9"/>
  <anchor x="-572" y="36" name="_Anchor-9"/>
  <anchor x="-572" y="36" name="_Anchor-2"/>
  <outline>
    <contour>
      <point x="-955" y="-264" type="qcurve" smooth="yes"/>
      <point x="-955" y="-206"/>
      <point x="-898" y="-112"/>
      <point x="-801" y="-56"/>
      <point x="-740" y="-56" type="qcurve" smooth="yes"/>
      <point x="-649" y="-56"/>
      <point x="-525" y="-178"/>
      <point x="-525" y="-264" type="qcurve" smooth="yes"/>
      <point x="-525" y="-352"/>
      <point x="-649" y="-468"/>
      <point x="-740" y="-468" type="qcurve" smooth="yes"/>
      <point x="-831" y="-468"/>
      <point x="-955" y="-352"/>
    </contour>
    <contour>
      <point x="-856" y="-264" type="qcurve" smooth="yes"/>
      <point x="-856" y="-308"/>
      <point x="-791" y="-379"/>
      <point x="-740" y="-379" type="qcurve" smooth="yes"/>
      <point x="-689" y="-379"/>
      <point x="-624" y="-310"/>
      <point x="-624" y="-264" type="qcurve" smooth="yes"/>
      <point x="-624" y="-217"/>
      <point x="-689" y="-146"/>
      <point x="-740" y="-146" type="qcurve" smooth="yes"/>
      <point x="-791" y="-146"/>
      <point x="-856" y="-217"/>
    </contour>
    <contour>
      <point x="-618" y="-264" type="qcurve" smooth="yes"/>
      <point x="-618" y="-206"/>
      <point x="-561" y="-112"/>
      <point x="-464" y="-56"/>
      <point x="-403" y="-56" type="qcurve" smooth="yes"/>
      <point x="-312" y="-56"/>
      <point x="-188" y="-178"/>
      <point x="-188" y="-264" type="qcurve" smooth="yes"/>
      <point x="-188" y="-352"/>
      <point x="-312" y="-468"/>
      <point x="-403" y="-468" type="qcurve" smooth="yes"/>
      <point x="-494" y="-468"/>
      <point x="-618" y="-352"/>
    </contour>
    <contour>
      <point x="-519" y="-264" type="qcurve" smooth="yes"/>
      <point x="-519" y="-308"/>
      <point x="-454" y="-379"/>
      <point x="-403" y="-379" type="qcurve" smooth="yes"/>
      <point x="-352" y="-379"/>
      <point x="-287" y="-310"/>
      <point x="-287" y="-264" type="qcurve" smooth="yes"/>
      <point x="-287" y="-217"/>
      <point x="-352" y="-146"/>
      <point x="-403" y="-146" type="qcurve" smooth="yes"/>
      <point x="-454" y="-146"/>
      <point x="-519" y="-217"/>
    </contour>
  </outline>
</glyph>
<glyph name="uni0361" format="2">
  <advance width="0"/>
  <unicode hex="0361"/>
  <anchor x="0" y="1193" name="_Anchor-4"/>
  <outline>
    <contour>
      <point x="699" y="1185" type="qcurve"/>
      <point x="547" y="1185" type="line"/>
      <point x="515" y="1215"/>
      <point x="405" y="1278"/>
      <point x="261" y="1332"/>
      <point x="92" y="1365"/>
      <point x="0" y="1365" type="qcurve" smooth="yes"/>
      <point x="-92" y="1365"/>
      <point x="-262" y="1332"/>
      <point x="-406" y="1278"/>
      <point x="-516" y="1215"/>
      <point x="-548" y="1185" type="qcurve"/>
      <point x="-700" y="1185" type="line"/>
      <point x="-658" y="1244"/>
      <point x="-522" y="1352"/>
      <point x="-342" y="1436"/>
      <point x="-124" y="1484"/>
      <point x="0" y="1484" type="qcurve" smooth="yes"/>
      <point x="124" y="1484"/>
      <point x="341" y="1436"/>
      <point x="521" y="1352"/>
      <point x="657" y="1244"/>
    </contour>
  </outline>
</glyph>
<glyph name="uni037C" format="2">
  <advance width="1072"/>
  <unicode hex="037C"/>
  <outline>
    <contour>
      <point x="439" y="537" type="qcurve" smooth="yes"/>
      <point x="439" y="582"/>
      <point x="494" y="644"/>
      <point x="548" y="644" type="qcurve" smooth="yes"/>
      <point x="601" y="644"/>
      <point x="658" y="582"/>
      <point x="658" y="537" type="qcurve" smooth="yes"/>
      <point x="658" y="494"/>
      <point x="601" y="433"/>
      <point x="548" y="433" type="qcurve" smooth="yes"/>
      <point x="494" y="433"/>
      <point x="439" y="494"/>
    </contour>
    <contour>
      <point x="574" y="-20" type="qcurve" smooth="yes"/>
      <point x="452" y="-20"/>
      <point x="271" y="66"/>
      <point x="152" y="216"/>
      <point x="93" y="411"/>
      <point x="93" y="520" type="qcurve" smooth="yes"/>
      <point x="93" y="562" type="line" smooth="yes"/>
      <point x="93" y="671"/>
      <point x="152" y="866"/>
      <point x="271" y="1016"/>
      <point x="452" y="1102"/>
      <point x="574" y="1102" type="qcurve" smooth="yes"/>
      <point x="701" y="1102"/>
      <point x="891" y="999"/>
      <point x="1000" y="822"/>
      <point x="1005" y="710" type="qcurve"/>
      <point x="829" y="710" type="line"/>
      <point x="824" y="777"/>
      <point x="759" y="885"/>
      <point x="648" y="950"/>
      <point x="574" y="950" type="qcurve" smooth="yes"/>
      <point x="489" y="950"/>
      <point x="374" y="883"/>
      <point x="307" y="770"/>
      <point x="278" y="633"/>
      <point x="278" y="562" type="qcurve" smooth="yes"/>
      <point x="278" y="520" type="line" smooth="yes"/>
      <point x="278" y="449"/>
      <point x="306" y="311"/>
      <point x="373" y="199"/>
      <point x="488" y="132"/>
      <point x="574" y="132" type="qcurve" smooth="yes"/>
      <point x="640" y="132"/>
      <point x="752" y="186"/>
      <point x="824" y="281"/>
      <point x="829" y="342" type="qcurve"/>
      <point x="1005" y="342" type="line"/>
      <point x="1000" y="246"/>
      <point x="881" y="81"/>
      <point x="689" y="-20"/>
    </contour>
  </outline>
</glyph>
<glyph name="uni03A9" format="2">
  <advance width="1362"/>
  <unicode hex="03A9"/>
  <anchor x="679" y="10" name="Anchor-2"/>
  <outline>
    <contour>
      <point x="1033" y="726" type="qcurve" smooth="yes"/>
      <point x="1033" y="842" type="line" smooth="yes"/>
      <point x="1033" y="959"/>
      <point x="983" y="1137"/>
      <point x="887" y="1258"/>
      <point x="753" y="1319"/>
      <point x="669" y="1319" type="qcurve" smooth="yes"/>
      <point x="586" y="1319"/>
      <point x="453" y="1258"/>
      <point x="359" y="1137"/>
      <point x="309" y="959"/>
      <point x="309" y="842" type="qcurve" smooth="yes"/>
      <point x="309" y="726" type="line" smooth="yes"/>
      <point x="309" y="598"/>
      <point x="352" y="400"/>
      <point x="432" y="259"/>
      <point x="543" y="176"/>
      <point x="610" y="163" type="qcurve"/>
      <point x="610" y="22" type="line"/>
      <point x="502" y="35"/>
      <point x="321" y="162"/>
      <point x="188" y="359"/>
      <point x="114" y="599"/>
      <point x="114" y="726" type="qcurve" smooth="yes"/>
      <point x="114" y="840" type="line" smooth="yes"/>
      <point x="114" y="982"/>
      <point x="194" y="1215"/>
      <point x="342" y="1384"/>
      <point x="545" y="1476"/>
      <point x="669" y="1476" type="qcurve" smooth="yes"/>
      <point x="794" y="1476"/>
      <point x="999" y="1384"/>
      <point x="1147" y="1215"/>
      <point x="1228" y="982"/>
      <point x="1228" y="840" type="qcurve" smooth="yes"/>
      <point x="1228" y="726" type="line" smooth="yes"/>
      <point x="1228" y="600"/>
      <point x="1155" y="360"/>
      <point x="1023" y="163"/>
      <point x="844" y="36"/>
      <point x="738" y="22" type="qcurve"/>
      <point x="738" y="163" type="line"/>
      <point x="804" y="177"/>
      <point x="913" y="260"/>
      <point x="991" y="401"/>
      <point x="1033" y="599"/>
    </contour>
    <contour>
      <point x="738" y="0" type="line"/>
      <point x="738" y="157" type="line"/>
      <point x="1221" y="157" type="line"/>
      <point x="1221" y="0" type="line"/>
    </contour>
    <contour>
      <point x="118" y="0" type="line"/>
      <point x="118" y="157" type="line"/>
      <point x="610" y="157" type="line"/>
      <point x="610" y="0" type="line"/>
    </contour>
  </outline>
</glyph>
<glyph name="epsilon" format="2">
  <advance width="1105"/>
  <unicode hex="03B5"/>
  <anchor x="551" y="1289" name="Anchor-5"/>
  <anchor x="1105" y="1289" name="Anchor-1"/>
  <anchor x="551" y="1289" name="Anchor-0"/>
  <outline>
    <contour>
      <point x="525" y="587" type="qcurve" smooth="yes"/>
      <point x="745" y="587" type="line"/>
      <point x="745" y="479" type="line"/>
      <point x="540" y="479" type="line" smooth="yes"/>
      <point x="457" y="479"/>
      <point x="344" y="442"/>
      <point x="286" y="365"/>
      <point x="286" y="304" type="qcurve" smooth="yes"/>
      <point x="286" y="269"/>
      <point x="321" y="206"/>
      <point x="390" y="158"/>
      <point x="489" y="130"/>
      <point x="552" y="130" type="qcurve" smooth="yes"/>
      <point x="633" y="130"/>
      <point x="753" y="184"/>
      <point x="820" y="271"/>
      <point x="820" y="320" type="qcurve"/>
      <point x="1004" y="320" type="line"/>
      <point x="1004" y="232"/>
      <point x="926" y="103"/>
      <point x="796" y="20"/>
      <point x="635" y="-20"/>
      <point x="552" y="-20" type="qcurve" smooth="yes"/>
      <point x="454" y="-20"/>
      <point x="289" y="24"/>
      <point x="167" y="108"/>
      <point x="100" y="229"/>
      <point x="100" y="305" type="qcurve" smooth="yes"/>
      <point x="100" y="373"/>
      <point x="157" y="478"/>
      <point x="266" y="550"/>
      <point x="424" y="587"/>
    </contour>
    <contour>
      <point x="745" y="517" type="line"/>
      <point x="525" y="517" type="line" smooth="yes"/>
      <point x="433" y="517"/>
      <point x="283" y="559"/>
      <point x="176" y="634"/>
      <point x="119" y="732"/>
      <point x="119" y="787" type="qcurve" smooth="yes"/>
      <point x="119" y="864"/>
      <point x="180" y="981"/>
      <point x="294" y="1060"/>
      <point x="454" y="1101"/>
      <point x="552" y="1101" type="qcurve" smooth="yes"/>
      <point x="641" y="1101"/>
      <point x="797" y="1057"/>
      <point x="918" y="973"/>
      <point x="986" y="855"/>
      <point x="986" y="781" type="qcurve"/>
      <point x="802" y="781" type="line"/>
      <point x="802" y="829"/>
      <point x="735" y="906"/>
      <point x="622" y="951"/>
      <point x="552" y="951" type="qcurve" smooth="yes"/>
      <point x="467" y="951"/>
      <point x="357" y="904"/>
      <point x="304" y="829"/>
      <point x="304" y="787" type="qcurve" smooth="yes"/>
      <point x="304" y="752"/>
      <point x="331" y="693"/>
      <point x="387" y="650"/>
      <point x="477" y="626"/>
      <point x="540" y="626" type="qcurve" smooth="yes"/>
      <point x="745" y="626" type="line"/>
    </contour>
  </outline>
</glyph>
<glyph name="sigma" format="2">
  <advance width="1160"/>
  <unicode hex="03C3"/>
  <outline>
    <contour>
      <point x="97" y="529" type="qcurve" smooth="yes"/>
      <point x="97" y="552" type="line" smooth="yes"/>
      <point x="97" y="665"/>
      <point x="162" y="858"/>
      <point x="287" y="1002"/>
      <point x="466" y="1082"/>
      <point x="579" y="1082" type="qcurve" smooth="yes"/>
      <point x="610" y="1079"/>
      <point x="660" y="1042"/>
      <point x="723" y="997"/>
      <point x="774" y="983" type="qcurve"/>
      <point x="866" y="940"/>
      <point x="996" y="801"/>
      <point x="1064" y="621"/>
      <point x="1064" y="514" type="qcurve" smooth="yes"/>
      <point x="1064" y="492" type="line" smooth="yes"/>
      <point x="1064" y="392"/>
      <point x="999" y="208"/>
      <point x="874" y="64"/>
      <point x="695" y="-20"/>
      <point x="581" y="-20" type="qcurve" smooth="yes"/>
      <point x="467" y="-20"/>
      <point x="288" y="63"/>
      <point x="162" y="212"/>
      <point x="97" y="412"/>
    </contour>
    <contour>
      <point x="282" y="552" type="qcurve" smooth="yes"/>
      <point x="282" y="529" type="line" smooth="yes"/>
      <point x="282" y="448"/>
      <point x="318" y="305"/>
      <point x="391" y="195"/>
      <point x="504" y="132"/>
      <point x="581" y="132" type="qcurve" smooth="yes"/>
      <point x="658" y="132"/>
      <point x="770" y="195"/>
      <point x="842" y="305"/>
      <point x="878" y="448"/>
      <point x="878" y="529" type="qcurve" smooth="yes"/>
      <point x="878" y="552" type="line" smooth="yes"/>
      <point x="878" y="627"/>
      <point x="842" y="763"/>
      <point x="769" y="869"/>
      <point x="656" y="929"/>
      <point x="579" y="929" type="qcurve" smooth="yes"/>
      <point x="503" y="929"/>
      <point x="390" y="869"/>
      <point x="318" y="763"/>
      <point x="282" y="627"/>
    </contour>
    <contour>
      <point x="1148" y="1082" type="line"/>
      <point x="1148" y="929" type="line"/>
      <point x="578" y="929" type="line"/>
      <point x="578" y="1082" type="line"/>
    </contour>
  </outline>
</glyph>
<glyph name="uni03F1" format="2">
  <advance width="1151"/>
  <unicode hex="03F1"/>
  <outline>
    <contour>
      <point x="981" y="-473" type="qcurve"/>
      <point x="829" y="-473" type="line"/>
      <point x="829" y="-434"/>
      <point x="795" y="-381"/>
      <point x="731" y="-346"/>
      <point x="639" y="-322"/>
      <point x="580" y="-311" type="qcurve" smooth="yes"/>
      <point x="493" y="-294"/>
      <point x="344" y="-216"/>
      <point x="223" y="-89"/>
      <point x="138" y="91"/>
      <point x="92" y="326"/>
      <point x="92" y="473" type="qcurve" smooth="yes"/>
      <point x="92" y="565" type="line"/>
      <point x="244" y="565" type="line"/>
      <point x="244" y="473" type="line"/>
      <point x="235" y="341"/>
      <point x="263" y="146"/>
      <point x="330" y="9"/>
      <point x="429" y="-82"/>
      <point x="551" y="-136"/>
      <point x="620" y="-151" type="qcurve" smooth="yes"/>
      <point x="689" y="-166"/>
      <point x="818" y="-198"/>
      <point x="921" y="-260"/>
      <point x="981" y="-375"/>
    </contour>
    <contour>
      <point x="610" y="60" type="qcurve" smooth="yes"/>
      <point x="495" y="60"/>
      <point x="314" y="155"/>
      <point x="185" y="310"/>
      <point x="148" y="399" type="qcurve" smooth="yes"/>
      <point x="137" y="427"/>
      <point x="110" y="477"/>
      <point x="92" y="525"/>
      <point x="92" y="550" type="qcurve" smooth="yes"/>
      <point x="92" y="572" type="line" smooth="yes"/>
      <point x="92" y="685"/>
      <point x="157" y="878"/>
      <point x="283" y="1021"/>
      <point x="462" y="1101"/>
      <point x="576" y="1101" type="qcurve" smooth="yes"/>
      <point x="690" y="1101"/>
      <point x="869" y="1021"/>
      <point x="994" y="878"/>
      <point x="1059" y="685"/>
      <point x="1059" y="572" type="qcurve" smooth="yes"/>
      <point x="1059" y="550" type="line" smooth="yes"/>
      <point x="1059" y="445"/>
      <point x="998" y="266"/>
      <point x="882" y="134"/>
      <point x="716" y="60"/>
    </contour>
    <contour>
      <point x="574" y="211" type="qcurve" smooth="yes"/>
      <point x="677" y="211"/>
      <point x="809" y="305"/>
      <point x="873" y="460"/>
      <point x="873" y="550" type="qcurve" smooth="yes"/>
      <point x="873" y="572" type="line" smooth="yes"/>
      <point x="873" y="648"/>
      <point x="837" y="785"/>
      <point x="764" y="890"/>
      <point x="652" y="950"/>
      <point x="576" y="950" type="qcurve" smooth="yes"/>
      <point x="499" y="950"/>
      <point x="386" y="890"/>
      <point x="313" y="785"/>
      <point x="277" y="648"/>
      <point x="277" y="572" type="qcurve" smooth="yes"/>
      <point x="277" y="550" type="line" smooth="yes"/>
      <point x="277" y="483"/>
      <point x="313" y="360"/>
      <point x="385" y="266"/>
      <point x="498" y="211"/>
    </contour>
  </outline>
</glyph>
<glyph name="uni03F5" format="2">
  <advance width="921"/>
  <unicode hex="03F5"/>
  <outline>
    <contour>
      <point x="573" y="152" type="qcurve" smooth="yes"/>
      <point x="880" y="152" type="line"/>
      <point x="880" y="0" type="line"/>
      <point x="573" y="0" type="line" smooth="yes"/>
      <point x="451" y="0"/>
      <point x="270" y="80"/>
      <point x="151" y="222"/>
      <point x="92" y="411"/>
      <point x="92" y="520" type="qcurve" smooth="yes"/>
      <point x="92" y="562" type="line" smooth="yes"/>
      <point x="92" y="671"/>
      <point x="151" y="860"/>
      <point x="271" y="1002"/>
      <point x="452" y="1082"/>
      <point x="574" y="1082" type="qcurve" smooth="yes"/>
      <point x="879" y="1082" type="line"/>
      <point x="879" y="930" type="line"/>
      <point x="574" y="930" type="line" smooth="yes"/>
      <point x="460" y="930"/>
      <point x="331" y="824"/>
      <point x="277" y="656"/>
      <point x="277" y="562" type="qcurve" smooth="yes"/>
      <point x="277" y="520" type="line" smooth="yes"/>
      <point x="277" y="449"/>
      <point x="305" y="317"/>
      <point x="372" y="213"/>
      <point x="487" y="152"/>
    </contour>
    <contour>
      <point x="692" y="616" type="line"/>
      <point x="692" y="464" type="line"/>
      <point x="138" y="464" type="line"/>
      <point x="138" y="616" type="line"/>
    </contour>
  </outline>
</glyph>
<glyph name="uni0409" format="2">
  <advance width="2194"/>
  <unicode hex="0409"/>
  <outline>
    <contour>
      <point x="375" y="1456" type="line"/>
      <point x="567" y="1456" type="line"/>
      <point x="534" y="743" type="line" smooth="yes"/>
      <point x="527" y="589"/>
      <point x="494" y="348"/>
      <point x="434" y="171"/>
      <point x="338" y="56"/>
      <point x="199" y="0"/>
      <point x="102" y="0" type="qcurve" smooth="yes"/>
      <point x="50" y="0" type="line"/>
      <point x="50" y="157" type="line"/>
      <point x="90" y="160" type="line" smooth="yes"/>
      <point x="146" y="164"/>
      <point x="227" y="207"/>
      <point x="284" y="295"/>
      <point x="320" y="435"/>
      <point x="341" y="638"/>
      <point x="347" y="774" type="qcurve" smooth="yes"/>
    </contour>
    <contour>
      <point x="1097" y="1456" type="line"/>
      <point x="1097" y="1298" type="line"/>
      <point x="441" y="1298" type="line"/>
      <point x="441" y="1456" type="line"/>
    </contour>
    <contour>
      <point x="1217" y="892" type="line"/>
      <point x="1614" y="892" type="line" smooth="yes"/>
      <point x="1774" y="892"/>
      <point x="1993" y="776"/>
      <point x="2107" y="574"/>
      <point x="2107" y="445" type="qcurve" smooth="yes"/>
      <point x="2107" y="349"/>
      <point x="2043" y="187"/>
      <point x="1917" y="66"/>
      <point x="1734" y="0"/>
      <point x="1614" y="0" type="qcurve" smooth="yes"/>
      <point x="1070" y="0" type="line"/>
      <point x="1070" y="1456" type="line"/>
      <point x="1263" y="1456" type="line"/>
      <point x="1263" y="157" type="line"/>
      <point x="1614" y="157" type="line" smooth="yes"/>
      <point x="1721" y="157"/>
      <point x="1854" y="241"/>
      <point x="1916" y="374"/>
      <point x="1916" y="447" type="qcurve" smooth="yes"/>
      <point x="1916" y="520"/>
      <point x="1854" y="651"/>
      <point x="1721" y="734"/>
      <point x="1614" y="734" type="qcurve" smooth="yes"/>
      <point x="1217" y="734" type="line"/>
    </contour>
  </outline>
</glyph>
<glyph name="uni040B" format="2">
  <advance width="1667"/>
  <unicode hex="040B"/>
  <outline>
    <contour>
      <point x="1492" y="0" type="line"/>
      <point x="1300" y="0" type="line"/>
      <point x="1300" y="456" type="line" smooth="yes"/>
      <point x="1300" y="569"/>
      <point x="1233" y="696"/>
      <point x="1099" y="748"/>
      <point x="998" y="748" type="qcurve" smooth="yes"/>
      <point x="938" y="748"/>
      <point x="825" y="738"/>
      <point x="717" y="720"/>
      <point x="612" y="695"/>
      <point x="561" y="679" type="qcurve"/>
      <point x="561" y="838" type="line"/>
      <point x="611" y="853"/>
      <point x="707" y="878"/>
      <point x="810" y="896"/>
      <point x="928" y="906"/>
      <point x="998" y="906" type="qcurve" smooth="yes"/>
      <point x="1153" y="906"/>
      <point x="1374" y="817"/>
      <point x="1492" y="620"/>
      <point x="1492" y="456" type="qcurve" smooth="yes"/>
    </contour>
    <contour>
      <point x="663" y="1456" type="line"/>
      <point x="663" y="0" type="line"/>
      <point x="470" y="0" type="line"/>
      <point x="470" y="1456" type="line"/>
    </contour>
    <contour>
      <point x="1191" y="1456" type="line"/>
      <point x="1191" y="1298" type="line"/>
      <point x="62" y="1298" type="line"/>
      <point x="62" y="1456" type="line"/>
    </contour>
  </outline>
</glyph>
<glyph name="uni042B" format="2">
  <advance width="1771"/>
  <unicode hex="042B"/>
  <anchor x="890" y="1612" name="Anchor-5"/>
  <anchor x="1771" y="1612" name="Anchor-1"/>
  <anchor x="890" y="1612" name="Anchor-0"/>
  <outline>
    <contour>
      <point x="325" y="863" type="line"/>
      <point x="722" y="863" type="line" smooth="yes"/>
      <point x="882" y="863"/>
      <point x="1102" y="756"/>
      <point x="1216" y="564"/>
      <point x="1216" y="435" type="qcurve" smooth="yes"/>
      <point x="1216" y="339"/>
      <point x="1152" y="180"/>
      <point x="1026" y="63"/>
      <point x="842" y="0"/>
      <point x="722" y="0" type="qcurve" smooth="yes"/>
      <point x="178" y="0" type="line"/>
      <point x="178" y="1456" type="line"/>
      <point x="371" y="1456" type="line"/>
      <point x="371" y="157" type="line"/>
      <point x="722" y="157" type="line" smooth="yes"/>
      <point x="829" y="157"/>
      <point x="962" y="236"/>
      <point x="1024" y="364"/>
      <point x="1024" y="437" type="qcurve" smooth="yes"/>
      <point x="1024" y="510"/>
      <point x="962" y="632"/>
      <point x="829" y="705"/>
      <point x="722" y="705" type="qcurve" smooth="yes"/>
      <point x="325" y="705" type="line"/>
    </contour>
    <contour>
      <point x="1585" y="1456" type="line"/>
      <point x="1585" y="0" type="line"/>
      <point x="1392" y="0" type="line"/>
      <point x="1392" y="1456" type="line"/>
    </contour>
  </outline>
</glyph>
<glyph name="uni042F" format="2">
  <advance width="1304"/>
  <unicode hex="042F"/>
  <anchor x="650" y="1612" name="Anchor-5"/>
  <anchor x="1304" y="1612" name="Anchor-1"/>
  <anchor x="650" y="1612" name="Anchor-0"/>
  <outline>
    <contour>
      <point x="977" y="567" type="line"/>
      <point x="568" y="567" type="line"/>
      <point x="473" y="606" type="line"/>
      <point x="315" y="656"/>
      <point x="145" y="863"/>
      <point x="145" y="1017" type="qcurve" smooth="yes"/>
      <point x="145" y="1158"/>
      <point x="270" y="1354"/>
      <point x="501" y="1456"/>
      <point x="659" y="1456" type="qcurve" smooth="yes"/>
      <point x="1125" y="1456" type="line"/>
      <point x="1125" y="0" type="line"/>
      <point x="932" y="0" type="line"/>
      <point x="932" y="1298" type="line"/>
      <point x="659" y="1298" type="line" smooth="yes"/>
      <point x="499" y="1298"/>
      <point x="338" y="1146"/>
      <point x="338" y="1017" type="qcurve" smooth="yes"/>
      <point x="338" y="933"/>
      <point x="409" y="801"/>
      <point x="549" y="725"/>
      <point x="653" y="725" type="qcurve" smooth="yes"/>
      <point x="978" y="725" type="line"/>
    </contour>
    <contour>
      <point x="649" y="667" type="line"/>
      <point x="295" y="0" type="line"/>
      <point x="90" y="0" type="line"/>
      <point x="454" y="667" type="line"/>
    </contour>
  </outline>
</glyph>
<glyph name="uni0432" format="2">
  <advance width="1171"/>
  <unicode hex="0432"/>
  <anchor x="549" y="1269" name="Anchor-5"/>
  <anchor x="1171" y="1269" name="Anchor-1"/>
  <anchor x="549" y="1269" name="Anchor-0"/>
  <outline>
    <contour>
      <point x="649" y="476" type="line"/>
      <point x="294" y="476" type="line"/>
      <point x="292" y="624" type="line"/>
      <point x="582" y="624" type="line" smooth="yes"/>
      <point x="668" y="624"/>
      <point x="783" y="658"/>
      <point x="841" y="726"/>
      <point x="841" y="776" type="qcurve" smooth="yes"/>
      <point x="841" y="815"/>
      <point x="808" y="874"/>
      <point x="742" y="913"/>
      <point x="645" y="932"/>
      <point x="580" y="932" type="qcurve" smooth="yes"/>
      <point x="343" y="932" type="line"/>
      <point x="343" y="0" type="line"/>
      <point x="158" y="0" type="line"/>
      <point x="158" y="1082" type="line"/>
      <point x="580" y="1082" type="line" smooth="yes"/>
      <point x="683" y="1082"/>
      <point x="848" y="1046"/>
      <point x="965" y="973"/>
      <point x="1027" y="861"/>
      <point x="1027" y="785" type="qcurve" smooth="yes"/>
      <point x="1027" y="736"/>
      <point x="987" y="648"/>
      <point x="909" y="580"/>
      <point x="795" y="537"/>
      <point x="721" y="531" type="qcurve"/>
    </contour>
    <contour>
      <point x="649" y="0" type="qcurve" smooth="yes"/>
      <point x="227" y="0" type="line"/>
      <point x="319" y="150" type="line"/>
      <point x="649" y="150" type="line" smooth="yes"/>
      <point x="726" y="150"/>
      <point x="828" y="189"/>
      <point x="879" y="262"/>
      <point x="879" y="313" type="qcurve" smooth="yes"/>
      <point x="879" y="364"/>
      <point x="828" y="437"/>
      <point x="726" y="476"/>
      <point x="649" y="476" type="qcurve" smooth="yes"/>
      <point x="368" y="476" type="line"/>
      <point x="370" y="624" type="line"/>
      <point x="721" y="624" type="line"/>
      <point x="788" y="568" type="line"/>
      <point x="877" y="561"/>
      <point x="1001" y="487"/>
      <point x="1065" y="374"/>
      <point x="1065" y="308" type="qcurve" smooth="yes"/>
      <point x="1065" y="232"/>
      <point x="1008" y="116"/>
      <point x="900" y="39"/>
      <point x="746" y="0"/>
    </contour>
  </outline>
</glyph>
<glyph name="uni0447" format="2">
  <advance width="1114"/>
  <unicode hex="0447"/>
  <anchor x="524" y="1269" name="Anchor-5"/>
  <anchor x="1114" y="1269" name="Anchor-1"/>
  <anchor x="524" y="1269" name="Anchor-0"/>
  <outline>
    <contour>
      <point x="957" y="1082" type="line"/>
      <point x="957" y="0" type="line"/>
      <point x="772" y="0" type="line"/>
      <point x="772" y="1082" type="line"/>
    </contour>
    <contour>
      <point x="894" y="585" type="qcurve"/>
      <point x="894" y="433" type="line"/>
      <point x="838" y="412"/>
      <point x="723" y="379"/>
      <point x="596" y="360"/>
      <point x="522" y="360" type="qcurve" smooth="yes"/>
      <point x="394" y="360"/>
      <point x="206" y="449"/>
      <point x="104" y="630"/>
      <point x="104" y="768" type="qcurve" smooth="yes"/>
      <point x="104" y="1084" type="line"/>
      <point x="289" y="1084" type="line"/>
      <point x="289" y="768" type="line" smooth="yes"/>
      <point x="289" y="678"/>
      <point x="343" y="566"/>
      <point x="447" y="513"/>
      <point x="522" y="513" type="qcurve" smooth="yes"/>
      <point x="594" y="513"/>
      <point x="721" y="532"/>
      <point x="838" y="564"/>
    </contour>
  </outline>
</glyph>
<glyph name="uni044E" format="2">
  <advance width="1672"/>
  <unicode hex="044E"/>
  <anchor x="827" y="1269" name="Anchor-5"/>
  <anchor x="1672" y="1269" name="Anchor-1"/>
  <anchor x="827" y="1269" name="Anchor-0"/>
  <outline>
    <contour>
      <point x="757" y="623" type="line"/>
      <point x="757" y="472" type="line"/>
      <point x="182" y="472" type="line"/>
      <point x="182" y="623" type="line"/>
    </contour>
    <contour>
      <point x="343" y="1082" type="line"/>
      <point x="343" y="0" type="line"/>
      <point x="158" y="0" type="line"/>
      <point x="158" y="1082" type="line"/>
    </contour>
    <contour>
      <point x="599" y="529" type="qcurve" smooth="yes"/>
      <point x="599" y="552" type="line" smooth="yes"/>
      <point x="599" y="669"/>
      <point x="667" y="870"/>
      <point x="796" y="1019"/>
      <point x="977" y="1102"/>
      <point x="1090" y="1102" type="qcurve" smooth="yes"/>
      <point x="1205" y="1102"/>
      <point x="1387" y="1019"/>
      <point x="1516" y="870"/>
      <point x="1584" y="669"/>
      <point x="1584" y="552" type="qcurve" smooth="yes"/>
      <point x="1584" y="529" type="line" smooth="yes"/>
      <point x="1584" y="412"/>
      <point x="1516" y="212"/>
      <point x="1388" y="63"/>
      <point x="1206" y="-20"/>
      <point x="1092" y="-20" type="qcurve" smooth="yes"/>
      <point x="978" y="-20"/>
      <point x="796" y="63"/>
      <point x="667" y="212"/>
      <point x="599" y="412"/>
    </contour>
    <contour>
      <point x="785" y="552" type="qcurve" smooth="yes"/>
      <point x="785" y="529" type="line" smooth="yes"/>
      <point x="785" y="448"/>
      <point x="823" y="305"/>
      <point x="900" y="195"/>
      <point x="1015" y="132"/>
      <point x="1092" y="132" type="qcurve" smooth="yes"/>
      <point x="1169" y="132"/>
      <point x="1284" y="195"/>
      <point x="1360" y="305"/>
      <point x="1399" y="448"/>
      <point x="1399" y="529" type="qcurve" smooth="yes"/>
      <point x="1399" y="552" type="line" smooth="yes"/>
      <point x="1399" y="632"/>
      <point x="1360" y="775"/>
      <point x="1283" y="886"/>
      <point x="1167" y="950"/>
      <point x="1090" y="950" type="qcurve" smooth="yes"/>
      <point x="1014" y="950"/>
      <point x="900" y="886"/>
      <point x="823" y="775"/>
      <point x="785" y="632"/>
    </contour>
  </outline>
</glyph>
<glyph name="uni0454" format="2">
  <advance width="1102"/>
  <unicode hex="0454"/>
  <anchor x="594" y="1288" name="Anchor-5"/>
  <anchor x="1102" y="1288" name="Anchor-1"/>
  <anchor x="594" y="1288" name="Anchor-0"/>
  <outline>
    <contour>
      <point x="695" y="616" type="line"/>
      <point x="695" y="464" type="line"/>
      <point x="141" y="464" type="line"/>
      <point x="141" y="616" type="line"/>
    </contour>
    <contour>
      <point x="585" y="132" type="qcurve" smooth="yes"/>
      <point x="651" y="132"/>
      <point x="763" y="186"/>
      <point x="835" y="281"/>
      <point x="840" y="342" type="qcurve"/>
      <point x="1015" y="342" type="line"/>
      <point x="1010" y="246"/>
      <point x="891" y="81"/>
      <point x="700" y="-20"/>
      <point x="585" y="-20" type="qcurve" smooth="yes"/>
      <point x="463" y="-20"/>
      <point x="281" y="66"/>
      <point x="162" y="216"/>
      <point x="103" y="411"/>
      <point x="103" y="520" type="qcurve" smooth="yes"/>
      <point x="103" y="562" type="line" smooth="yes"/>
      <point x="103" y="671"/>
      <point x="162" y="866"/>
      <point x="282" y="1016"/>
      <point x="463" y="1102"/>
      <point x="584" y="1102" type="qcurve" smooth="yes"/>
      <point x="711" y="1102"/>
      <point x="901" y="999"/>
      <point x="1010" y="822"/>
      <point x="1015" y="710" type="qcurve"/>
      <point x="840" y="710" type="line"/>
      <point x="835" y="777"/>
      <point x="770" y="885"/>
      <point x="659" y="950"/>
      <point x="584" y="950" type="qcurve" smooth="yes"/>
      <point x="499" y="950"/>
      <point x="384" y="883"/>
      <point x="317" y="770"/>
      <point x="288" y="633"/>
      <point x="288" y="562" type="qcurve" smooth="yes"/>
      <point x="288" y="520" type="line" smooth="yes"/>
      <point x="288" y="449"/>
      <point x="317" y="311"/>
      <point x="384" y="199"/>
      <point x="499" y="132"/>
    </contour>
  </outline>
</glyph>
<glyph name="uni0464" format="2">
  <advance width="1836"/>
  <unicode hex="0464"/>
  <outline>
    <contour>
      <point x="1310" y="833" type="line"/>
      <point x="1310" y="681" type="line"/>
      <point x="303" y="681" type="line"/>
      <point x="303" y="833" type="line"/>
    </contour>
    <contour>
      <point x="1504" y="464" type="qcurve"/>
      <point x="1697" y="464" type="line"/>
      <point x="1682" y="326"/>
      <point x="1553" y="108"/>
      <point x="1319" y="-19"/>
      <point x="1144" y="-19" type="qcurve" smooth="yes"/>
      <point x="1016" y="-19"/>
      <point x="807" y="77"/>
      <point x="657" y="254"/>
      <point x="576" y="503"/>
      <point x="576" y="656" type="qcurve" smooth="yes"/>
      <point x="576" y="801" type="line" smooth="yes"/>
      <point x="576" y="954"/>
      <point x="657" y="1203"/>
      <point x="810" y="1381"/>
      <point x="1026" y="1477"/>
      <point x="1161" y="1477" type="qcurve" smooth="yes"/>
      <point x="1326" y="1477"/>
      <point x="1554" y="1353"/>
      <point x="1682" y="1134"/>
      <point x="1697" y="990" type="qcurve"/>
      <point x="1504" y="990" type="line"/>
      <point x="1490" y="1092"/>
      <point x="1414" y="1239"/>
      <point x="1274" y="1319"/>
      <point x="1161" y="1319" type="qcurve" smooth="yes"/>
      <point x="1065" y="1319"/>
      <point x="918" y="1245"/>
      <point x="819" y="1109"/>
      <point x="769" y="919"/>
      <point x="769" y="803" type="qcurve" smooth="yes"/>
      <point x="769" y="656" type="line" smooth="yes"/>
      <point x="769" y="570"/>
      <point x="798" y="415"/>
      <point x="856" y="285"/>
      <point x="945" y="190"/>
      <point x="1067" y="138"/>
      <point x="1144" y="138" type="qcurve" smooth="yes"/>
      <point x="1267" y="138"/>
      <point x="1413" y="216"/>
      <point x="1488" y="362"/>
    </contour>
    <contour>
      <point x="377" y="1456" type="line"/>
      <point x="377" y="0" type="line"/>
      <point x="184" y="0" type="line"/>
      <point x="184" y="1456" type="line"/>
    </contour>
  </outline>
</glyph>
<glyph name="uni0472" format="2">
  <advance width="1394"/>
  <unicode hex="0472"/>
  <anchor x="719" y="1607" name="Anchor-5"/>
  <anchor x="1394" y="1607" name="Anchor-1"/>
  <anchor x="719" y="1607" name="Anchor-0"/>
  <outline>
    <contour>
      <point x="688" y="1476" type="qcurve" smooth="yes"/>
      <point x="794" y="1476"/>
      <point x="976" y="1414"/>
      <point x="1119" y="1295"/>
      <point x="1221" y="1124"/>
      <point x="1274" y="905"/>
      <point x="1274" y="774" type="qcurve" smooth="yes"/>
      <point x="1274" y="682" type="line" smooth="yes"/>
      <point x="1274" y="518"/>
      <point x="1192" y="258"/>
      <point x="1038" y="76"/>
      <point x="823" y="-20"/>
      <point x="690" y="-20" type="qcurve" smooth="yes"/>
      <point x="587" y="-20"/>
      <point x="407" y="42"/>
      <point x="262" y="161"/>
      <point x="158" y="332"/>
      <point x="103" y="551"/>
      <point x="103" y="682" type="qcurve" smooth="yes"/>
      <point x="103" y="774" type="line" smooth="yes"/>
      <point x="103" y="938"/>
      <point x="188" y="1197"/>
      <point x="344" y="1380"/>
      <point x="559" y="1476"/>
    </contour>
    <contour>
      <point x="688" y="1312" type="qcurve" smooth="yes"/>
      <point x="607" y="1312"/>
      <point x="471" y="1254"/>
      <point x="370" y="1140"/>
      <point x="306" y="973"/>
      <point x="297" y="864" type="qcurve" smooth="yes"/>
      <point x="296" y="848"/>
      <point x="294" y="813"/>
      <point x="294" y="795" type="qcurve"/>
      <point x="1083" y="795" type="line"/>
      <point x="1083" y="812"/>
      <point x="1082" y="846"/>
      <point x="1080" y="862" type="qcurve" smooth="yes"/>
      <point x="1071" y="972"/>
      <point x="1011" y="1139"/>
      <point x="910" y="1254"/>
      <point x="773" y="1312"/>
    </contour>
    <contour>
      <point x="690" y="143" type="qcurve" smooth="yes"/>
      <point x="776" y="143"/>
      <point x="914" y="202"/>
      <point x="1013" y="318"/>
      <point x="1072" y="489"/>
      <point x="1080" y="600" type="qcurve" smooth="yes"/>
      <point x="1081" y="611"/>
      <point x="1082" y="632"/>
      <point x="1082" y="643" type="qcurve"/>
      <point x="295" y="643" type="line"/>
      <point x="296" y="627"/>
      <point x="298" y="597"/>
      <point x="299" y="583" type="qcurve" smooth="yes"/>
      <point x="309" y="476"/>
      <point x="373" y="312"/>
      <point x="475" y="200"/>
      <point x="610" y="143"/>
    </contour>
  </outline>
</glyph>
<glyph name="uni0481" format="2">
  <advance width="1096"/>
  <unicode hex="0481"/>
  <anchor x="574" y="1292" name="Anchor-5"/>
  <anchor x="574" y="-10" name="Anchor-2"/>
  <anchor x="1096" y="1292" name="Anchor-1"/>
  <anchor x="574" y="1292" name="Anchor-0"/>
  <outline>
    <contour>
      <point x="573" y="131" type="qcurve"/>
      <point x="573" y="-21" type="line"/>
      <point x="460" y="-21"/>
      <point x="284" y="65"/>
      <point x="163" y="216"/>
      <point x="100" y="411"/>
      <point x="100" y="520" type="qcurve" smooth="yes"/>
      <point x="100" y="562" type="line" smooth="yes"/>
      <point x="100" y="671"/>
      <point x="163" y="866"/>
      <point x="284" y="1016"/>
      <point x="460" y="1102"/>
      <point x="573" y="1102" type="qcurve" smooth="yes"/>
      <point x="694" y="1102"/>
      <point x="884" y="999"/>
      <point x="993" y="822"/>
      <point x="993" y="710" type="qcurve"/>
      <point x="818" y="710" type="line"/>
      <point x="818" y="777"/>
      <point x="753" y="886"/>
      <point x="642" y="950"/>
      <point x="573" y="950" type="qcurve" smooth="yes"/>
      <point x="497" y="950"/>
      <point x="388" y="883"/>
      <point x="319" y="770"/>
      <point x="286" y="633"/>
      <point x="286" y="562" type="qcurve" smooth="yes"/>
      <point x="286" y="520" type="line" smooth="yes"/>
      <point x="286" y="449"/>
      <point x="319" y="310"/>
      <point x="387" y="198"/>
      <point x="497" y="131"/>
    </contour>
    <contour>
      <point x="675" y="131" type="line"/>
      <point x="675" y="-382" type="line"/>
      <point x="490" y="-382" type="line"/>
      <point x="490" y="131" type="line"/>
    </contour>
  </outline>
</glyph>
<glyph name="uni0488" format="2">
  <advance width="0"/>
  <unicode hex="0488"/>
  <outline>
    <contour>
      <point x="-648" y="1267" type="qcurve"/>
      <point x="-761" y="1267" type="line"/>
      <point x="-761" y="1350"/>
      <point x="-648" y="1455"/>
      <point x="-551" y="1455" type="qcurve" smooth="yes"/>
      <point x="-453" y="1455"/>
      <point x="-340" y="1350"/>
      <point x="-340" y="1267" type="qcurve"/>
      <point x="-452" y="1267" type="line"/>
      <point x="-452" y="1307"/>
      <point x="-497" y="1368"/>
      <point x="-551" y="1368" type="qcurve" smooth="yes"/>
      <point x="-604" y="1368"/>
      <point x="-648" y="1307"/>
    </contour>
    <contour>
      <point x="-56" y="990" type="qcurve"/>
      <point x="-170" y="990" type="line"/>
      <point x="-170" y="1073"/>
      <point x="-57" y="1178"/>
      <point x="40" y="1178" type="qcurve" smooth="yes"/>
      <point x="138" y="1178"/>
      <point x="252" y="1073"/>
      <point x="252" y="990" type="qcurve"/>
      <point x="139" y="990" type="line"/>
      <point x="139" y="1030"/>
      <point x="95" y="1091"/>
      <point x="40" y="1091" type="qcurve" smooth="yes"/>
      <point x="-12" y="1091"/>
      <point x="-56" y="1030"/>
    </contour>
    <contour>
      <point x="130" y="487" type="qcurve"/>
      <point x="17" y="487" type="line"/>
      <point x="17" y="570"/>
      <point x="130" y="675"/>
      <point x="227" y="675" type="qcurve" smooth="yes"/>
      <point x="325" y="675"/>
      <point x="438" y="570"/>
      <point x="438" y="487" type="qcurve"/>
      <point x="326" y="487" type="line"/>
      <point x="326" y="527"/>
      <point x="282" y="588"/>
      <point x="227" y="588" type="qcurve" smooth="yes"/>
      <point x="175" y="588"/>
      <point x="130" y="527"/>
    </contour>
    <contour>
      <point x="-67" y="-32" type="qcurve"/>
      <point x="-180" y="-32" type="line"/>
      <point x="-180" y="51"/>
      <point x="-67" y="156"/>
      <point x="30" y="156" type="qcurve" smooth="yes"/>
      <point x="128" y="156"/>
      <point x="241" y="51"/>
      <point x="241" y="-32" type="qcurve"/>
      <point x="129" y="-32" type="line"/>
      <point x="129" y="8"/>
      <point x="85" y="69"/>
      <point x="30" y="69" type="qcurve" smooth="yes"/>
      <point x="-22" y="69"/>
      <point x="-67" y="8"/>
    </contour>
    <contour>
      <point x="-643" y="-316" type="qcurve"/>
      <point x="-756" y="-316" type="line"/>
      <point x="-756" y="-233"/>
      <point x="-643" y="-128"/>
      <point x="-546" y="-128" type="qcurve" smooth="yes"/>
      <point x="-448" y="-128"/>
      <point x="-335" y="-233"/>
      <point x="-335" y="-316" type="qcurve"/>
      <point x="-447" y="-316" type="line"/>
      <point x="-447" y="-276"/>
      <point x="-492" y="-215"/>
      <point x="-546" y="-215" type="qcurve" smooth="yes"/>
      <point x="-598" y="-215"/>
      <point x="-643" y="-276"/>
    </contour>
    <contour>
      <point x="-1220" y="990" type="qcurve"/>
      <point x="-1334" y="990" type="line"/>
      <point x="-1334" y="1073"/>
      <point x="-1220" y="1178"/>
      <point x="-1123" y="1178" type="qcurve" smooth="yes"/>
      <point x="-1025" y="1178"/>
      <point x="-912" y="1073"/>
      <point x="-912" y="990" type="qcurve"/>
      <point x="-1024" y="990" type="line"/>
      <point x="-1024" y="1030"/>
      <point x="-1069" y="1091"/>
      <point x="-1123" y="1091" type="qcurve" smooth="yes"/>
      <point x="-1176" y="1091"/>
      <point x="-1220" y="1030"/>
    </contour>
    <contour>
      <point x="-1397" y="487" type="qcurve"/>
      <point x="-1510" y="487" type="line"/>
      <point x="-1510" y="570"/>
      <point x="-1397" y="675"/>
      <point x="-1300" y="675" type="qcurve" smooth="yes"/>
      <point x="-1202" y="675"/>
      <point x="-1089" y="570"/>
      <point x="-1089" y="487" type="qcurve"/>
      <point x="-1201" y="487" type="line"/>
      <point x="-1201" y="527"/>
      <point x="-1245" y="588"/>
      <point x="-1300" y="588" type="qcurve" smooth="yes"/>
      <point x="-1352" y="588"/>
      <point x="-1397" y="527"/>
    </contour>
    <contour>
      <point x="-1230" y="-32" type="qcurve"/>
      <point x="-1344" y="-32" type="line"/>
      <point x="-1344" y="51"/>
      <point x="-1231" y="156"/>
      <point x="-1134" y="156" type="qcurve" smooth="yes"/>
      <point x="-1036" y="156"/>
      <point x="-922" y="51"/>
      <point x="-922" y="-32" type="qcurve"/>
      <point x="-1035" y="-32" type="line"/>
      <point x="-1035" y="8"/>
      <point x="-1079" y="69"/>
      <point x="-1134" y="69" type="qcurve" smooth="yes"/>
      <point x="-1186" y="69"/>
      <point x="-1230" y="8"/>
    </contour>
  </outline>
</glyph>
<glyph name="uni0494" format="2">
  <advance width="1243"/>
  <unicode hex="0494"/>
  <outline>
    <contour>
      <point x="1072" y="1456" type="line"/>
      <point x="1072" y="1298" type="line"/>
      <point x="370" y="1298" type="line"/>
      <point x="370" y="0" type="line"/>
      <point x="178" y="0" type="line"/>
      <point x="178" y="1456" type="line"/>
    </contour>
    <contour>
      <point x="337" y="672" type="line"/>
      <point x="337" y="833" type="line"/>
      <point x="551" y="833" type="line" smooth="yes"/>
      <point x="692" y="833"/>
      <point x="913" y="755"/>
      <point x="1068" y="606"/>
      <point x="1148" y="392"/>
      <point x="1148" y="256" type="qcurve" smooth="yes"/>
      <point x="1148" y="126"/>
      <point x="1088" y="-77"/>
      <point x="969" y="-217"/>
      <point x="792" y="-290"/>
      <point x="675" y="-290" type="qcurve"/>
      <point x="673" y="-143" type="line"/>
      <point x="754" y="-143"/>
      <point x="865" y="-86"/>
      <point x="933" y="19"/>
      <point x="963" y="166"/>
      <point x="963" y="256" type="qcurve" smooth="yes"/>
      <point x="962" y="357"/>
      <point x="910" y="512"/>
      <point x="808" y="618"/>
      <point x="654" y="672"/>
      <point x="551" y="672" type="qcurve" smooth="yes"/>
    </contour>
  </outline>
</glyph>
<glyph name="uni050C" format="2">
  <advance width="1271"/>
  <unicode hex="050C"/>
  <anchor x="678" y="1633" name="Anchor-5"/>
  <anchor x="678" y="-10" name="Anchor-2"/>
  <anchor x="1271" y="1633" name="Anchor-1"/>
  <anchor x="678" y="1633" name="Anchor-0"/>
  <outline>
    <contour>
      <point x="697" y="-21" type="qcurve" smooth="yes"/>
      <point x="568" y="-21"/>
      <point x="355" y="72"/>
      <point x="201" y="239"/>
      <point x="118" y="464"/>
      <point x="118" y="597" type="qcurve" smooth="yes"/>
      <point x="118" y="859" type="line" smooth="yes"/>
      <point x="118" y="992"/>
      <point x="201" y="1217"/>
      <point x="355" y="1384"/>
      <point x="568" y="1477"/>
      <point x="697" y="1477" type="qcurve" smooth="yes"/>
      <point x="812" y="1477"/>
      <point x="986" y="1433"/>
      <point x="1052" y="1390" type="qcurve"/>
      <point x="993" y="1251" type="line"/>
      <point x="929" y="1284"/>
      <point x="784" y="1319"/>
      <point x="697" y="1319" type="qcurve" smooth="yes"/>
      <point x="606" y="1319"/>
      <point x="463" y="1247"/>
      <point x="363" y="1121"/>
      <point x="311" y="955"/>
      <point x="311" y="861" type="qcurve" smooth="yes"/>
      <point x="311" y="597" type="line" smooth="yes"/>
      <point x="311" y="502"/>
      <point x="363" y="335"/>
      <point x="463" y="208"/>
      <point x="606" y="136"/>
      <point x="697" y="136" type="qcurve" smooth="yes"/>
      <point x="791" y="137"/>
      <point x="921" y="208"/>
      <point x="989" y="337"/>
      <point x="991" y="426" type="qcurve" smooth="yes"/>
      <point x="993" y="515"/>
      <point x="964" y="698"/>
      <point x="941" y="786" type="qcurve"/>
      <point x="1128" y="786" type="line"/>
      <point x="1147" y="698"/>
      <point x="1186" y="517"/>
      <point x="1184" y="426" type="qcurve" smooth="yes"/>
      <point x="1182" y="275"/>
      <point x="1046" y="77"/>
      <point x="826" y="-21"/>
    </contour>
  </outline>
</glyph>
<glyph name="uni050D" format="2">
  <advance width="1054"/>
  <unicode hex="050D"/>
  <anchor x="547" y="1290" name="Anchor-5"/>
  <anchor x="547" y="-10" name="Anchor-2"/>
  <anchor x="1054" y="1290" name="Anchor-1"/>
  <anchor x="547" y="1290" name="Anchor-0"/>
  <outline>
    <contour>
      <point x="593" y="131" type="qcurve" smooth="yes"/>
      <point x="664" y="132"/>
      <point x="745" y="174"/>
      <point x="780" y="249"/>
      <point x="781" y="301" type="qcurve" smooth="yes"/>
      <point x="781" y="357"/>
      <point x="772" y="480"/>
      <point x="761" y="537" type="qcurve"/>
      <point x="939" y="537" type="line"/>
      <point x="950" y="479"/>
      <point x="967" y="360"/>
      <point x="966" y="301" type="qcurve" smooth="yes"/>
      <point x="964" y="192"/>
      <point x="866" y="49"/>
      <point x="699" y="-21"/>
      <point x="593" y="-21" type="qcurve" smooth="yes"/>
      <point x="475" y="-21"/>
      <point x="292" y="66"/>
      <point x="166" y="217"/>
      <point x="102" y="412"/>
      <point x="102" y="520" type="qcurve" smooth="yes"/>
      <point x="102" y="562" type="line" smooth="yes"/>
      <point x="102" y="670"/>
      <point x="164" y="865"/>
      <point x="284" y="1015"/>
      <point x="459" y="1102"/>
      <point x="572" y="1102" type="qcurve" smooth="yes"/>
      <point x="668" y="1102"/>
      <point x="809" y="1068"/>
      <point x="853" y="1037" type="qcurve"/>
      <point x="809" y="893" type="line"/>
      <point x="763" y="920"/>
      <point x="642" y="950"/>
      <point x="572" y="950" type="qcurve" smooth="yes"/>
      <point x="496" y="950"/>
      <point x="388" y="882"/>
      <point x="319" y="769"/>
      <point x="287" y="631"/>
      <point x="287" y="562" type="qcurve" smooth="yes"/>
      <point x="287" y="520" type="line" smooth="yes"/>
      <point x="287" y="450"/>
      <point x="322" y="312"/>
      <point x="395" y="199"/>
      <point x="512" y="131"/>
    </contour>
  </outline>
</glyph>
<glyph name="uni0528" format="2">
  <advance width="1540"/>
  <unicode hex="0528"/>
  <outline>
    <contour>
      <point x="249" y="317" type="line"/>
      <point x="441" y="317" type="line"/>
      <point x="441" y="-91" type="line" smooth="yes"/>
      <point x="441" y="-203"/>
      <point x="362" y="-357"/>
      <point x="217" y="-437"/>
      <point x="116" y="-437" type="qcurve" smooth="yes"/>
      <point x="85" y="-437"/>
      <point x="31" y="-430"/>
      <point x="2" y="-420" type="qcurve"/>
      <point x="16" y="-260" type="line"/>
      <point x="35" y="-266"/>
      <point x="91" y="-274"/>
      <point x="116" y="-274" type="qcurve" smooth="yes"/>
      <point x="159" y="-274"/>
      <point x="218" y="-233"/>
      <point x="249" y="-151"/>
      <point x="249" y="-91" type="qcurve" smooth="yes"/>
    </contour>
    <contour>
      <point x="1199" y="830" type="line"/>
      <point x="1199" y="673" type="line"/>
      <point x="412" y="673" type="line"/>
      <point x="412" y="830" type="line"/>
    </contour>
    <contour>
      <point x="441" y="1456" type="line"/>
      <point x="441" y="0" type="line"/>
      <point x="249" y="0" type="line"/>
      <point x="249" y="1456" type="line"/>
    </contour>
    <contour>
      <point x="1368" y="1456" type="line"/>
      <point x="1368" y="0" type="line"/>
      <point x="1175" y="0" type="line"/>
      <point x="1175" y="1456" type="line"/>
    </contour>
  </outline>
</glyph>
<glyph name="uni0529" format="2">
  <advance width="1274"/>
  <unicode hex="0529"/>
  <outline>
    <contour>
      <point x="249" y="153" type="line"/>
      <point x="435" y="153" type="line"/>
      <point x="435" y="-89" type="line" smooth="yes"/>
      <point x="435" y="-201"/>
      <point x="358" y="-357"/>
      <point x="214" y="-437"/>
      <point x="113" y="-437" type="qcurve" smooth="yes"/>
      <point x="82" y="-437"/>
      <point x="30" y="-430"/>
      <point x="1" y="-420" type="qcurve"/>
      <point x="15" y="-263" type="line"/>
      <point x="30" y="-269"/>
      <point x="99" y="-275"/>
      <point x="113" y="-275" type="qcurve" smooth="yes"/>
      <point x="156" y="-275"/>
      <point x="217" y="-233"/>
      <point x="249" y="-150"/>
      <point x="249" y="-89" type="qcurve" smooth="yes"/>
    </contour>
    <contour>
      <point x="968" y="613" type="line"/>
      <point x="968" y="463" type="line"/>
      <point x="396" y="463" type="line"/>
      <point x="396" y="613" type="line"/>
    </contour>
    <contour>
      <point x="435" y="1082" type="line"/>
      <point x="435" y="0" type="line"/>
      <point x="249" y="0" type="line"/>
      <point x="249" y="1082" type="line"/>
    </contour>
    <contour>
      <point x="1117" y="1082" type="line"/>
      <point x="1117" y="0" type="line"/>
      <point x="932" y="0" type="line"/>
      <point x="932" y="1082" type="line"/>
    </contour>
  </outline>
</glyph>
<glyph name="uni0612" format="2">
  <advance width="0"/>
  <unicode hex="0612"/>
  <anchor x="529" y="1939" name="Anchor-8"/>
  <anchor x="525" y="976" name="_Anchor-8"/>
  <anchor x="525" y="976" name="_Anchor-6"/>
  <anchor x="525" y="976" name="_Anchor-5"/>
  <outline>
    <contour>
      <point x="546" y="1011" type="line"/>
      <point x="509" y="1008"/>
      <point x="466" y="1008" type="qcurve" smooth="yes"/>
      <point x="297" y="1008"/>
      <point x="86" y="1150"/>
      <point x="86" y="1301" type="qcurve" smooth="yes"/>
      <point x="86" y="1435"/>
      <point x="294" y="1646"/>
      <point x="496" y="1691" type="qcurve"/>
      <point x="486" y="1695"/>
      <point x="468" y="1702"/>
      <point x="445" y="1712" type="qcurve" smooth="yes"/>
      <point x="389" y="1735"/>
      <point x="316" y="1761"/>
      <point x="296" y="1761" type="qcurve" smooth="yes"/>
      <point x="264" y="1761"/>
      <point x="204" y="1724"/>
      <point x="184" y="1698" type="qcurve" smooth="yes"/>
      <point x="169" y="1678" type="line"/>
      <point x="85" y="1720" type="line"/>
      <point x="93" y="1734" type="line" smooth="yes"/>
      <point x="128" y="1791"/>
      <point x="234" y="1860"/>
      <point x="297" y="1860" type="qcurve" smooth="yes"/>
      <point x="332" y="1860"/>
      <point x="416" y="1830"/>
      <point x="465" y="1807" type="qcurve" smooth="yes"/>
      <point x="552" y="1765"/>
      <point x="666" y="1725"/>
      <point x="714" y="1723" type="qcurve"/>
      <point x="706" y="1629" type="line"/>
      <point x="558" y="1617"/>
      <point x="318" y="1529"/>
      <point x="178" y="1394"/>
      <point x="178" y="1310" type="qcurve" smooth="yes"/>
      <point x="178" y="1104"/>
      <point x="474" y="1104" type="qcurve" smooth="yes"/>
      <point x="488" y="1104"/>
      <point x="516" y="1105"/>
      <point x="529" y="1106" type="qcurve"/>
    </contour>
    <contour>
      <point x="890" y="1628" type="line"/>
      <point x="914" y="1572"/>
      <point x="941" y="1455"/>
      <point x="941" y="1398" type="qcurve" smooth="yes"/>
      <point x="941" y="1276"/>
      <point x="797" y="1071"/>
      <point x="636" y="1034" type="qcurve"/>
      <point x="596" y="1116" type="line"/>
      <point x="731" y="1149"/>
      <point x="848" y="1295"/>
      <point x="848" y="1388" type="qcurve" smooth="yes"/>
      <point x="848" y="1437"/>
      <point x="823" y="1541"/>
      <point x="800" y="1595" type="qcurve"/>
    </contour>
  </outline>
</glyph>
<glyph name="uni0615" format="2">
  <advance width="0"/>
  <unicode hex="0615"/>
  <anchor x="443" y="1984" name="Anchor-8"/>
  <anchor x="444" y="1207" name="_Anchor-8"/>
  <anchor x="444" y="1207" name="_Anchor-6"/>
  <anchor x="444" y="1207" name="_Anchor-5"/>
  <outline>
    <contour>
      <point x="239" y="1382" type="line"/>
      <point x="248" y="1397"/>
      <point x="267" y="1427"/>
      <point x="276" y="1441" type="qcurve"/>
      <point x="276" y="1923" type="line"/>
      <point x="362" y="1923" type="line"/>
      <point x="362" y="1563" type="line"/>
      <point x="465" y="1691"/>
      <point x="580" y="1691" type="qcurve" smooth="yes"/>
      <point x="667" y="1691"/>
      <point x="772" y="1585"/>
      <point x="772" y="1505" type="qcurve" smooth="yes"/>
      <point x="770" y="1291"/>
      <point x="407" y="1291" type="qcurve" smooth="yes"/>
      <point x="127" y="1291" type="line"/>
      <point x="127" y="1382" type="line"/>
    </contour>
    <contour>
      <point x="405" y="1383" type="line" smooth="yes"/>
      <point x="683" y="1383"/>
      <point x="683" y="1501" type="qcurve" smooth="yes"/>
      <point x="683" y="1542"/>
      <point x="628" y="1598"/>
      <point x="584" y="1598" type="qcurve" smooth="yes"/>
      <point x="526" y="1598"/>
      <point x="398" y="1487"/>
      <point x="330" y="1382" type="qcurve"/>
    </contour>
  </outline>
</glyph>
<glyph name="uni0644" format="2">
  <advance width="1310"/>
  <unicode hex="0644"/>
  <anchor x="581" y="1052" name="Anchor-6"/>
  <anchor x="629" y="-696" name="Anchor-4"/>
  <outline>
    <contour>
      <point x="1158" y="116" type="line" smooth="yes"/>
      <point x="1158" y="-200"/>
      <point x="888" y="-496"/>
      <point x="629" y="-496" type="qcurve" smooth="yes"/>
      <point x="443" y="-496"/>
      <point x="209" y="-363"/>
      <point x="99" y="-125"/>
      <point x="99" y="32" type="qcurve" smooth="yes"/>
      <point x="99" y="138"/>
      <point x="143" y="361"/>
      <point x="181" y="467" type="qcurve"/>
      <point x="340" y="403" type="line"/>
      <point x="311" y="311"/>
      <point x="271" y="117"/>
      <point x="271" y="26" type="qcurve" smooth="yes"/>
      <point x="271" y="-136"/>
      <point x="436" y="-316"/>
      <point x="629" y="-316" type="qcurve" smooth="yes"/>
      <point x="808" y="-316"/>
      <point x="989" y="-120"/>
      <point x="989" y="98" type="qcurve" smooth="yes"/>
      <point x="989" y="1377" type="line"/>
      <point x="1158" y="1377" type="line"/>
    </contour>
  </outline>
</glyph>
<glyph name="uni0657" format="2">
  <advance width="0"/>
  <unicode hex="0657"/>
  <anchor x="308" y="1528" name="Anchor-8"/>
  <anchor x="284" y="961" name="_Anchor-8"/>
  <anchor x="284" y="961" name="_Anchor-6"/>
  <anchor x="284" y="961" name="_Anchor-5"/>
  <outline>
    <contour>
      <point x="95" y="1366" type="line"/>
      <point x="116" y="1365"/>
      <point x="147" y="1362"/>
      <point x="166" y="1360" type="qcurve"/>
      <point x="268" y="1502"/>
      <point x="523" y="1516" type="qcurve"/>
      <point x="536" y="1439" type="line"/>
      <point x="436" y="1430"/>
      <point x="282" y="1381"/>
      <point x="246" y="1343" type="qcurve"/>
      <point x="316" y="1338"/>
      <point x="434" y="1256"/>
      <point x="434" y="1170" type="qcurve" smooth="yes"/>
      <point x="434" y="1103"/>
      <point x="340" y="1006"/>
      <point x="269" y="1006" type="qcurve" smooth="yes"/>
      <point x="198" y="1006"/>
      <point x="104" y="1097"/>
      <point x="104" y="1171" type="qcurve" smooth="yes"/>
      <point x="104" y="1227"/>
      <point x="131" y="1294" type="qcurve"/>
      <point x="117" y="1296"/>
      <point x="87" y="1299" type="qcurve"/>
    </contour>
    <contour>
      <point x="211" y="1278" type="qcurve"/>
      <point x="201" y="1253"/>
      <point x="184" y="1196"/>
      <point x="184" y="1172" type="qcurve" smooth="yes"/>
      <point x="184" y="1135"/>
      <point x="231" y="1088"/>
      <point x="265" y="1088" type="qcurve" smooth="yes"/>
      <point x="304" y="1088"/>
      <point x="353" y="1142"/>
      <point x="353" y="1174" type="qcurve" smooth="yes"/>
      <point x="353" y="1225"/>
      <point x="268" y="1265"/>
    </contour>
  </outline>
</glyph>
<glyph name="uni066D" format="2">
  <advance width="1314"/>
  <unicode hex="066D"/>
  <outline>
    <contour>
      <point x="541" y="940" type="line"/>
      <point x="657" y="1293" type="line"/>
      <point x="774" y="940" type="line"/>
      <point x="1144" y="940" type="line"/>
      <point x="845" y="721" type="line"/>
      <point x="959" y="369" type="line"/>
      <point x="657" y="586" type="line"/>
      <point x="355" y="369" type="line"/>
      <point x="470" y="721" type="line"/>
      <point x="171" y="940" type="line"/>
    </contour>
  </outline>
</glyph>
<glyph name="uni06A9" format="2">
  <advance width="1793"/>
  <unicode hex="06A9"/>
  <anchor x="1237" y="1364" name="Anchor-6"/>
  <anchor x="919" y="-240" name="Anchor-4"/>
  <outline>
    <contour>
      <point x="1108" y="0" type="qcurve" smooth="yes"/>
      <point x="855" y="0" type="line" smooth="yes"/>
      <point x="479" y="0"/>
      <point x="99" y="204"/>
      <point x="99" y="455" type="qcurve" smooth="yes"/>
      <point x="99" y="524"/>
      <point x="130" y="656"/>
      <point x="155" y="717" type="qcurve"/>
      <point x="310" y="659" type="line"/>
      <point x="294" y="615"/>
      <point x="273" y="515"/>
      <point x="273" y="470" type="qcurve" smooth="yes"/>
      <point x="274" y="353"/>
      <point x="404" y="228"/>
      <point x="662" y="182"/>
      <point x="855" y="182" type="qcurve" smooth="yes"/>
      <point x="1107" y="182" type="line" smooth="yes"/>
      <point x="1301" y="182"/>
      <point x="1469" y="251"/>
      <point x="1469" y="354" type="qcurve" smooth="yes"/>
      <point x="1469" y="420"/>
      <point x="1376" y="546"/>
      <point x="1229" y="669"/>
      <point x="1061" y="788"/>
      <point x="987" y="846" type="qcurve" smooth="yes"/>
      <point x="955" y="872"/>
      <point x="921" y="942"/>
      <point x="921" y="978" type="qcurve" smooth="yes"/>
      <point x="921" y="1019"/>
      <point x="966" y="1091"/>
      <point x="1014" y="1110" type="qcurve" smooth="yes"/>
      <point x="1733" y="1402" type="line"/>
      <point x="1733" y="1225" type="line"/>
      <point x="1104" y="970" type="line"/>
      <point x="1190" y="909"/>
      <point x="1378" y="774"/>
      <point x="1541" y="621"/>
      <point x="1643" y="448"/>
      <point x="1643" y="350" type="qcurve" smooth="yes"/>
      <point x="1642" y="164"/>
      <point x="1387" y="0"/>
    </contour>
  </outline>
</glyph>
<glyph name="uni06F5" format="2">
  <advance width="1208"/>
  <unicode hex="06F5"/>
  <outline>
    <contour>
      <point x="604" y="159" type="qcurve"/>
      <point x="579" y="72"/>
      <point x="463" y="0"/>
      <point x="386" y="0" type="qcurve" smooth="yes"/>
      <point x="255" y="0"/>
      <point x="105" y="167"/>
      <point x="105" y="337" type="qcurve" smooth="yes"/>
      <point x="105" y="519"/>
      <point x="310" y="926"/>
      <point x="469" y="1143" type="qcurve"/>
      <point x="409" y="1202" type="line"/>
      <point x="515" y="1347" type="line"/>
      <point x="735" y="1143"/>
      <point x="992" y="788"/>
      <point x="1103" y="477"/>
      <point x="1103" y="337" type="qcurve" smooth="yes"/>
      <point x="1103" y="169"/>
      <point x="959" y="0"/>
      <point x="826" y="0" type="qcurve" smooth="yes"/>
      <point x="759" y="0"/>
      <point x="630" y="72"/>
    </contour>
    <contour>
      <point x="271" y="336" type="qcurve" smooth="yes"/>
      <point x="271" y="262"/>
      <point x="333" y="172"/>
      <point x="385" y="172" type="qcurve" smooth="yes"/>
      <point x="419" y="172"/>
      <point x="475" y="201"/>
      <point x="522" y="299"/>
      <point x="541" y="402" type="qcurve"/>
      <point x="665" y="402" type="line"/>
      <point x="682" y="299"/>
      <point x="731" y="201"/>
      <point x="792" y="172"/>
      <point x="826" y="172" type="qcurve" smooth="yes"/>
      <point x="883" y="172"/>
      <point x="936" y="260"/>
      <point x="936" y="336" type="qcurve" smooth="yes"/>
      <point x="936" y="502"/>
      <point x="758" y="852"/>
      <point x="597" y="1021" type="qcurve"/>
      <point x="428" y="798"/>
      <point x="271" y="462"/>
    </contour>
  </outline>
</glyph>
<glyph name="uni1AB1" format="2">
  <advance width="0"/>
  <unicode hex="1AB1"/>
  <anchor x="-586" y="1170" name="_Anchor-11"/>
  <anchor x="-586" y="1170" name="_Anchor-0"/>
  <outline>
    <contour>
      <point x="-1054" y="1354" type="qcurve" smooth="yes"/>
      <point x="-1054" y="1398"/>
      <point x="-999" y="1460"/>
      <point x="-945" y="1460" type="qcurve" smooth="yes"/>
      <point x="-892" y="1460"/>
      <point x="-835" y="1398"/>
      <point x="-835" y="1354" type="qcurve" smooth="yes"/>
      <point x="-835" y="1310"/>
      <point x="-892" y="1249"/>
      <point x="-945" y="1249" type="qcurve" smooth="yes"/>
      <point x="-999" y="1249"/>
      <point x="-1054" y="1310"/>
    </contour>
    <contour>
      <point x="-336" y="1352" type="qcurve" smooth="yes"/>
      <point x="-336" y="1396"/>
      <point x="-280" y="1459"/>
      <point x="-227" y="1459" type="qcurve" smooth="yes"/>
      <point x="-173" y="1459"/>
      <point x="-117" y="1396"/>
      <point x="-117" y="1352" type="qcurve" smooth="yes"/>
      <point x="-117" y="1308"/>
      <point x="-173" y="1247"/>
      <point x="-227" y="1247" type="qcurve" smooth="yes"/>
      <point x="-280" y="1247"/>
      <point x="-336" y="1308"/>
    </contour>
    <contour>
      <point x="-797" y="1454" type="qcurve" smooth="yes"/>
      <point x="-797" y="1511"/>
      <point x="-741" y="1604"/>
      <point x="-645" y="1659"/>
      <point x="-585" y="1659" type="qcurve" smooth="yes"/>
      <point x="-496" y="1659"/>
      <point x="-374" y="1540"/>
      <point x="-374" y="1454" type="qcurve" smooth="yes"/>
      <point x="-374" y="1368"/>
      <point x="-496" y="1252"/>
      <point x="-585" y="1252" type="qcurve" smooth="yes"/>
      <point x="-676" y="1252"/>
      <point x="-797" y="1368"/>
    </contour>
    <contour>
      <point x="-699" y="1454" type="qcurve" smooth="yes"/>
      <point x="-699" y="1411"/>
      <point x="-635" y="1340"/>
      <point x="-585" y="1340" type="qcurve" smooth="yes"/>
      <point x="-535" y="1340"/>
      <point x="-472" y="1409"/>
      <point x="-472" y="1454" type="qcurve" smooth="yes"/>
      <point x="-472" y="1500"/>
      <point x="-535" y="1570"/>
      <point x="-585" y="1570" type="qcurve" smooth="yes"/>
      <point x="-635" y="1570"/>
      <point x="-699" y="1500"/>
    </contour>
  </outline>
</glyph>
<glyph name="uni1AB2" format="2">
  <advance width="0"/>
  <unicode hex="1AB2"/>
  <anchor x="-579" y="1089" name="_Anchor-11"/>
  <anchor x="-579" y="1089" name="_Anchor-0"/>
  <outline>
    <contour>
      <point x="-833" y="1091" type="qcurve" smooth="yes"/>
      <point x="-905" y="1091"/>
      <point x="-1009" y="1164"/>
      <point x="-1065" y="1287"/>
      <point x="-1065" y="1360" type="qcurve" smooth="yes"/>
      <point x="-1065" y="1394" type="line" smooth="yes"/>
      <point x="-1065" y="1468"/>
      <point x="-1009" y="1591"/>
      <point x="-905" y="1664"/>
      <point x="-834" y="1664" type="qcurve" smooth="yes"/>
      <point x="-768" y="1664"/>
      <point x="-663" y="1599"/>
      <point x="-589" y="1506"/>
      <point x="-551" y="1415"/>
      <point x="-551" y="1388" type="qcurve" smooth="yes"/>
      <point x="-551" y="1367" type="line" smooth="yes"/>
      <point x="-551" y="1341"/>
      <point x="-589" y="1250"/>
      <point x="-663" y="1156"/>
      <point x="-767" y="1091"/>
    </contour>
    <contour>
      <point x="-833" y="1188" type="qcurve" smooth="yes"/>
      <point x="-791" y="1188"/>
      <point x="-722" y="1230"/>
      <point x="-671" y="1291"/>
      <point x="-641" y="1350"/>
      <point x="-637" y="1367" type="qcurve"/>
      <point x="-637" y="1388" type="line"/>
      <point x="-641" y="1404"/>
      <point x="-671" y="1463"/>
      <point x="-722" y="1524"/>
      <point x="-791" y="1567"/>
      <point x="-834" y="1567" type="qcurve" smooth="yes"/>
      <point x="-879" y="1567"/>
      <point x="-935" y="1526"/>
      <point x="-960" y="1449"/>
      <point x="-960" y="1394" type="qcurve" smooth="yes"/>
      <point x="-960" y="1360" type="line" smooth="yes"/>
      <point x="-960" y="1305"/>
      <point x="-935" y="1228"/>
      <point x="-879" y="1188"/>
    </contour>
    <contour>
      <point x="-338" y="1091" type="qcurve" smooth="yes"/>
      <point x="-404" y="1091"/>
      <point x="-508" y="1156"/>
      <point x="-582" y="1250"/>
      <point x="-620" y="1341"/>
      <point x="-620" y="1367" type="qcurve" smooth="yes"/>
      <point x="-620" y="1388" type="line" smooth="yes"/>
      <point x="-620" y="1415"/>
      <point x="-582" y="1506"/>
      <point x="-508" y="1599"/>
      <point x="-403" y="1664"/>
      <point x="-337" y="1664" type="qcurve" smooth="yes"/>
      <point x="-266" y="1664"/>
      <point x="-162" y="1591"/>
      <point x="-106" y="1468"/>
      <point x="-106" y="1394" type="qcurve" smooth="yes"/>
      <point x="-106" y="1360" type="line" smooth="yes"/>
      <point x="-106" y="1287"/>
      <point x="-162" y="1164"/>
      <point x="-266" y="1091"/>
    </contour>
    <contour>
      <point x="-338" y="1188" type="qcurve" smooth="yes"/>
      <point x="-292" y="1188"/>
      <point x="-236" y="1228"/>
      <point x="-211" y="1305"/>
      <point x="-211" y="1360" type="qcurve" smooth="yes"/>
      <point x="-211" y="1394" type="line" smooth="yes"/>
      <point x="-211" y="1449"/>
      <point x="-236" y="1526"/>
      <point x="-291" y="1567"/>
      <point x="-337" y="1567" type="qcurve" smooth="yes"/>
      <point x="-380" y="1567"/>
      <point x="-449" y="1524"/>
      <point x="-500" y="1463"/>
      <point x="-531" y="1404"/>
      <point x="-535" y="1388" type="qcurve"/>
      <point x="-535" y="1367" type="line"/>
      <point x="-531" y="1350"/>
      <point x="-500" y="1291"/>
      <point x="-449" y="1230"/>
      <point x="-380" y="1188"/>
    </contour>
  </outline>
</glyph>
<glyph name="uni1AB3" format="2">
  <advance width="0"/>
  <unicode hex="1AB3"/>
  <anchor x="-585" y="1170" name="_Anchor-11"/>
  <anchor x="-585" y="1170" name="_Anchor-0"/>
  <outline>
    <contour>
      <point x="-643" y="1805" type="line"/>
      <point x="-527" y="1805" type="line"/>
      <point x="-527" y="1276" type="line"/>
      <point x="-643" y="1276" type="line"/>
    </contour>
    <contour>
      <point x="-887" y="1458" type="line"/>
      <point x="-887" y="1624" type="line"/>
      <point x="-513" y="1249" type="line"/>
      <point x="-585" y="1157" type="line"/>
    </contour>
    <contour>
      <point x="-283" y="1624" type="line"/>
      <point x="-283" y="1458" type="line"/>
      <point x="-585" y="1157" type="line"/>
      <point x="-654" y="1254" type="line"/>
    </contour>
  </outline>
</glyph>
<glyph name="uni1AB5" format="2">
  <advance width="0"/>
  <unicode hex="1AB5"/>
  <anchor x="-543" y="0" name="_Anchor-9"/>
  <anchor x="-543" y="0" name="_Anchor-2"/>
  <outline>
    <contour>
      <point x="-950" y="-127" type="line"/>
      <point x="-848" y="-263" type="line"/>
      <point x="-745" y="-127" type="line"/>
      <point x="-597" y="-127" type="line"/>
      <point x="-769" y="-337" type="line"/>
      <point x="-592" y="-552" type="line"/>
      <point x="-738" y="-552" type="line"/>
      <point x="-846" y="-412" type="line"/>
      <point x="-955" y="-552" type="line"/>
      <point x="-1101" y="-552" type="line"/>
      <point x="-925" y="-337" type="line"/>
      <point x="-1096" y="-127" type="line"/>
    </contour>
    <contour>
      <point x="-350" y="-127" type="line"/>
      <point x="-248" y="-263" type="line"/>
      <point x="-145" y="-127" type="line"/>
      <point x="3" y="-127" type="line"/>
      <point x="-169" y="-337" type="line"/>
      <point x="8" y="-552" type="line"/>
      <point x="-138" y="-552" type="line"/>
      <point x="-246" y="-412" type="line"/>
      <point x="-355" y="-552" type="line"/>
      <point x="-501" y="-552" type="line"/>
      <point x="-325" y="-337" type="line"/>
      <point x="-496" y="-127" type="line"/>
    </contour>
  </outline>
</glyph>
<glyph name="uni1ABE" format="2">
  <advance width="0"/>
  <unicode hex="1ABE"/>
  <outline>
    <contour>
      <point x="-1107" y="373" type="line"/>
      <point x="-1142" y="384"/>
      <point x="-1228" y="439"/>
      <point x="-1289" y="529"/>
      <point x="-1289" y="591" type="qcurve" smooth="yes"/>
      <point x="-1289" y="651"/>
      <point x="-1228" y="739"/>
      <point x="-1142" y="795"/>
      <point x="-1107" y="805" type="qcurve"/>
      <point x="-1098" y="735" type="line"/>
      <point x="-1132" y="719"/>
      <point x="-1194" y="650"/>
      <point x="-1194" y="591" type="qcurve" smooth="yes"/>
      <point x="-1194" y="526"/>
      <point x="-1132" y="459"/>
      <point x="-1098" y="441" type="qcurve"/>
    </contour>
    <contour>
      <point x="-36" y="373" type="qcurve"/>
      <point x="-45" y="441" type="line"/>
      <point x="-11" y="459"/>
      <point x="51" y="526"/>
      <point x="51" y="591" type="qcurve" smooth="yes"/>
      <point x="51" y="652"/>
      <point x="-10" y="719"/>
      <point x="-45" y="735" type="qcurve"/>
      <point x="-36" y="805" type="line"/>
      <point x="0" y="795"/>
      <point x="85" y="740"/>
      <point x="146" y="652"/>
      <point x="146" y="591" type="qcurve" smooth="yes"/>
      <point x="146" y="529"/>
      <point x="85" y="439"/>
      <point x="0" y="384"/>
    </contour>
  </outline>
</glyph>
<glyph name="uni1D00" format="2">
  <advance width="1132"/>
  <unicode hex="1D00"/>
  <anchor x="566" y="1290" name="Anchor-5"/>
  <anchor x="566" y="0" name="Anchor-2"/>
  <anchor x="1132" y="1290" name="Anchor-1"/>
  <anchor x="566" y="1290" name="Anchor-0"/>
  <outline>
    <contour>
      <point x="608" y="969" type="line"/>
      <point x="201" y="0" type="line"/>
      <point x="9" y="0" type="line"/>
      <point x="479" y="1082" type="line"/>
      <point x="591" y="1082" type="line"/>
    </contour>
    <contour>
      <point x="932" y="0" type="line"/>
      <point x="522" y="976" type="line"/>
      <point x="540" y="1082" type="line"/>
      <point x="654" y="1082" type="line"/>
      <point x="1123" y="0" type="line"/>
    </contour>
    <contour>
      <point x="890" y="410" type="line"/>
      <point x="890" y="259" type="line"/>
      <point x="200" y="259" type="line"/>
      <point x="200" y="410" type="line"/>
    </contour>
  </outline>
</glyph>
<glyph name="uni1D09" format="2">
  <advance width="497"/>
  <unicode hex="1D09"/>
  <anchor x="249" y="1290" name="Anchor-5"/>
  <anchor x="249" y="-447" name="Anchor-2"/>
  <anchor x="497" y="1290" name="Anchor-1"/>
  <anchor x="249" y="1290" name="Anchor-0"/>
  <outline>
    <contour>
      <point x="139" y="-287" type="qcurve" smooth="yes"/>
      <point x="139" y="-243"/>
      <point x="195" y="-183"/>
      <point x="248" y="-183" type="qcurve" smooth="yes"/>
      <point x="302" y="-183"/>
      <point x="358" y="-243"/>
      <point x="358" y="-287" type="qcurve" smooth="yes"/>
      <point x="358" y="-332"/>
      <point x="302" y="-394"/>
      <point x="248" y="-394" type="qcurve" smooth="yes"/>
      <point x="195" y="-394"/>
      <point x="139" y="-332"/>
    </contour>
    <contour>
      <point x="339" y="1082" type="line"/>
      <point x="339" y="0" type="line"/>
      <point x="154" y="0" type="line"/>
      <point x="154" y="1082" type="line"/>
    </contour>
  </outline>
</glyph>
<glyph name="uni1D3F" format="2">
  <advance width="977"/>
  <unicode hex="1D3F"/>
  <outline>
    <contour>
      <point x="102" y="1728" type="line"/>
      <point x="482" y="1728" type="line" smooth="yes"/>
      <point x="603" y="1728"/>
      <point x="771" y="1650"/>
      <point x="858" y="1499"/>
      <point x="858" y="1389" type="qcurve" smooth="yes"/>
      <point x="858" y="1312"/>
      <point x="798" y="1186"/>
      <point x="686" y="1098"/>
      <point x="607" y="1078" type="qcurve"/>
      <point x="570" y="1065" type="line"/>
      <point x="227" y="1065" type="line"/>
      <point x="225" y="1210" type="line"/>
      <point x="455" y="1210" type="line" smooth="yes"/>
      <point x="533" y="1210"/>
      <point x="637" y="1253"/>
      <point x="688" y="1334"/>
      <point x="688" y="1390" type="qcurve" smooth="yes"/>
      <point x="688" y="1485"/>
      <point x="576" y="1583"/>
      <point x="450" y="1583" type="qcurve" smooth="yes"/>
      <point x="272" y="1583" type="line"/>
      <point x="272" y="651" type="line"/>
      <point x="102" y="651" type="line"/>
    </contour>
    <contour>
      <point x="731" y="651" type="line"/>
      <point x="460" y="1115" type="line"/>
      <point x="640" y="1115" type="line"/>
      <point x="915" y="660" type="line"/>
      <point x="915" y="651" type="line"/>
    </contour>
  </outline>
</glyph>
<glyph name="uni1D40" format="2">
  <advance width="909"/>
  <unicode hex="1D40"/>
  <outline>
    <contour>
      <point x="540" y="1728" type="line"/>
      <point x="540" y="651" type="line"/>
      <point x="369" y="651" type="line"/>
      <point x="369" y="1728" type="line"/>
    </contour>
    <contour>
      <point x="869" y="1728" type="line"/>
      <point x="869" y="1583" type="line"/>
      <point x="40" y="1583" type="line"/>
      <point x="40" y="1728" type="line"/>
    </contour>
  </outline>
</glyph>
<glyph name="uni1D44" format="2">
  <advance width="860"/>
  <unicode hex="1D44"/>
  <outline>
    <contour>
      <point x="299" y="1315" type="qcurve" smooth="yes"/>
      <point x="299" y="935" type="line" smooth="yes"/>
      <point x="299" y="888"/>
      <point x="330" y="818"/>
      <point x="398" y="781"/>
      <point x="453" y="781" type="qcurve" smooth="yes"/>
      <point x="531" y="781"/>
      <point x="606" y="839"/>
      <point x="616" y="885" type="qcurve"/>
      <point x="773" y="885" type="line"/>
      <point x="773" y="828"/>
      <point x="690" y="713"/>
      <point x="542" y="636"/>
      <point x="445" y="636" type="qcurve" smooth="yes"/>
      <point x="358" y="636"/>
      <point x="214" y="697"/>
      <point x="129" y="824"/>
      <point x="129" y="922" type="qcurve" smooth="yes"/>
      <point x="129" y="1276" type="line" smooth="yes"/>
      <point x="129" y="1317"/>
      <point x="112" y="1407"/>
      <point x="98" y="1439" type="qcurve"/>
      <point x="98" y="1451" type="line"/>
      <point x="274" y="1451" type="line"/>
      <point x="285" y="1428"/>
      <point x="299" y="1348"/>
    </contour>
    <contour>
      <point x="261" y="956" type="line"/>
      <point x="259" y="1079" type="line"/>
      <point x="399" y="1079" type="line" smooth="yes"/>
      <point x="477" y="1079"/>
      <point x="579" y="1106"/>
      <point x="628" y="1163"/>
      <point x="628" y="1209" type="qcurve" smooth="yes"/>
      <point x="628" y="1262"/>
      <point x="558" y="1322"/>
      <point x="491" y="1322" type="qcurve" smooth="yes"/>
      <point x="435" y="1322"/>
      <point x="336" y="1280"/>
      <point x="274" y="1214"/>
      <point x="271" y="1177" type="qcurve"/>
      <point x="212" y="1245" type="line"/>
      <point x="224" y="1296"/>
      <point x="306" y="1398"/>
      <point x="437" y="1466"/>
      <point x="524" y="1466" type="qcurve" smooth="yes"/>
      <point x="649" y="1466"/>
      <point x="798" y="1337"/>
      <point x="798" y="1232" type="qcurve" smooth="yes"/>
      <point x="798" y="1143"/>
      <point x="708" y="1020"/>
      <point x="544" y="956"/>
      <point x="432" y="956" type="qcurve" smooth="yes"/>
    </contour>
  </outline>
</glyph>
<glyph name="uni1D53" format="2">
  <advance width="695"/>
  <unicode hex="1D53"/>
  <outline>
    <contour>
      <point x="46" y="698" type="qcurve"/>
      <point x="119" y="817" type="line"/>
      <point x="146" y="798"/>
      <point x="219" y="781"/>
      <point x="259" y="781" type="qcurve" smooth="yes"/>
      <point x="326" y="781"/>
      <point x="416" y="845"/>
      <point x="463" y="963"/>
      <point x="463" y="1042" type="qcurve" smooth="yes"/>
      <point x="463" y="1059" type="line" smooth="yes"/>
      <point x="463" y="1118"/>
      <point x="437" y="1214"/>
      <point x="385" y="1284"/>
      <point x="308" y="1321"/>
      <point x="258" y="1321" type="qcurve" smooth="yes"/>
      <point x="220" y="1321"/>
      <point x="156" y="1299"/>
      <point x="129" y="1282" type="qcurve"/>
      <point x="40" y="1399" type="line"/>
      <point x="84" y="1431"/>
      <point x="195" y="1466"/>
      <point x="258" y="1466" type="qcurve" smooth="yes"/>
      <point x="343" y="1466"/>
      <point x="481" y="1407"/>
      <point x="580" y="1299"/>
      <point x="633" y="1149"/>
      <point x="633" y="1059" type="qcurve" smooth="yes"/>
      <point x="633" y="1042" type="line" smooth="yes"/>
      <point x="633" y="922"/>
      <point x="540" y="739"/>
      <point x="372" y="636"/>
      <point x="259" y="636" type="qcurve" smooth="yes"/>
      <point x="198" y="636"/>
      <point x="90" y="667"/>
    </contour>
  </outline>
</glyph>
<glyph name="uni1D57" format="2">
  <advance width="552"/>
  <unicode hex="1D57"/>
  <outline>
    <contour>
      <point x="509" y="1451" type="line"/>
      <point x="509" y="1306" type="line"/>
      <point x="40" y="1306" type="line"/>
      <point x="40" y="1451" type="line"/>
    </contour>
    <contour>
      <point x="186" y="1646" type="line"/>
      <point x="356" y="1646" type="line"/>
      <point x="356" y="898" type="line" smooth="yes"/>
      <point x="356" y="852"/>
      <point x="375" y="801"/>
      <point x="410" y="781"/>
      <point x="433" y="781" type="qcurve" smooth="yes"/>
      <point x="450" y="781"/>
      <point x="490" y="788"/>
      <point x="500" y="790" type="qcurve"/>
      <point x="501" y="652" type="line"/>
      <point x="485" y="647"/>
      <point x="408" y="636"/>
      <point x="371" y="636" type="qcurve" smooth="yes"/>
      <point x="321" y="636"/>
      <point x="236" y="683"/>
      <point x="186" y="787"/>
      <point x="186" y="872" type="qcurve" smooth="yes"/>
    </contour>
  </outline>
</glyph>
<glyph name="uni1D60" format="2">
  <advance width="1081"/>
  <unicode hex="1D60"/>
  <outline>
    <contour>
      <point x="442" y="325" type="line"/>
      <point x="442" y="1250" type="line" smooth="yes"/>
      <point x="442" y="1340"/>
      <point x="499" y="1439"/>
      <point x="595" y="1479"/>
      <point x="651" y="1479" type="qcurve" smooth="yes"/>
      <point x="725" y="1479"/>
      <point x="857" y="1420"/>
      <point x="960" y="1312"/>
      <point x="1019" y="1167"/>
      <point x="1019" y="1081" type="qcurve" smooth="yes"/>
      <point x="1019" y="972"/>
      <point x="920" y="774"/>
      <point x="707" y="650"/>
      <point x="534" y="650" type="qcurve" smooth="yes"/>
      <point x="366" y="650"/>
      <point x="158" y="778"/>
      <point x="62" y="982"/>
      <point x="62" y="1096" type="qcurve" smooth="yes"/>
      <point x="62" y="1220"/>
      <point x="167" y="1415"/>
      <point x="261" y="1479" type="qcurve"/>
      <point x="346" y="1371" type="line"/>
      <point x="291" y="1316"/>
      <point x="231" y="1170"/>
      <point x="231" y="1096" type="qcurve" smooth="yes"/>
      <point x="231" y="1019"/>
      <point x="281" y="881"/>
      <point x="413" y="795"/>
      <point x="534" y="795" type="qcurve" smooth="yes"/>
      <point x="659" y="795"/>
      <point x="795" y="878"/>
      <point x="849" y="1009"/>
      <point x="849" y="1081" type="qcurve" smooth="yes"/>
      <point x="849" y="1135"/>
      <point x="823" y="1228"/>
      <point x="776" y="1298"/>
      <point x="711" y="1337"/>
      <point x="671" y="1337" type="qcurve" smooth="yes"/>
      <point x="637" y="1337"/>
      <point x="613" y="1292"/>
      <point x="613" y="1265" type="qcurve" smooth="yes"/>
      <point x="613" y="325" type="line"/>
    </contour>
  </outline>
</glyph>
<glyph name="uni1D6C" format="2">
  <advance width="1294"/>
  <unicode hex="1D6C"/>
  <anchor x="754" y="1600" name="Anchor-5"/>
  <anchor x="754" y="0" name="Anchor-2"/>
  <anchor x="1294" y="1600" name="Anchor-1"/>
  <anchor x="754" y="1600" name="Anchor-0"/>
  <outline>
    <contour>
      <point x="282" y="1536" type="line"/>
      <point x="468" y="1536" type="line"/>
      <point x="468" y="210" type="line"/>
      <point x="453" y="0" type="line"/>
      <point x="282" y="0" type="line"/>
    </contour>
    <contour>
      <point x="1199" y="550" type="qcurve" smooth="yes"/>
      <point x="1199" y="529" type="line" smooth="yes"/>
      <point x="1199" y="411"/>
      <point x="1143" y="210"/>
      <point x="1035" y="62"/>
      <point x="879" y="-20"/>
      <point x="778" y="-20" type="qcurve" smooth="yes"/>
      <point x="675" y="-20"/>
      <point x="520" y="51"/>
      <point x="414" y="185"/>
      <point x="351" y="375"/>
      <point x="339" y="494" type="qcurve"/>
      <point x="339" y="586" type="line"/>
      <point x="351" y="706"/>
      <point x="414" y="896"/>
      <point x="521" y="1031"/>
      <point x="674" y="1102"/>
      <point x="776" y="1102" type="qcurve" smooth="yes"/>
      <point x="878" y="1102"/>
      <point x="1036" y="1023"/>
      <point x="1143" y="877"/>
      <point x="1199" y="674"/>
    </contour>
    <contour>
      <point x="1013" y="529" type="qcurve" smooth="yes"/>
      <point x="1013" y="550" type="line" smooth="yes"/>
      <point x="1013" y="631"/>
      <point x="983" y="774"/>
      <point x="917" y="883"/>
      <point x="809" y="946"/>
      <point x="731" y="946" type="qcurve" smooth="yes"/>
      <point x="661" y="946"/>
      <point x="557" y="898"/>
      <point x="485" y="817"/>
      <point x="440" y="714"/>
      <point x="429" y="659" type="qcurve"/>
      <point x="429" y="418" type="line"/>
      <point x="441" y="365"/>
      <point x="487" y="265"/>
      <point x="561" y="184"/>
      <point x="664" y="137"/>
      <point x="733" y="137" type="qcurve" smooth="yes"/>
      <point x="808" y="137"/>
      <point x="914" y="198"/>
      <point x="981" y="306"/>
      <point x="1013" y="448"/>
    </contour>
    <contour>
      <point x="593" y="1412" type="qcurve"/>
      <point x="717" y="1401" type="line"/>
      <point x="717" y="1328"/>
      <point x="659" y="1218"/>
      <point x="562" y="1158"/>
      <point x="501" y="1158" type="qcurve" smooth="yes"/>
      <point x="450" y="1158"/>
      <point x="384" y="1187"/>
      <point x="332" y="1224"/>
      <point x="275" y="1253"/>
      <point x="233" y="1253" type="qcurve" smooth="yes"/>
      <point x="191" y="1253"/>
      <point x="134" y="1189"/>
      <point x="134" y="1142" type="qcurve"/>
      <point x="10" y="1148" type="line"/>
      <point x="10" y="1221"/>
      <point x="67" y="1332"/>
      <point x="164" y="1395"/>
      <point x="224" y="1395" type="qcurve" smooth="yes"/>
      <point x="267" y="1395"/>
      <point x="332" y="1366"/>
      <point x="390" y="1329"/>
      <point x="453" y="1300"/>
      <point x="492" y="1300" type="qcurve" smooth="yes"/>
      <point x="520" y="1300"/>
      <point x="566" y="1330"/>
      <point x="593" y="1381"/>
    </contour>
  </outline>
</glyph>
<glyph name="uni1D89" format="2">
  <advance width="694"/>
  <unicode hex="1D89"/>
  <anchor x="408" y="1290" name="Anchor-5"/>
  <anchor x="239" y="-447" name="Anchor-2"/>
  <anchor x="694" y="1290" name="Anchor-1"/>
  <anchor x="408" y="1290" name="Anchor-0"/>
  <outline>
    <contour>
      <point x="289" y="152" type="line"/>
      <point x="474" y="152" type="line"/>
      <point x="474" y="-135" type="line" smooth="yes"/>
      <point x="474" y="-232"/>
      <point x="393" y="-367"/>
      <point x="257" y="-437"/>
      <point x="174" y="-437" type="qcurve" smooth="yes"/>
      <point x="152" y="-437"/>
      <point x="95" y="-429"/>
      <point x="74" y="-422" type="qcurve"/>
      <point x="75" y="-294" type="line"/>
      <point x="89" y="-298"/>
      <point x="122" y="-302"/>
      <point x="135" y="-302" type="qcurve" smooth="yes"/>
      <point x="184" y="-302"/>
      <point x="252" y="-269"/>
      <point x="289" y="-196"/>
      <point x="289" y="-135" type="qcurve" smooth="yes"/>
    </contour>
    <contour>
      <point x="326" y="912" type="line"/>
      <point x="326" y="0" type="line"/>
      <point x="141" y="0" type="line"/>
      <point x="141" y="1082" type="line"/>
      <point x="321" y="1082" type="line"/>
    </contour>
    <contour>
      <point x="664" y="1088" type="qcurve"/>
      <point x="663" y="916" type="line"/>
      <point x="640" y="921"/>
      <point x="599" y="924"/>
      <point x="573" y="924" type="qcurve" smooth="yes"/>
      <point x="509" y="924"/>
      <point x="411" y="884"/>
      <point x="343" y="812"/>
      <point x="304" y="713"/>
      <point x="298" y="654" type="qcurve"/>
      <point x="246" y="624" type="line"/>
      <point x="246" y="722"/>
      <point x="285" y="894"/>
      <point x="367" y="1027"/>
      <point x="494" y="1102"/>
      <point x="582" y="1102" type="qcurve" smooth="yes"/>
      <point x="602" y="1102"/>
      <point x="654" y="1093"/>
    </contour>
  </outline>
</glyph>
<glyph name="uni1D9A" format="2">
  <advance width="1192"/>
  <unicode hex="1D9A"/>
  <anchor x="575" y="1290" name="Anchor-5"/>
  <anchor x="575" y="-547" name="Anchor-2"/>
  <anchor x="1192" y="1290" name="Anchor-1"/>
  <anchor x="575" y="1290" name="Anchor-0"/>
  <outline>
    <contour>
      <point x="106" y="119" type="line"/>
      <point x="273" y="119" type="line"/>
      <point x="273" y="-248" type="line" smooth="yes"/>
      <point x="273" y="-294"/>
      <point x="299" y="-358"/>
      <point x="346" y="-397"/>
      <point x="409" y="-415"/>
      <point x="445" y="-415" type="qcurve" smooth="yes"/>
      <point x="459" y="-415"/>
      <point x="492" y="-411"/>
      <point x="505" y="-407" type="qcurve"/>
      <point x="506" y="-535" type="line"/>
      <point x="485" y="-542"/>
      <point x="429" y="-550"/>
      <point x="406" y="-550" type="qcurve" smooth="yes"/>
      <point x="344" y="-550"/>
      <point x="235" y="-511"/>
      <point x="153" y="-434"/>
      <point x="106" y="-321"/>
      <point x="106" y="-248" type="qcurve" smooth="yes"/>
    </contour>
    <contour>
      <point x="148" y="1082" type="line"/>
      <point x="1017" y="1082" type="line"/>
      <point x="1019" y="964" type="line"/>
      <point x="512" y="413" type="line"/>
      <point x="409" y="413" type="line"/>
      <point x="409" y="529" type="line"/>
      <point x="777" y="929" type="line"/>
      <point x="148" y="929" type="line"/>
    </contour>
    <contour>
      <point x="409" y="524" type="line"/>
      <point x="554" y="524" type="line" smooth="yes"/>
      <point x="715" y="524"/>
      <point x="944" y="431"/>
      <point x="1065" y="252"/>
      <point x="1065" y="122" type="qcurve" smooth="yes"/>
      <point x="1065" y="20"/>
      <point x="992" y="-138"/>
      <point x="861" y="-248"/>
      <point x="682" y="-305"/>
      <point x="575" y="-305" type="qcurve" smooth="yes"/>
      <point x="489" y="-305"/>
      <point x="322" y="-256"/>
      <point x="187" y="-152"/>
      <point x="106" y="8"/>
      <point x="106" y="119" type="qcurve"/>
      <point x="291" y="119" type="line"/>
      <point x="291" y="45"/>
      <point x="362" y="-79"/>
      <point x="490" y="-153"/>
      <point x="575" y="-153" type="qcurve" smooth="yes"/>
      <point x="672" y="-153"/>
      <point x="807" y="-83"/>
      <point x="879" y="40"/>
      <point x="879" y="118" type="qcurve" smooth="yes"/>
      <point x="879" y="211"/>
      <point x="803" y="325"/>
      <point x="656" y="378"/>
      <point x="550" y="378" type="qcurve" smooth="yes"/>
      <point x="409" y="378" type="line"/>
    </contour>
  </outline>
</glyph>
<glyph name="uni1DAC" format="2">
  <advance width="1315"/>
  <unicode hex="1DAC"/>
  <outline>
    <contour>
      <point x="250" y="1078" type="qcurve"/>
      <point x="204" y="1077" type="line"/>
      <point x="204" y="1161"/>
      <point x="242" y="1303"/>
      <point x="314" y="1408"/>
      <point x="417" y="1466"/>
      <point x="482" y="1466" type="qcurve" smooth="yes"/>
      <point x="561" y="1466"/>
      <point x="678" y="1403"/>
      <point x="742" y="1267"/>
      <point x="742" y="1159" type="qcurve" smooth="yes"/>
      <point x="742" y="651" type="line"/>
      <point x="571" y="651" type="line"/>
      <point x="571" y="1127" type="line" smooth="yes"/>
      <point x="571" y="1200"/>
      <point x="535" y="1285"/>
      <point x="471" y="1322"/>
      <point x="427" y="1322" type="qcurve" smooth="yes"/>
      <point x="366" y="1322"/>
      <point x="287" y="1257"/>
      <point x="250" y="1147"/>
    </contour>
    <contour>
      <point x="272" y="1280" type="line"/>
      <point x="272" y="651" type="line"/>
      <point x="102" y="651" type="line"/>
      <point x="102" y="1451" type="line"/>
      <point x="231" y="1451" type="line"/>
    </contour>
    <contour>
      <point x="721" y="1078" type="qcurve"/>
      <point x="675" y="1077" type="line"/>
      <point x="675" y="1161"/>
      <point x="713" y="1303"/>
      <point x="785" y="1408"/>
      <point x="888" y="1466"/>
      <point x="953" y="1466" type="qcurve" smooth="yes"/>
      <point x="1032" y="1466"/>
      <point x="1149" y="1403"/>
      <point x="1213" y="1267"/>
      <point x="1213" y="1159" type="qcurve" smooth="yes"/>
      <point x="1213" y="651" type="line"/>
      <point x="1042" y="651" type="line"/>
      <point x="1042" y="1127" type="line" smooth="yes"/>
      <point x="1042" y="1200"/>
      <point x="1006" y="1285"/>
      <point x="942" y="1322"/>
      <point x="898" y="1322" type="qcurve" smooth="yes"/>
      <point x="837" y="1322"/>
      <point x="758" y="1257"/>
      <point x="721" y="1147"/>
    </contour>
    <contour>
      <point x="1042" y="569" type="qcurve" smooth="yes"/>
      <point x="1042" y="790" type="line"/>
      <point x="1213" y="790" type="line"/>
      <point x="1213" y="558" type="line" smooth="yes"/>
      <point x="1213" y="491"/>
      <point x="1187" y="389"/>
      <point x="1122" y="331"/>
      <point x="1061" y="331" type="qcurve" smooth="yes"/>
      <point x="1024" y="331"/>
      <point x="954" y="341"/>
      <point x="916" y="351" type="qcurve"/>
      <point x="916" y="511" type="line"/>
      <point x="928" y="508"/>
      <point x="970" y="501"/>
      <point x="989" y="501" type="qcurve" smooth="yes"/>
      <point x="1009" y="501"/>
      <point x="1042" y="529"/>
    </contour>
  </outline>
</glyph>
<glyph name="uni1DBF" format="2">
  <advance width="936"/>
  <unicode hex="1DBF"/>
  <outline>
    <contour>
      <point x="469" y="635" type="qcurve" smooth="yes"/>
      <point x="390" y="635"/>
      <point x="255" y="695"/>
      <point x="154" y="816"/>
      <point x="98" y="1001"/>
      <point x="98" y="1125" type="qcurve" smooth="yes"/>
      <point x="98" y="1259" type="line" smooth="yes"/>
      <point x="98" y="1384"/>
      <point x="154" y="1566"/>
      <point x="254" y="1685"/>
      <point x="389" y="1742"/>
      <point x="468" y="1742" type="qcurve" smooth="yes"/>
      <point x="548" y="1742"/>
      <point x="683" y="1685"/>
      <point x="783" y="1566"/>
      <point x="838" y="1384"/>
      <point x="838" y="1259" type="qcurve" smooth="yes"/>
      <point x="838" y="1125" type="line" smooth="yes"/>
      <point x="838" y="1001"/>
      <point x="783" y="816"/>
      <point x="684" y="695"/>
      <point x="549" y="635"/>
    </contour>
    <contour>
      <point x="469" y="779" type="qcurve" smooth="yes"/>
      <point x="520" y="779"/>
      <point x="595" y="818"/>
      <point x="644" y="897"/>
      <point x="668" y="1020"/>
      <point x="668" y="1104" type="qcurve" smooth="yes"/>
      <point x="668" y="1282" type="line" smooth="yes"/>
      <point x="668" y="1366"/>
      <point x="644" y="1486"/>
      <point x="594" y="1562"/>
      <point x="519" y="1598"/>
      <point x="468" y="1598" type="qcurve" smooth="yes"/>
      <point x="418" y="1598"/>
      <point x="342" y="1562"/>
      <point x="292" y="1486"/>
      <point x="267" y="1366"/>
      <point x="267" y="1282" type="qcurve" smooth="yes"/>
      <point x="267" y="1104" type="line" smooth="yes"/>
      <point x="267" y="1020"/>
      <point x="292" y="897"/>
      <point x="343" y="818"/>
      <point x="419" y="779"/>
    </contour>
    <contour>
      <point x="747" y="1118" type="line"/>
      <point x="158" y="1118" type="line"/>
      <point x="158" y="1263" type="line"/>
      <point x="747" y="1263" type="line"/>
    </contour>
  </outline>
</glyph>
<glyph name="uni1DCF" format="2">
  <advance width="0"/>
  <unicode hex="1DCF"/>
  <anchor x="-586" y="0" name="_Anchor-9"/>
  <anchor x="-586" y="0" name="_Anchor-2"/>
  <outline>
    <contour>
      <point x="-583" y="-111" type="line"/>
      <point x="-663" y="-388" type="line"/>
      <point x="-800" y="-388" type="line"/>
      <point x="-720" y="-111" type="line"/>
    </contour>
    <contour>
      <point x="-374" y="-278" type="line"/>
      <point x="-454" y="-555" type="line"/>
      <point x="-590" y="-555" type="line"/>
      <point x="-510" y="-278" type="line"/>
    </contour>
    <contour>
      <point x="-703" y="-388" type="line"/>
      <point x="-703" y="-278" type="line"/>
      <point x="-703" y="-278"/>
      <point x="-626" y="-278"/>
      <point x="-526" y="-278"/>
      <point x="-449" y="-278"/>
      <point x="-449" y="-278" type="qcurve"/>
      <point x="-449" y="-278"/>
      <point x="-449" y="-333"/>
      <point x="-449" y="-388"/>
      <point x="-449" y="-388" type="qcurve"/>
    </contour>
  </outline>
</glyph>
<glyph name="uni1DD2" format="2">
  <advance width="0"/>
  <unicode hex="1DD2"/>
  <anchor x="-582" y="1170" name="_Anchor-11"/>
  <anchor x="-582" y="1170" name="_Anchor-0"/>
  <outline>
    <contour>
      <point x="-618" y="1427" type="qcurve" smooth="yes"/>
      <point x="-679" y="1427"/>
      <point x="-790" y="1473"/>
      <point x="-861" y="1575"/>
      <point x="-861" y="1658" type="qcurve" smooth="yes"/>
      <point x="-861" y="1734"/>
      <point x="-787" y="1849"/>
      <point x="-664" y="1914"/>
      <point x="-590" y="1914" type="qcurve" smooth="yes"/>
      <point x="-507" y="1914"/>
      <point x="-377" y="1840"/>
      <point x="-303" y="1705"/>
      <point x="-303" y="1611" type="qcurve" smooth="yes"/>
      <point x="-303" y="1497"/>
      <point x="-368" y="1337"/>
      <point x="-476" y="1231"/>
      <point x="-606" y="1167"/>
      <point x="-672" y="1150" type="qcurve"/>
      <point x="-707" y="1250" type="line"/>
      <point x="-660" y="1265"/>
      <point x="-562" y="1311"/>
      <point x="-478" y="1388"/>
      <point x="-426" y="1513"/>
      <point x="-426" y="1608" type="qcurve" smooth="yes"/>
      <point x="-426" y="1674"/>
      <point x="-466" y="1765"/>
      <point x="-539" y="1812"/>
      <point x="-587" y="1812" type="qcurve" smooth="yes"/>
      <point x="-656" y="1812"/>
      <point x="-738" y="1731"/>
      <point x="-738" y="1663" type="qcurve" smooth="yes"/>
      <point x="-738" y="1592"/>
      <point x="-669" y="1521"/>
      <point x="-600" y="1521" type="qcurve" smooth="yes"/>
      <point x="-568" y="1521"/>
      <point x="-521" y="1530"/>
      <point x="-502" y="1540" type="qcurve"/>
      <point x="-477" y="1465" type="line"/>
      <point x="-502" y="1448"/>
      <point x="-569" y="1427"/>
    </contour>
  </outline>
</glyph>
<glyph name="uni1DD5" format="2">
  <advance width="0"/>
  <unicode hex="1DD5"/>
  <anchor x="-570" y="1170" name="_Anchor-11"/>
  <anchor x="-570" y="1170" name="_Anchor-0"/>
  <outline>
    <contour>
      <point x="-658" y="1462" type="line"/>
      <point x="-658" y="1563" type="line" smooth="yes"/>
      <point x="-658" y="1609"/>
      <point x="-702" y="1657"/>
      <point x="-749" y="1657" type="qcurve" smooth="yes"/>
      <point x="-798" y="1657"/>
      <point x="-855" y="1618"/>
      <point x="-855" y="1582" type="qcurve"/>
      <point x="-971" y="1592" type="line"/>
      <point x="-971" y="1664"/>
      <point x="-849" y="1759"/>
      <point x="-749" y="1759" type="qcurve" smooth="yes"/>
      <point x="-654" y="1759"/>
      <point x="-535" y="1660"/>
      <point x="-535" y="1562" type="qcurve" smooth="yes"/>
      <point x="-535" y="1478" type="line"/>
    </contour>
    <contour>
      <point x="-644" y="1523" type="line"/>
      <point x="-643" y="1441" type="line"/>
      <point x="-758" y="1441" type="line" smooth="yes"/>
      <point x="-798" y="1441"/>
      <point x="-854" y="1419"/>
      <point x="-882" y="1381"/>
      <point x="-882" y="1358" type="qcurve" smooth="yes"/>
      <point x="-882" y="1327"/>
      <point x="-838" y="1291"/>
      <point x="-793" y="1291" type="qcurve" smooth="yes"/>
      <point x="-744" y="1291"/>
      <point x="-653" y="1347"/>
      <point x="-640" y="1391" type="qcurve"/>
      <point x="-621" y="1320" type="line"/>
      <point x="-643" y="1268"/>
      <point x="-744" y="1192"/>
      <point x="-821" y="1192" type="qcurve" smooth="yes"/>
      <point x="-906" y="1192"/>
      <point x="-1005" y="1281"/>
      <point x="-1005" y="1356" type="qcurve" smooth="yes"/>
      <point x="-1005" y="1409"/>
      <point x="-948" y="1483"/>
      <point x="-838" y="1523"/>
      <point x="-759" y="1523" type="qcurve" smooth="yes"/>
    </contour>
    <contour>
      <point x="-396" y="1187" type="qcurve" smooth="yes"/>
      <point x="-473" y="1187"/>
      <point x="-591" y="1257"/>
      <point x="-656" y="1383"/>
      <point x="-656" y="1467" type="qcurve" smooth="yes"/>
      <point x="-656" y="1479" type="line" smooth="yes"/>
      <point x="-656" y="1564"/>
      <point x="-591" y="1689"/>
      <point x="-474" y="1759"/>
      <point x="-397" y="1759" type="qcurve" smooth="yes"/>
      <point x="-318" y="1759"/>
      <point x="-201" y="1689"/>
      <point x="-136" y="1564"/>
      <point x="-136" y="1479" type="qcurve" smooth="yes"/>
      <point x="-136" y="1467" type="line" smooth="yes"/>
      <point x="-136" y="1383"/>
      <point x="-201" y="1257"/>
      <point x="-318" y="1187"/>
    </contour>
    <contour>
      <point x="-396" y="1289" type="qcurve" smooth="yes"/>
      <point x="-348" y="1289"/>
      <point x="-287" y="1333"/>
      <point x="-259" y="1413"/>
      <point x="-259" y="1467" type="qcurve" smooth="yes"/>
      <point x="-259" y="1479" type="line" smooth="yes"/>
      <point x="-259" y="1534"/>
      <point x="-288" y="1613"/>
      <point x="-348" y="1657"/>
      <point x="-397" y="1657" type="qcurve" smooth="yes"/>
      <point x="-444" y="1657"/>
      <point x="-505" y="1613"/>
      <point x="-533" y="1534"/>
      <point x="-533" y="1479" type="qcurve" smooth="yes"/>
      <point x="-533" y="1467" type="line" smooth="yes"/>
      <point x="-533" y="1413"/>
      <point x="-504" y="1333"/>
      <point x="-444" y="1289"/>
    </contour>
  </outline>
</glyph>
<glyph name="uni1DE3" format="2">
  <advance width="0"/>
  <unicode hex="1DE3"/>
  <anchor x="-569" y="1170" name="_Anchor-11"/>
  <anchor x="-569" y="1170" name="_Anchor-0"/>
  <outline>
    <contour>
      <point x="-710" y="1622" type="qcurve"/>
      <point x="-765" y="1694" type="line"/>
      <point x="-727" y="1726"/>
      <point x="-627" y="1762"/>
      <point x="-578" y="1762" type="qcurve" smooth="yes"/>
      <point x="-497" y="1762"/>
      <point x="-387" y="1669"/>
      <point x="-387" y="1589" type="qcurve" smooth="yes"/>
      <point x="-387" y="1530"/>
      <point x="-452" y="1443"/>
      <point x="-543" y="1379"/>
      <point x="-583" y="1356" type="qcurve"/>
      <point x="-655" y="1424" type="line"/>
      <point x="-607" y="1450"/>
      <point x="-543" y="1495"/>
      <point x="-511" y="1545"/>
      <point x="-511" y="1580" type="qcurve" smooth="yes"/>
      <point x="-511" y="1620"/>
      <point x="-553" y="1659"/>
      <point x="-588" y="1659" type="qcurve" smooth="yes"/>
      <point x="-624" y="1659"/>
      <point x="-685" y="1636"/>
    </contour>
    <contour>
      <point x="-511" y="1201" type="line"/>
      <point x="-655" y="1424" type="line"/>
      <point x="-521" y="1436" type="line"/>
      <point x="-378" y="1205" type="line"/>
      <point x="-378" y="1201" type="line"/>
    </contour>
  </outline>
</glyph>
<glyph name="uni1DF3" format="2">
  <advance width="0"/>
  <unicode hex="1DF3"/>
  <anchor x="-586" y="1170" name="_Anchor-11"/>
  <anchor x="-586" y="1170" name="_Anchor-0"/>
  <outline>
    <contour>
      <point x="-774" y="1888" type="qcurve" smooth="yes"/>
      <point x="-774" y="1918"/>
      <point x="-738" y="1958"/>
      <point x="-703" y="1958" type="qcurve" smooth="yes"/>
      <point x="-668" y="1958"/>
      <point x="-631" y="1918"/>
      <point x="-631" y="1888" type="qcurve" smooth="yes"/>
      <point x="-631" y="1860"/>
      <point x="-668" y="1820"/>
      <point x="-703" y="1820" type="qcurve" smooth="yes"/>
      <point x="-738" y="1820"/>
      <point x="-774" y="1860"/>
    </contour>
    <contour>
      <point x="-538" y="1888" type="qcurve" smooth="yes"/>
      <point x="-538" y="1918"/>
      <point x="-502" y="1958"/>
      <point x="-467" y="1958" type="qcurve" smooth="yes"/>
      <point x="-432" y="1958"/>
      <point x="-395" y="1918"/>
      <point x="-395" y="1888" type="qcurve" smooth="yes"/>
      <point x="-395" y="1860"/>
      <point x="-432" y="1820"/>
      <point x="-467" y="1820" type="qcurve" smooth="yes"/>
      <point x="-502" y="1820"/>
      <point x="-538" y="1860"/>
    </contour>
    <contour>
      <point x="-586" y="1187" type="qcurve" smooth="yes"/>
      <point x="-663" y="1187"/>
      <point x="-781" y="1257"/>
      <point x="-846" y="1383"/>
      <point x="-846" y="1467" type="qcurve" smooth="yes"/>
      <point x="-846" y="1479" type="line" smooth="yes"/>
      <point x="-846" y="1564"/>
      <point x="-781" y="1689"/>
      <point x="-663" y="1759"/>
      <point x="-586" y="1759" type="qcurve" smooth="yes"/>
      <point x="-507" y="1759"/>
      <point x="-391" y="1689"/>
      <point x="-326" y="1564"/>
      <point x="-326" y="1479" type="qcurve" smooth="yes"/>
      <point x="-326" y="1467" type="line" smooth="yes"/>
      <point x="-326" y="1383"/>
      <point x="-391" y="1257"/>
      <point x="-507" y="1187"/>
    </contour>
    <contour>
      <point x="-586" y="1289" type="qcurve" smooth="yes"/>
      <point x="-538" y="1289"/>
      <point x="-477" y="1333"/>
      <point x="-448" y="1413"/>
      <point x="-448" y="1467" type="qcurve" smooth="yes"/>
      <point x="-448" y="1479" type="line" smooth="yes"/>
      <point x="-448" y="1534"/>
      <point x="-477" y="1613"/>
      <point x="-538" y="1657"/>
      <point x="-586" y="1657" type="qcurve" smooth="yes"/>
      <point x="-633" y="1657"/>
      <point x="-694" y="1613"/>
      <point x="-723" y="1534"/>
      <point x="-723" y="1479" type="qcurve" smooth="yes"/>
      <point x="-723" y="1467" type="line" smooth="yes"/>
      <point x="-723" y="1413"/>
      <point x="-694" y="1333"/>
      <point x="-633" y="1289"/>
    </contour>
  </outline>
</glyph>
<glyph name="uni1E9E" format="2">
  <advance width="1323"/>
  <unicode hex="1E9E"/>
  <outline>
    <contour>
      <point x="328" y="961" type="line"/>
      <point x="328" y="0" type="line"/>
      <point x="143" y="0" type="line"/>
      <point x="143" y="961" type="line"/>
    </contour>
    <contour>
      <point x="328" y="959" type="qcurve"/>
      <point x="143" y="959" type="line"/>
      <point x="143" y="1087"/>
      <point x="198" y="1281"/>
      <point x="309" y="1411"/>
      <point x="479" y="1476"/>
      <point x="593" y="1476" type="qcurve" smooth="yes"/>
      <point x="756" y="1476"/>
      <point x="999" y="1344"/>
      <point x="1096" y="1252" type="qcurve"/>
      <point x="670" y="732" type="line"/>
      <point x="568" y="732" type="line"/>
      <point x="568" y="851" type="line"/>
      <point x="876" y="1224" type="line"/>
      <point x="828" y="1262"/>
      <point x="694" y="1324"/>
      <point x="593" y="1324" type="qcurve" smooth="yes"/>
      <point x="511" y="1324"/>
      <point x="407" y="1266"/>
      <point x="350" y="1165"/>
      <point x="328" y="1033"/>
    </contour>
    <contour>
      <point x="459" y="29" type="qcurve"/>
      <point x="512" y="182" type="line"/>
      <point x="553" y="163"/>
      <point x="667" y="131"/>
      <point x="739" y="131" type="qcurve" smooth="yes"/>
      <point x="836" y="131"/>
      <point x="973" y="201"/>
      <point x="1046" y="324"/>
      <point x="1046" y="404" type="qcurve" smooth="yes"/>
      <point x="1046" y="507"/>
      <point x="972" y="638"/>
      <point x="825" y="700"/>
      <point x="716" y="700" type="qcurve" smooth="yes"/>
      <point x="568" y="700" type="line"/>
      <point x="568" y="847" type="line"/>
      <point x="719" y="847" type="line" smooth="yes"/>
      <point x="882" y="847"/>
      <point x="1111" y="745"/>
      <point x="1231" y="549"/>
      <point x="1231" y="408" type="qcurve" smooth="yes"/>
      <point x="1231" y="272"/>
      <point x="1105" y="80"/>
      <point x="883" y="-21"/>
      <point x="739" y="-21" type="qcurve" smooth="yes"/>
      <point x="669" y="-21"/>
      <point x="530" y="3"/>
    </contour>
  </outline>
</glyph>
<glyph name="uni1FBE" format="2">
  <advance width="439"/>
  <unicode hex="1FBE"/>
  <outline>
    <contour>
      <point x="123" y="-100" type="line"/>
      <point x="265" y="-100" type="line"/>
      <point x="265" y="-339" type="line" smooth="yes"/>
      <point x="265" y="-385"/>
      <point x="292" y="-421"/>
      <point x="315" y="-421" type="qcurve" smooth="yes"/>
      <point x="326" y="-421"/>
      <point x="352" y="-417"/>
      <point x="359" y="-416" type="qcurve"/>
      <point x="359" y="-515" type="line"/>
      <point x="348" y="-519"/>
      <point x="312" y="-526"/>
      <point x="286" y="-526" type="qcurve" smooth="yes"/>
      <point x="237" y="-526"/>
      <point x="164" y="-489"/>
      <point x="123" y="-408"/>
      <point x="123" y="-344" type="qcurve" smooth="yes"/>
    </contour>
  </outline>
</glyph>
<glyph name="uni1FCE" format="2">
  <advance width="764"/>
  <unicode hex="1FCE"/>
  <outline>
    <contour>
      <point x="365" y="1156" type="line"/>
      <point x="365" y="1173" type="line"/>
      <point x="481" y="1495" type="line"/>
      <point x="676" y="1495" type="line"/>
      <point x="676" y="1474" type="line"/>
      <point x="453" y="1156" type="line"/>
    </contour>
    <contour>
      <point x="345" y="1495" type="line"/>
      <point x="345" y="1410" type="line" smooth="yes"/>
      <point x="345" y="1325"/>
      <point x="252" y="1182"/>
      <point x="166" y="1137" type="qcurve"/>
      <point x="94" y="1195" type="line"/>
      <point x="135" y="1240"/>
      <point x="177" y="1344"/>
      <point x="177" y="1416" type="qcurve" smooth="yes"/>
      <point x="177" y="1495" type="line"/>
    </contour>
  </outline>
</glyph>
<glyph name="uni203D" format="2">
  <advance width="920"/>
  <unicode hex="203D"/>
  <outline>
    <contour>
      <point x="514" y="1635" type="line"/>
      <point x="500" y="410" type="line"/>
      <point x="333" y="410" type="line"/>
      <point x="319" y="1635" type="line"/>
    </contour>
    <contour>
      <point x="520" y="410" type="qcurve"/>
      <point x="335" y="410" type="line"/>
      <point x="336" y="506"/>
      <point x="369" y="629"/>
      <point x="444" y="731"/>
      <point x="507" y="796" type="qcurve" smooth="yes"/>
      <point x="553" y="843"/>
      <point x="631" y="926"/>
      <point x="679" y="1023"/>
      <point x="679" y="1091" type="qcurve" smooth="yes"/>
      <point x="679" y="1160"/>
      <point x="629" y="1260"/>
      <point x="534" y="1314"/>
      <point x="464" y="1314" type="qcurve" smooth="yes"/>
      <point x="406" y="1314"/>
      <point x="303" y="1272"/>
      <point x="238" y="1185"/>
      <point x="238" y="1115" type="qcurve"/>
      <point x="53" y="1115" type="line"/>
      <point x="55" y="1228"/>
      <point x="164" y="1390"/>
      <point x="349" y="1476"/>
      <point x="464" y="1476" type="qcurve" smooth="yes"/>
      <point x="592" y="1476"/>
      <point x="770" y="1384"/>
      <point x="864" y="1213"/>
      <point x="864" y="1096" type="qcurve" smooth="yes"/>
      <point x="864" y="1006"/>
      <point x="792" y="855"/>
      <point x="677" y="723"/>
      <point x="613" y="663" type="qcurve" smooth="yes"/>
      <point x="559" y="612"/>
      <point x="520" y="484"/>
    </contour>
    <contour>
      <point x="327" y="93" type="qcurve" smooth="yes"/>
      <point x="327" y="138"/>
      <point x="382" y="200"/>
      <point x="436" y="200" type="qcurve" smooth="yes"/>
      <point x="489" y="200"/>
      <point x="546" y="138"/>
      <point x="546" y="93" type="qcurve" smooth="yes"/>
      <point x="546" y="50"/>
      <point x="489" y="-12"/>
      <point x="436" y="-12" type="qcurve" smooth="yes"/>
      <point x="382" y="-12"/>
      <point x="327" y="50"/>
    </contour>
  </outline>
</glyph>
<glyph name="uni204B" format="2">
  <advance width="1002"/>
  <unicode hex="204B"/>
  <outline>
    <contour>
      <point x="171" y="0" type="line"/>
      <point x="356" y="0" type="line"/>
      <point x="356" y="520" type="line"/>
      <point x="443" y="520" type="line" smooth="yes"/>
      <point x="602" y="520"/>
      <point x="822" y="641"/>
      <point x="935" y="853"/>
      <point x="935" y="988" type="qcurve" smooth="yes"/>
      <point x="935" y="1122"/>
      <point x="822" y="1334"/>
      <point x="602" y="1456"/>
      <point x="443" y="1456" type="qcurve" smooth="yes"/>
      <point x="171" y="1456" type="line"/>
    </contour>
  </outline>
</glyph>
<glyph name="uni2053" format="2">
  <advance width="1366"/>
  <unicode hex="2053"/>
  <outline>
    <contour>
      <point x="1213" y="790" type="qcurve"/>
      <point x="1286" y="674" type="line"/>
      <point x="1236" y="635"/>
      <point x="1078" y="547"/>
      <point x="971" y="547" type="qcurve" smooth="yes"/>
      <point x="893" y="547"/>
      <point x="745" y="607"/>
      <point x="603" y="687"/>
      <point x="466" y="747"/>
      <point x="399" y="747" type="qcurve" smooth="yes"/>
      <point x="317" y="747"/>
      <point x="205" y="694"/>
      <point x="149" y="653" type="qcurve"/>
      <point x="80" y="773" type="line"/>
      <point x="142" y="814"/>
      <point x="297" y="898"/>
      <point x="399" y="898" type="qcurve" smooth="yes"/>
      <point x="479" y="898"/>
      <point x="626" y="838"/>
      <point x="765" y="758"/>
      <point x="901" y="698"/>
      <point x="971" y="698" type="qcurve" smooth="yes"/>
      <point x="1039" y="698"/>
      <point x="1156" y="749"/>
    </contour>
  </outline>
</glyph>
<glyph name="uni205C" format="2">
  <advance width="1162"/>
  <unicode hex="205C"/>
  <outline>
    <contour>
      <point x="1057" y="592" type="line"/>
      <point x="1057" y="418" type="line"/>
      <point x="59" y="418" type="line"/>
      <point x="59" y="592" type="line"/>
    </contour>
    <contour>
      <point x="650" y="1017" type="line"/>
      <point x="650" y="-43" type="line"/>
      <point x="465" y="-43" type="line"/>
      <point x="465" y="1017" type="line"/>
    </contour>
    <contour>
      <point x="845" y="79" type="qcurve" smooth="yes"/>
      <point x="845" y="124"/>
      <point x="901" y="186"/>
      <point x="954" y="186" type="qcurve" smooth="yes"/>
      <point x="1008" y="186"/>
      <point x="1064" y="124"/>
      <point x="1064" y="79" type="qcurve" smooth="yes"/>
      <point x="1064" y="36"/>
      <point x="1008" y="-26"/>
      <point x="954" y="-26" type="qcurve" smooth="yes"/>
      <point x="901" y="-26"/>
      <point x="845" y="36"/>
    </contour>
    <contour>
      <point x="62" y="79" type="qcurve" smooth="yes"/>
      <point x="62" y="124"/>
      <point x="118" y="186"/>
      <point x="171" y="186" type="qcurve" smooth="yes"/>
      <point x="225" y="186"/>
      <point x="281" y="124"/>
      <point x="281" y="79" type="qcurve" smooth="yes"/>
      <point x="281" y="36"/>
      <point x="225" y="-26"/>
      <point x="171" y="-26" type="qcurve" smooth="yes"/>
      <point x="118" y="-26"/>
      <point x="62" y="36"/>
    </contour>
    <contour>
      <point x="62" y="893" type="qcurve" smooth="yes"/>
      <point x="62" y="937"/>
      <point x="118" y="1000"/>
      <point x="171" y="1000" type="qcurve" smooth="yes"/>
      <point x="225" y="1000"/>
      <point x="281" y="937"/>
      <point x="281" y="893" type="qcurve" smooth="yes"/>
      <point x="281" y="849"/>
      <point x="225" y="788"/>
      <point x="171" y="788" type="qcurve" smooth="yes"/>
      <point x="118" y="788"/>
      <point x="62" y="849"/>
    </contour>
    <contour>
      <point x="845" y="893" type="qcurve" smooth="yes"/>
      <point x="845" y="937"/>
      <point x="900" y="1000"/>
      <point x="954" y="1000" type="qcurve" smooth="yes"/>
      <point x="1007" y="1000"/>
      <point x="1064" y="937"/>
      <point x="1064" y="893" type="qcurve" smooth="yes"/>
      <point x="1064" y="849"/>
      <point x="1007" y="788"/>
      <point x="954" y="788" type="qcurve" smooth="yes"/>
      <point x="900" y="788"/>
      <point x="845" y="849"/>
    </contour>
  </outline>
</glyph>
<glyph name="uni208D" format="2">
  <advance width="497"/>
  <unicode hex="208D"/>
  <outline>
    <contour>
      <point x="84" y="30" type="qcurve" smooth="yes"/>
      <point x="84" y="47" type="line" smooth="yes"/>
      <point x="84" y="205"/>
      <point x="179" y="438"/>
      <point x="311" y="585"/>
      <point x="366" y="614" type="qcurve"/>
      <point x="417" y="498" type="line"/>
      <point x="377" y="464"/>
      <point x="298" y="347"/>
      <point x="246" y="172"/>
      <point x="246" y="48" type="qcurve" smooth="yes"/>
      <point x="246" y="29" type="line" smooth="yes"/>
      <point x="246" y="-103"/>
      <point x="298" y="-277"/>
      <point x="377" y="-388"/>
      <point x="417" y="-426" type="qcurve"/>
      <point x="366" y="-537" type="line"/>
      <point x="324" y="-515"/>
      <point x="227" y="-421"/>
      <point x="140" y="-279"/>
      <point x="84" y="-89"/>
    </contour>
  </outline>
</glyph>
<glyph name="uni2094" format="2">
  <advance width="840"/>
  <unicode hex="2094"/>
  <outline>
    <contour>
      <point x="393" y="393" type="qcurve" smooth="yes"/>
      <point x="477" y="393"/>
      <point x="617" y="336"/>
      <point x="721" y="232"/>
      <point x="778" y="90"/>
      <point x="778" y="6" type="qcurve" smooth="yes"/>
      <point x="778" y="-25" type="line" smooth="yes"/>
      <point x="778" y="-123"/>
      <point x="715" y="-276"/>
      <point x="608" y="-382"/>
      <point x="478" y="-437"/>
      <point x="410" y="-437" type="qcurve" smooth="yes"/>
      <point x="295" y="-437"/>
      <point x="140" y="-334"/>
      <point x="62" y="-157"/>
      <point x="62" y="-46" type="qcurve" smooth="yes"/>
      <point x="62" y="49" type="line"/>
      <point x="679" y="49" type="line"/>
      <point x="679" y="-96" type="line"/>
      <point x="232" y="-96" type="line"/>
      <point x="232" y="-106" type="line" smooth="yes"/>
      <point x="232" y="-159"/>
      <point x="270" y="-243"/>
      <point x="349" y="-292"/>
      <point x="410" y="-292" type="qcurve" smooth="yes"/>
      <point x="457" y="-292"/>
      <point x="530" y="-258"/>
      <point x="581" y="-190"/>
      <point x="608" y="-90"/>
      <point x="608" y="-25" type="qcurve" smooth="yes"/>
      <point x="608" y="6" type="line" smooth="yes"/>
      <point x="608" y="82"/>
      <point x="552" y="190"/>
      <point x="452" y="248"/>
      <point x="386" y="248" type="qcurve" smooth="yes"/>
      <point x="317" y="248"/>
      <point x="228" y="185"/>
      <point x="190" y="144" type="qcurve"/>
      <point x="82" y="243" type="line"/>
      <point x="121" y="302"/>
      <point x="274" y="393"/>
    </contour>
  </outline>
</glyph>
<glyph name="uni20AE" format="2">
  <advance width="1222"/>
  <unicode hex="20AE"/>
  <outline>
    <contour>
      <point x="961" y="1121" type="line"/>
      <point x="961" y="950" type="line"/>
      <point x="262" y="636" type="line"/>
      <point x="262" y="807" type="line"/>
    </contour>
    <contour>
      <point x="961" y="792" type="line"/>
      <point x="961" y="621" type="line"/>
      <point x="262" y="307" type="line"/>
      <point x="262" y="478" type="line"/>
    </contour>
    <contour>
      <point x="707" y="1456" type="line"/>
      <point x="707" y="0" type="line"/>
      <point x="517" y="0" type="line"/>
      <point x="517" y="1456" type="line"/>
    </contour>
    <contour>
      <point x="1175" y="1456" type="line"/>
      <point x="1175" y="1298" type="line"/>
      <point x="50" y="1298" type="line"/>
      <point x="50" y="1456" type="line"/>
    </contour>
  </outline>
</glyph>
<glyph name="uni20BC" format="2">
  <advance width="1352"/>
  <unicode hex="20BC"/>
  <outline>
    <contour>
      <point x="1259" y="0" type="line"/>
      <point x="1074" y="0" type="line"/>
      <point x="1074" y="188" type="line" smooth="yes"/>
      <point x="1074" y="417"/>
      <point x="915" y="684"/>
      <point x="768" y="716" type="qcurve"/>
      <point x="768" y="0" type="line"/>
      <point x="582" y="0" type="line"/>
      <point x="582" y="715" type="line"/>
      <point x="442" y="682"/>
      <point x="279" y="415"/>
      <point x="279" y="188" type="qcurve" smooth="yes"/>
      <point x="279" y="0" type="line"/>
      <point x="93" y="0" type="line"/>
      <point x="93" y="186" type="line" smooth="yes"/>
      <point x="93" y="384"/>
      <point x="216" y="680"/>
      <point x="436" y="859"/>
      <point x="582" y="881" type="qcurve"/>
      <point x="582" y="1082" type="line"/>
      <point x="768" y="1082" type="line"/>
      <point x="768" y="882" type="line"/>
      <point x="994" y="849"/>
      <point x="1259" y="484"/>
      <point x="1259" y="186" type="qcurve" smooth="yes"/>
    </contour>
  </outline>
</glyph>
